<svg width="202" height="63" viewBox="0 0 202 63" fill="none" xmlns="http://www.w3.org/2000/svg">
<rect width="202" height="62.5915" rx="11.3803" fill="#33303E"/>
<path d="M75.3571 21.1698C75.3487 21.8658 75.1936 22.4737 74.8917 22.9936C74.5898 23.5051 74.1747 23.8993 73.6464 24.176C73.1181 24.4443 72.5102 24.5785 71.8226 24.5785H68.8667C68.7744 24.5785 68.6948 24.5449 68.6277 24.4779C68.5606 24.4108 68.527 24.3311 68.527 24.2389V16.1133C68.527 16.021 68.5606 15.9414 68.6277 15.8743C68.6948 15.8072 68.7744 15.7737 68.8667 15.7737H71.7471C72.4431 15.7737 73.0594 15.912 73.5961 16.1888C74.1412 16.4571 74.5688 16.8512 74.8791 17.3711C75.1894 17.8826 75.3487 18.4864 75.3571 19.1824C75.3655 19.434 75.3697 19.7652 75.3697 20.1761C75.3697 20.587 75.3655 20.9182 75.3571 21.1698ZM69.722 16.9057V23.4464H71.7597C72.5982 23.4464 73.202 23.2284 73.571 22.7924C73.9483 22.3563 74.1454 21.7945 74.1621 21.1069C74.1705 20.8553 74.1747 20.545 74.1747 20.1761C74.1747 19.8071 74.1705 19.4969 74.1621 19.2453C74.1454 18.5661 73.9399 18.0084 73.5458 17.5724C73.1517 17.1279 72.5353 16.9057 71.6968 16.9057H69.722ZM82.7088 20.7169C82.7256 20.9014 82.734 21.1027 82.734 21.3207C82.734 21.522 82.7256 21.7148 82.7088 21.8993C82.6333 22.7546 82.3356 23.4381 81.8157 23.9496C81.3042 24.4527 80.6082 24.7043 79.7277 24.7043C78.8473 24.7043 78.1471 24.4527 77.6272 23.9496C77.1156 23.4381 76.8222 22.7546 76.7467 21.8993C76.7383 21.8071 76.7341 21.6142 76.7341 21.3207C76.7341 21.0104 76.7383 20.8092 76.7467 20.7169C76.8138 19.8616 77.1073 19.1824 77.6272 18.6793C78.1471 18.1677 78.8473 17.912 79.7277 17.912C80.6082 17.912 81.3084 18.1677 81.8283 18.6793C82.3482 19.1824 82.6417 19.8616 82.7088 20.7169ZM81.5642 20.7798C81.5139 20.2432 81.3336 19.8113 81.0233 19.4843C80.7214 19.1572 80.2896 18.9937 79.7277 18.9937C79.1659 18.9937 78.7299 19.1572 78.4196 19.4843C78.1177 19.8113 77.9416 20.2432 77.8913 20.7798C77.8829 20.8805 77.8787 21.0608 77.8787 21.3207C77.8787 21.5723 77.8829 21.7442 77.8913 21.8364C77.9416 22.3731 78.1177 22.8049 78.4196 23.132C78.7299 23.459 79.1659 23.6225 79.7277 23.6225C80.2896 23.6225 80.7214 23.459 81.0233 23.132C81.3336 22.8049 81.5139 22.3731 81.5642 21.8364C81.5809 21.6519 81.5893 21.48 81.5893 21.3207C81.5893 21.1614 81.5809 20.9811 81.5642 20.7798ZM91.8677 18.3396C91.9432 18.1384 92.0857 18.0378 92.2953 18.0378H92.7104C92.7943 18.0378 92.8656 18.0671 92.9243 18.1258C92.983 18.1845 93.0123 18.2558 93.0123 18.3396L92.9997 18.4403L91.0753 24.2263C90.9998 24.4611 90.874 24.5785 90.6979 24.5785H90.308C90.2073 24.5785 90.1277 24.5491 90.069 24.4904C90.0103 24.4234 89.96 24.3353 89.918 24.2263L88.4212 20.0503L86.9244 24.2263C86.8825 24.3353 86.8322 24.4234 86.7735 24.4904C86.7148 24.5491 86.6351 24.5785 86.5345 24.5785H86.1446C85.9685 24.5785 85.8427 24.4611 85.7672 24.2263L83.8427 18.4403L83.8301 18.3396C83.8301 18.2558 83.8595 18.1845 83.9182 18.1258C83.9769 18.0671 84.0482 18.0378 84.132 18.0378H84.5471C84.7567 18.0378 84.8993 18.1384 84.9748 18.3396L86.3835 22.5408L87.8929 18.3396C87.9684 18.1384 88.0984 18.0378 88.2829 18.0378H88.5596C88.7441 18.0378 88.874 18.1384 88.9495 18.3396L90.4589 22.5408L91.8677 18.3396ZM100.229 24.2389C100.229 24.3311 100.195 24.4108 100.128 24.4779C100.061 24.5449 99.9813 24.5785 99.889 24.5785H99.4236C99.3314 24.5785 99.2517 24.5449 99.1846 24.4779C99.1175 24.4108 99.084 24.3311 99.084 24.2389V20.9182C99.084 20.2893 98.9289 19.8113 98.6186 19.4843C98.3083 19.1572 97.8765 18.9937 97.323 18.9937C96.778 18.9937 96.3461 19.1572 96.0275 19.4843C95.7172 19.8113 95.5621 20.2893 95.5621 20.9182V24.2389C95.5621 24.3311 95.5285 24.4108 95.4614 24.4779C95.3944 24.5449 95.3147 24.5785 95.2225 24.5785H94.7571C94.6648 24.5785 94.5852 24.5449 94.5181 24.4779C94.451 24.4108 94.4174 24.3311 94.4174 24.2389V18.3774C94.4174 18.2851 94.451 18.2055 94.5181 18.1384C94.5852 18.0713 94.6648 18.0378 94.7571 18.0378H95.2225C95.3147 18.0378 95.3944 18.0713 95.4614 18.1384C95.5285 18.2055 95.5621 18.2851 95.5621 18.3774V18.7673C95.7466 18.5241 95.9981 18.3229 96.3168 18.1635C96.6438 17.9958 97.0421 17.912 97.5117 17.912C98.04 17.912 98.5096 18.0252 98.9205 18.2516C99.3314 18.478 99.65 18.805 99.8764 19.2327C100.111 19.652 100.229 20.1509 100.229 20.7295V24.2389ZM103.202 24.2389C103.202 24.3311 103.169 24.4108 103.102 24.4779C103.035 24.5449 102.955 24.5785 102.863 24.5785H102.397C102.305 24.5785 102.226 24.5449 102.158 24.4779C102.091 24.4108 102.058 24.3311 102.058 24.2389V15.9875C102.058 15.8953 102.091 15.8156 102.158 15.7485C102.226 15.6814 102.305 15.6479 102.397 15.6479H102.863C102.955 15.6479 103.035 15.6814 103.102 15.7485C103.169 15.8156 103.202 15.8953 103.202 15.9875V24.2389ZM110.752 20.7169C110.769 20.9014 110.777 21.1027 110.777 21.3207C110.777 21.522 110.769 21.7148 110.752 21.8993C110.677 22.7546 110.379 23.4381 109.859 23.9496C109.347 24.4527 108.651 24.7043 107.771 24.7043C106.891 24.7043 106.19 24.4527 105.67 23.9496C105.159 23.4381 104.865 22.7546 104.79 21.8993C104.782 21.8071 104.777 21.6142 104.777 21.3207C104.777 21.0104 104.782 20.8092 104.79 20.7169C104.857 19.8616 105.151 19.1824 105.67 18.6793C106.19 18.1677 106.891 17.912 107.771 17.912C108.651 17.912 109.352 18.1677 109.872 18.6793C110.391 19.1824 110.685 19.8616 110.752 20.7169ZM109.607 20.7798C109.557 20.2432 109.377 19.8113 109.067 19.4843C108.765 19.1572 108.333 18.9937 107.771 18.9937C107.209 18.9937 106.773 19.1572 106.463 19.4843C106.161 19.8113 105.985 20.2432 105.935 20.7798C105.926 20.8805 105.922 21.0608 105.922 21.3207C105.922 21.5723 105.926 21.7442 105.935 21.8364C105.985 22.3731 106.161 22.8049 106.463 23.132C106.773 23.459 107.209 23.6225 107.771 23.6225C108.333 23.6225 108.765 23.459 109.067 23.132C109.377 22.8049 109.557 22.3731 109.607 21.8364C109.624 21.6519 109.633 21.48 109.633 21.3207C109.633 21.1614 109.624 20.9811 109.607 20.7798ZM116.238 20.4402V20.2767C116.238 19.8658 116.1 19.5514 115.823 19.3333C115.555 19.1069 115.202 18.9937 114.766 18.9937C114.431 18.9937 114.167 19.0524 113.974 19.1698C113.789 19.2788 113.613 19.4465 113.446 19.6729C113.395 19.74 113.341 19.7862 113.282 19.8113C113.223 19.8365 113.144 19.849 113.043 19.849H112.666C112.574 19.849 112.49 19.8155 112.414 19.7484C112.347 19.6813 112.318 19.6017 112.326 19.5094C112.351 19.2579 112.473 19.0105 112.691 18.7673C112.917 18.5157 113.215 18.3103 113.584 18.151C113.953 17.9916 114.347 17.912 114.766 17.912C115.546 17.912 116.175 18.13 116.653 18.5661C117.14 19.0021 117.383 19.6142 117.383 20.4025V24.2389C117.383 24.3311 117.349 24.4108 117.282 24.4779C117.215 24.5449 117.135 24.5785 117.043 24.5785H116.578C116.485 24.5785 116.406 24.5449 116.339 24.4779C116.272 24.4108 116.238 24.3311 116.238 24.2389V23.7232C116.104 24.025 115.819 24.264 115.383 24.4401C114.947 24.6162 114.511 24.7043 114.075 24.7043C113.647 24.7043 113.265 24.6288 112.93 24.4779C112.595 24.3185 112.335 24.1047 112.15 23.8364C111.974 23.568 111.886 23.2662 111.886 22.9307C111.886 22.3018 112.121 21.8113 112.59 21.4591C113.06 21.0985 113.685 20.8553 114.465 20.7295L116.238 20.4402ZM116.238 21.4465L114.754 21.6855C114.209 21.7693 113.785 21.9077 113.483 22.1006C113.182 22.285 113.031 22.5198 113.031 22.8049C113.031 23.0146 113.127 23.2033 113.32 23.371C113.513 23.5387 113.806 23.6225 114.2 23.6225C114.804 23.6225 115.295 23.4506 115.672 23.1068C116.049 22.763 116.238 22.3144 116.238 21.7609V21.4465ZM123.708 15.9875C123.708 15.8953 123.742 15.8156 123.809 15.7485C123.876 15.6814 123.956 15.6479 124.048 15.6479H124.513C124.606 15.6479 124.685 15.6814 124.752 15.7485C124.819 15.8156 124.853 15.8953 124.853 15.9875V24.2389C124.853 24.3311 124.819 24.4108 124.752 24.4779C124.685 24.5449 124.606 24.5785 124.513 24.5785H124.048C123.956 24.5785 123.876 24.5449 123.809 24.4779C123.742 24.4108 123.708 24.3311 123.708 24.2389V23.8489C123.281 24.4192 122.631 24.7043 121.759 24.7043C121.239 24.7043 120.765 24.5827 120.337 24.3395C119.918 24.0963 119.578 23.7483 119.318 23.2955C119.067 22.8427 118.929 22.3144 118.903 21.7106L118.891 21.2956L118.903 20.893C118.929 20.2893 119.067 19.7652 119.318 19.3208C119.578 18.8679 119.918 18.5199 120.337 18.2768C120.757 18.0336 121.23 17.912 121.759 17.912C122.228 17.912 122.622 17.9958 122.941 18.1635C123.268 18.3229 123.524 18.5241 123.708 18.7673V15.9875ZM123.708 20.8553C123.683 20.2683 123.507 19.8113 123.18 19.4843C122.853 19.1572 122.421 18.9937 121.884 18.9937C121.339 18.9937 120.903 19.1698 120.576 19.522C120.258 19.8742 120.082 20.3522 120.048 20.9559L120.035 21.3081L120.048 21.6603C120.082 22.2641 120.258 22.7421 120.576 23.0942C120.903 23.4464 121.339 23.6225 121.884 23.6225C122.404 23.6225 122.832 23.4632 123.167 23.1446C123.503 22.8175 123.683 22.3857 123.708 21.849C123.717 21.7651 123.721 21.5974 123.721 21.3459C123.721 21.1027 123.717 20.9392 123.708 20.8553ZM132.624 24.5785C132.791 24.5785 132.917 24.4737 133.001 24.264L135.504 18.4277C135.513 18.4025 135.517 18.3732 135.517 18.3396C135.517 18.2558 135.487 18.1845 135.429 18.1258C135.37 18.0671 135.299 18.0378 135.215 18.0378H134.699C134.531 18.0378 134.41 18.1384 134.334 18.3396L132.385 22.9056L130.435 18.3396C130.36 18.1384 130.221 18.0378 130.02 18.0378H129.555C129.471 18.0378 129.4 18.0671 129.341 18.1258C129.282 18.1845 129.253 18.2558 129.253 18.3396C129.253 18.3732 129.257 18.4025 129.265 18.4277L131.768 24.264C131.852 24.4737 131.982 24.5785 132.158 24.5785H132.624ZM138.115 16.7045C138.115 16.7967 138.082 16.8764 138.014 16.9435C137.947 17.0105 137.868 17.0441 137.775 17.0441H137.059C136.966 17.0441 136.887 17.0105 136.82 16.9435C136.752 16.8764 136.719 16.7967 136.719 16.7045V15.9875C136.719 15.8953 136.752 15.8156 136.82 15.7485C136.887 15.6814 136.966 15.6479 137.059 15.6479H137.775C137.868 15.6479 137.947 15.6814 138.014 15.7485C138.082 15.8156 138.115 15.8953 138.115 15.9875V16.7045ZM137.989 24.2389C137.989 24.3311 137.956 24.4108 137.889 24.4779C137.822 24.5449 137.742 24.5785 137.65 24.5785H137.184C137.092 24.5785 137.012 24.5449 136.945 24.4779C136.878 24.4108 136.845 24.3311 136.845 24.2389V18.3774C136.845 18.2851 136.878 18.2055 136.945 18.1384C137.012 18.0713 137.092 18.0378 137.184 18.0378H137.65C137.742 18.0378 137.822 18.0713 137.889 18.1384C137.956 18.2055 137.989 18.2851 137.989 18.3774V24.2389ZM143.765 20.4402V20.2767C143.765 19.8658 143.627 19.5514 143.35 19.3333C143.082 19.1069 142.73 18.9937 142.294 18.9937C141.958 18.9937 141.694 19.0524 141.501 19.1698C141.317 19.2788 141.141 19.4465 140.973 19.6729C140.923 19.74 140.868 19.7862 140.81 19.8113C140.751 19.8365 140.671 19.849 140.571 19.849H140.193C140.101 19.849 140.017 19.8155 139.942 19.7484C139.875 19.6813 139.845 19.6017 139.854 19.5094C139.879 19.2579 140 19.0105 140.218 18.7673C140.445 18.5157 140.742 18.3103 141.111 18.151C141.48 17.9916 141.874 17.912 142.294 17.912C143.074 17.912 143.703 18.13 144.181 18.5661C144.667 19.0021 144.91 19.6142 144.91 20.4025V24.2389C144.91 24.3311 144.877 24.4108 144.809 24.4779C144.742 24.5449 144.663 24.5785 144.57 24.5785H144.105C144.013 24.5785 143.933 24.5449 143.866 24.4779C143.799 24.4108 143.765 24.3311 143.765 24.2389V23.7232C143.631 24.025 143.346 24.264 142.91 24.4401C142.474 24.6162 142.038 24.7043 141.602 24.7043C141.174 24.7043 140.793 24.6288 140.457 24.4779C140.122 24.3185 139.862 24.1047 139.677 23.8364C139.501 23.568 139.413 23.2662 139.413 22.9307C139.413 22.3018 139.648 21.8113 140.118 21.4591C140.587 21.0985 141.212 20.8553 141.992 20.7295L143.765 20.4402ZM143.765 21.4465L142.281 21.6855C141.736 21.7693 141.313 21.9077 141.011 22.1006C140.709 22.285 140.558 22.5198 140.558 22.8049C140.558 23.0146 140.654 23.2033 140.847 23.371C141.04 23.5387 141.334 23.6225 141.728 23.6225C142.331 23.6225 142.822 23.4506 143.199 23.1068C143.577 22.763 143.765 22.3144 143.765 21.7609V21.4465Z" fill="white"/>
<path d="M79.2354 44.729C79.2801 44.8408 79.3025 44.9246 79.3025 44.9805C79.3025 45.0811 79.2633 45.1706 79.1851 45.2489C79.118 45.3159 79.0341 45.3495 78.9335 45.3495H76.8204C76.6303 45.3495 76.4793 45.3104 76.3675 45.2321C76.2669 45.1426 76.1998 45.042 76.1663 44.9302L75.6967 43.5382H71.2356L70.766 44.9302C70.7324 45.042 70.6598 45.1426 70.548 45.2321C70.4473 45.3104 70.302 45.3495 70.1119 45.3495H67.9988C67.8981 45.3495 67.8087 45.3159 67.7304 45.2489C67.6633 45.1706 67.6298 45.0811 67.6298 44.9805C67.6298 44.9246 67.6522 44.8408 67.6969 44.729L71.353 34.1632C71.4089 34.0066 71.4983 33.8781 71.6213 33.7774C71.7443 33.6656 71.9064 33.6097 72.1077 33.6097H74.8246C75.0258 33.6097 75.188 33.6656 75.311 33.7774C75.4339 33.8781 75.5234 34.0066 75.5793 34.1632L79.2354 44.729ZM74.8246 40.9387L73.4661 36.9136L72.1077 40.9387H74.8246ZM83.4747 48.0832C83.4747 48.2062 83.43 48.3124 83.3405 48.4018C83.2511 48.4913 83.1448 48.536 83.0219 48.536H80.9087C80.7857 48.536 80.6795 48.4913 80.59 48.4018C80.5006 48.3124 80.4559 48.2062 80.4559 48.0832V37.0813C80.4559 36.9584 80.5006 36.8521 80.59 36.7627C80.6795 36.6732 80.7857 36.6285 80.9087 36.6285H82.938C83.061 36.6285 83.1672 36.6732 83.2567 36.7627C83.3461 36.8521 83.3908 36.9584 83.3908 37.0813V37.4671C83.5697 37.2546 83.7374 37.0813 83.894 36.9472C84.0617 36.813 84.2909 36.7012 84.5816 36.6117C84.8834 36.5111 85.2636 36.4608 85.722 36.4608C86.7842 36.4608 87.6619 36.7851 88.3551 37.4335C89.0594 38.082 89.434 39.038 89.4787 40.3014C89.4899 40.4132 89.4955 40.6368 89.4955 40.9722C89.4955 41.3188 89.4899 41.548 89.4787 41.6598C89.434 42.9233 89.065 43.8848 88.3718 44.5445C87.6786 45.193 86.7954 45.5172 85.722 45.5172C85.1406 45.5172 84.671 45.4166 84.3132 45.2153C83.9554 45.0141 83.6759 44.7793 83.4747 44.5109V48.0832ZM86.4767 40.5194C86.4432 40.0834 86.3034 39.7312 86.0574 39.4628C85.8226 39.1945 85.4593 39.0603 84.9673 39.0603C84.5089 39.0603 84.1567 39.1889 83.9107 39.4461C83.6759 39.7032 83.5306 40.0219 83.4747 40.402C83.4523 40.6256 83.4411 40.8213 83.4411 40.989C83.4411 41.1567 83.4523 41.3524 83.4747 41.576C83.5194 41.945 83.6647 42.2636 83.9107 42.5319C84.1567 42.7891 84.5089 42.9177 84.9673 42.9177C85.4593 42.9177 85.8226 42.7835 86.0574 42.5152C86.3034 42.2468 86.4432 41.8946 86.4767 41.4586C86.4991 41.235 86.5102 41.0784 86.5102 40.989C86.5102 40.8996 86.4991 40.743 86.4767 40.5194ZM94.104 48.0832C94.104 48.2062 94.0593 48.3124 93.9698 48.4018C93.8804 48.4913 93.7742 48.536 93.6512 48.536H91.538C91.415 48.536 91.3088 48.4913 91.2194 48.4018C91.1299 48.3124 91.0852 48.2062 91.0852 48.0832V37.0813C91.0852 36.9584 91.1299 36.8521 91.2194 36.7627C91.3088 36.6732 91.415 36.6285 91.538 36.6285H93.5673C93.6903 36.6285 93.7965 36.6732 93.886 36.7627C93.9754 36.8521 94.0202 36.9584 94.0202 37.0813V37.4671C94.199 37.2546 94.3668 37.0813 94.5233 36.9472C94.691 36.813 94.9202 36.7012 95.2109 36.6117C95.5128 36.5111 95.8929 36.4608 96.3513 36.4608C97.4135 36.4608 98.2912 36.7851 98.9844 37.4335C99.6888 38.082 100.063 39.038 100.108 40.3014C100.119 40.4132 100.125 40.6368 100.125 40.9722C100.125 41.3188 100.119 41.548 100.108 41.6598C100.063 42.9233 99.6944 43.8848 99.0012 44.5445C98.308 45.193 97.4247 45.5172 96.3513 45.5172C95.7699 45.5172 95.3003 45.4166 94.9426 45.2153C94.5848 45.0141 94.3053 44.7793 94.104 44.5109V48.0832ZM97.106 40.5194C97.0725 40.0834 96.9327 39.7312 96.6868 39.4628C96.452 39.1945 96.0886 39.0603 95.5966 39.0603C95.1382 39.0603 94.786 39.1889 94.5401 39.4461C94.3053 39.7032 94.1599 40.0219 94.104 40.402C94.0816 40.6256 94.0705 40.8213 94.0705 40.989C94.0705 41.1567 94.0816 41.3524 94.104 41.576C94.1487 41.945 94.2941 42.2636 94.5401 42.5319C94.786 42.7891 95.1382 42.9177 95.5966 42.9177C96.0886 42.9177 96.452 42.7835 96.6868 42.5152C96.9327 42.2468 97.0725 41.8946 97.106 41.4586C97.1284 41.235 97.1396 41.0784 97.1396 40.989C97.1396 40.8996 97.1284 40.743 97.106 40.5194ZM104.733 44.8967C104.733 45.0197 104.689 45.1259 104.599 45.2153C104.51 45.3048 104.404 45.3495 104.281 45.3495H102.167C102.044 45.3495 101.938 45.3048 101.849 45.2153C101.759 45.1259 101.715 45.0197 101.715 44.8967V33.8948C101.715 33.7718 101.759 33.6656 101.849 33.5762C101.938 33.4867 102.044 33.442 102.167 33.442H104.281C104.404 33.442 104.51 33.4867 104.599 33.5762C104.689 33.6656 104.733 33.7718 104.733 33.8948V44.8967ZM109.293 41.945C109.293 42.4145 109.444 42.75 109.746 42.9512C110.048 43.1525 110.4 43.2531 110.803 43.2531C111.116 43.2531 111.373 43.2196 111.574 43.1525C111.775 43.0854 111.949 42.9904 112.094 42.8674C112.217 42.7667 112.307 42.7052 112.362 42.6829C112.418 42.6493 112.513 42.6326 112.648 42.6326H114.828C114.94 42.6326 115.029 42.6661 115.096 42.7332C115.163 42.8003 115.197 42.8897 115.197 43.0015C115.197 43.2251 115.029 43.5438 114.694 43.9575C114.358 44.36 113.861 44.7234 113.201 45.0476C112.541 45.3607 111.742 45.5172 110.803 45.5172C109.36 45.5172 108.242 45.1203 107.449 44.3265C106.666 43.5214 106.275 42.409 106.275 40.989C106.275 40.1057 106.448 39.3231 106.794 38.6411C107.152 37.959 107.672 37.4279 108.354 37.0478C109.036 36.6565 109.852 36.4608 110.803 36.4608C111.843 36.4608 112.698 36.6844 113.369 37.1317C114.051 37.5677 114.548 38.1379 114.861 38.8423C115.174 39.5355 115.331 40.2623 115.331 41.0225V41.4921C115.331 41.6151 115.286 41.7213 115.197 41.8108C115.107 41.9002 115.001 41.945 114.878 41.945H109.293ZM112.312 40.0834C112.267 39.7032 112.111 39.3846 111.843 39.1274C111.585 38.8591 111.239 38.7249 110.803 38.7249C110.367 38.7249 110.015 38.8591 109.746 39.1274C109.489 39.3846 109.338 39.7032 109.293 40.0834H112.312ZM129.911 36.7459C129.911 36.8465 129.872 36.936 129.793 37.0143C129.726 37.0813 129.648 37.1149 129.558 37.1149H127.361C127.205 37.1149 127.082 37.0981 126.993 37.0646C126.903 37.0198 126.802 36.9472 126.691 36.8465C126.668 36.8242 126.596 36.7515 126.473 36.6285C126.35 36.4944 126.154 36.377 125.886 36.2763C125.628 36.1757 125.327 36.1254 124.98 36.1254C124.499 36.1254 124.102 36.1925 123.789 36.3266C123.487 36.4496 123.336 36.6677 123.336 36.9807C123.336 37.2043 123.431 37.3832 123.622 37.5174C123.812 37.6404 124.102 37.7522 124.494 37.8528C124.896 37.9534 125.589 38.1044 126.573 38.3056C127.837 38.5628 128.765 38.9653 129.357 39.5131C129.95 40.061 130.246 40.8437 130.246 41.8611C130.246 42.599 130.022 43.2475 129.575 43.8065C129.139 44.3544 128.524 44.7793 127.73 45.0811C126.948 45.3718 126.059 45.5172 125.064 45.5172C124.102 45.5172 123.23 45.3495 122.448 45.0141C121.665 44.6786 121.05 44.2426 120.603 43.7059C120.155 43.1692 119.921 42.6158 119.898 42.0456C119.898 41.945 119.932 41.8611 119.999 41.794C120.077 41.7158 120.161 41.6766 120.251 41.6766H122.448C122.694 41.6766 122.906 41.7549 123.085 41.9114C123.118 41.945 123.208 42.0456 123.353 42.2133C123.499 42.3698 123.717 42.5152 124.007 42.6493C124.309 42.7723 124.661 42.8338 125.064 42.8338C126.45 42.8338 127.143 42.5375 127.143 41.945C127.143 41.7549 127.043 41.5984 126.842 41.4754C126.651 41.3412 126.378 41.2294 126.02 41.1399C125.662 41.0505 125.092 40.9219 124.309 40.7542L123.554 40.6033C122.414 40.3573 121.575 39.9492 121.039 39.379C120.502 38.7976 120.234 38.0261 120.234 37.0646C120.234 36.4161 120.429 35.8179 120.821 35.2701C121.212 34.711 121.766 34.2694 122.481 33.9451C123.208 33.6097 124.041 33.442 124.98 33.442C125.886 33.442 126.713 33.6153 127.462 33.9619C128.211 34.2973 128.798 34.7222 129.223 35.2365C129.659 35.7508 129.888 36.254 129.911 36.7459ZM135.727 41.945C135.727 42.4816 135.968 42.75 136.449 42.75H137.79C137.913 42.75 138.019 42.7947 138.109 42.8841C138.198 42.9736 138.243 43.0798 138.243 43.2028V44.8967C138.243 45.0197 138.198 45.1259 138.109 45.2153C138.019 45.3048 137.913 45.3495 137.79 45.3495H136.197C135.135 45.3495 134.285 45.0532 133.648 44.4606C133.022 43.868 132.709 43.063 132.709 42.0456V39.228H131.468C131.345 39.228 131.238 39.1833 131.149 39.0939C131.059 39.0044 131.015 38.8982 131.015 38.7752V37.0813C131.015 36.9584 131.059 36.8521 131.149 36.7627C131.238 36.6732 131.345 36.6285 131.468 36.6285H132.709V33.8948C132.709 33.7718 132.753 33.6656 132.843 33.5762C132.932 33.4867 133.038 33.442 133.161 33.442H135.275C135.398 33.442 135.504 33.4867 135.593 33.5762C135.683 33.6656 135.727 33.7718 135.727 33.8948V36.6285H137.622C137.745 36.6285 137.852 36.6732 137.941 36.7627C138.031 36.8521 138.075 36.9584 138.075 37.0813V38.7752C138.075 38.8982 138.031 39.0044 137.941 39.0939C137.852 39.1833 137.745 39.228 137.622 39.228H135.727V41.945ZM148.417 41.6431C148.383 42.3586 148.177 43.0127 147.796 43.6053C147.416 44.1867 146.885 44.6507 146.203 44.9973C145.521 45.3439 144.738 45.5172 143.855 45.5172C142.972 45.5172 142.189 45.3439 141.507 44.9973C140.825 44.6507 140.294 44.1867 139.914 43.6053C139.534 43.0127 139.327 42.3586 139.293 41.6431L139.277 40.989L139.293 40.3517C139.316 39.6361 139.517 38.9821 139.897 38.3895C140.277 37.7969 140.808 37.3273 141.49 36.9807C142.184 36.6341 142.972 36.4608 143.855 36.4608C144.738 36.4608 145.521 36.6341 146.203 36.9807C146.896 37.3273 147.433 37.7969 147.813 38.3895C148.193 38.9821 148.395 39.6361 148.417 40.3517C148.428 40.4635 148.434 40.6759 148.434 40.989C148.434 41.3132 148.428 41.5313 148.417 41.6431ZM143.855 42.9177C144.302 42.9177 144.66 42.8003 144.929 42.5655C145.208 42.3195 145.365 41.9841 145.398 41.5592C145.42 41.3356 145.432 41.1455 145.432 40.989C145.432 40.8325 145.42 40.6424 145.398 40.4188C145.365 39.9939 145.208 39.6641 144.929 39.4293C144.66 39.1833 144.302 39.0603 143.855 39.0603C143.408 39.0603 143.045 39.1833 142.765 39.4293C142.497 39.6641 142.346 39.9939 142.312 40.4188C142.301 40.5306 142.295 40.7207 142.295 40.989C142.295 41.2573 142.301 41.4474 142.312 41.5592C142.346 41.9841 142.497 42.3195 142.765 42.5655C143.045 42.8003 143.408 42.9177 143.855 42.9177ZM156.003 36.6285C156.126 36.6285 156.232 36.6732 156.322 36.7627C156.411 36.8521 156.456 36.9584 156.456 37.0813V38.7752C156.456 38.8982 156.411 39.0044 156.322 39.0939C156.232 39.1833 156.126 39.228 156.003 39.228H154.477C153.974 39.228 153.588 39.3622 153.32 39.6305C153.062 39.8877 152.934 40.2678 152.934 40.771V44.8967C152.934 45.0197 152.889 45.1259 152.8 45.2153C152.71 45.3048 152.604 45.3495 152.481 45.3495H150.368C150.245 45.3495 150.139 45.3048 150.049 45.2153C149.96 45.1259 149.915 45.0197 149.915 44.8967V37.0813C149.915 36.9584 149.96 36.8521 150.049 36.7627C150.139 36.6732 150.245 36.6285 150.368 36.6285H152.313C152.436 36.6285 152.543 36.6732 152.632 36.7627C152.721 36.8521 152.766 36.9584 152.766 37.0813V37.4671C153.348 36.908 154.091 36.6285 154.997 36.6285H156.003ZM160.229 41.945C160.229 42.4145 160.38 42.75 160.682 42.9512C160.984 43.1525 161.336 43.2531 161.738 43.2531C162.051 43.2531 162.309 43.2196 162.51 43.1525C162.711 43.0854 162.884 42.9904 163.03 42.8674C163.153 42.7667 163.242 42.7052 163.298 42.6829C163.354 42.6493 163.449 42.6326 163.583 42.6326H165.763C165.875 42.6326 165.965 42.6661 166.032 42.7332C166.099 42.8003 166.132 42.8897 166.132 43.0015C166.132 43.2251 165.965 43.5438 165.629 43.9575C165.294 44.36 164.796 44.7234 164.137 45.0476C163.477 45.3607 162.678 45.5172 161.738 45.5172C160.296 45.5172 159.178 45.1203 158.384 44.3265C157.602 43.5214 157.21 42.409 157.21 40.989C157.21 40.1057 157.384 39.3231 157.73 38.6411C158.088 37.959 158.608 37.4279 159.29 37.0478C159.972 36.6565 160.788 36.4608 161.738 36.4608C162.778 36.4608 163.634 36.6844 164.304 37.1317C164.986 37.5677 165.484 38.1379 165.797 38.8423C166.11 39.5355 166.267 40.2623 166.267 41.0225V41.4921C166.267 41.6151 166.222 41.7213 166.132 41.8108C166.043 41.9002 165.937 41.945 165.814 41.945H160.229ZM163.248 40.0834C163.203 39.7032 163.047 39.3846 162.778 39.1274C162.521 38.8591 162.174 38.7249 161.738 38.7249C161.302 38.7249 160.95 38.8591 160.682 39.1274C160.425 39.3846 160.274 39.7032 160.229 40.0834H163.248Z" fill="white"/>
<path d="M36.7349 42.414C36.1496 42.0292 35.6309 41.5538 35.1987 41.0059C34.7233 40.4404 34.2828 39.8471 33.8797 39.2293C32.9336 37.8595 32.1917 36.3624 31.6766 34.784C31.0579 32.9505 30.7583 31.1931 30.7583 29.4743C30.7583 27.5546 31.1785 25.8788 32.0004 24.4707C32.6096 23.3701 33.5053 22.4504 34.5949 21.8067C35.6508 21.1585 36.864 20.8038 38.1068 20.7799C38.5418 20.7799 39.0103 20.8422 39.5075 20.9614C39.8646 21.0613 40.2996 21.219 40.8312 21.4152C41.5074 21.6728 41.8794 21.8305 42.0055 21.869C42.4016 22.012 42.7346 22.0743 42.9962 22.0743C43.1947 22.0743 43.4748 22.012 43.793 21.9167C43.972 21.8543 44.3097 21.7443 44.793 21.5399C45.2716 21.3675 45.6482 21.2199 45.9478 21.1099C46.407 20.9761 46.8513 20.8523 47.2474 20.79C47.717 20.7168 48.1935 20.6974 48.6676 20.7322C49.4891 20.7853 50.2982 20.9573 51.0691 21.2429C52.3297 21.7443 53.3492 22.5272 54.108 23.6401C53.7872 23.8355 53.4862 24.0608 53.2091 24.313C52.6058 24.8416 52.0919 25.4621 51.6869 26.1511C51.1575 27.0926 50.8831 28.1533 50.8901 29.2304C50.9096 30.5533 51.2528 31.7184 51.929 32.7259C52.4262 33.4726 53.0723 34.1112 53.8278 34.6025C54.2146 34.8601 54.5476 35.037 54.8667 35.1562C54.7174 35.6146 54.5578 36.0583 54.3695 36.4983C53.9425 37.4851 53.4249 38.4311 52.8232 39.3246C52.2871 40.0938 51.8669 40.6667 51.5478 41.0481C51.0506 41.6302 50.5719 42.0748 50.0886 42.3847C49.5571 42.7331 48.9291 42.9192 48.291 42.9192C47.8587 42.9356 47.4266 42.8839 47.0109 42.7661C46.6537 42.6469 46.3003 42.5176 45.9525 42.37C45.5908 42.2059 45.2179 42.0671 44.8366 41.9547C43.8938 41.7154 42.9054 41.7139 41.9619 41.9502C41.5751 42.0602 41.2031 42.1885 40.8358 42.3462C40.3191 42.5607 39.9759 42.7046 39.7774 42.7661C39.3813 42.8807 38.9704 42.9522 38.5548 42.976C37.912 42.976 37.3128 42.7945 36.7191 42.4269L36.7349 42.414ZM45.2132 19.8485C44.3727 20.2638 43.5704 20.4407 42.7736 20.383C42.6483 19.59 42.7736 18.7787 43.1066 17.8903C43.3901 17.1378 43.809 16.4421 44.3431 15.8368C44.9071 15.1997 45.5914 14.6775 46.3578 14.2995C47.1741 13.8842 47.9524 13.6596 48.6963 13.6266C48.7928 14.4572 48.6963 15.274 48.3874 16.1568C48.1016 16.9372 47.6834 17.6638 47.1509 18.3056C46.6074 18.9436 45.9404 19.4679 45.189 19.8476L45.2132 19.8485Z" fill="white"/>
</svg>
