<svg width="326" height="324" viewBox="0 0 326 324" fill="none" xmlns="http://www.w3.org/2000/svg">
<path d="M162.532 0.00169761C119.687 -0.194439 78.5121 16.6123 48.0422 46.7349C17.5722 76.8575 0.295101 117.836 0 160.681C0 203.788 17.1236 245.128 47.6044 275.609C78.0851 306.09 119.426 323.214 162.532 323.214C205.639 323.214 246.979 306.09 277.46 275.609C307.941 245.128 325.065 203.788 325.065 160.681C324.77 117.836 307.492 76.8575 277.022 46.7349C246.552 16.6123 205.378 -0.194439 162.532 0.00169761ZM162.532 245.545C145.788 245.355 129.473 240.215 115.643 230.774C101.813 221.332 91.0844 208.011 84.8084 192.485C78.5324 176.96 76.9889 159.925 80.3728 143.525C83.7566 127.125 91.9169 112.092 103.825 100.319C115.734 88.5456 130.858 80.5582 147.296 77.3619C163.734 74.1656 180.75 75.9033 196.203 82.3563C211.655 88.8093 224.854 99.6891 234.136 113.626C243.419 127.564 248.372 143.936 248.371 160.681C248.307 171.89 246.036 182.976 241.688 193.307C237.339 203.638 230.999 213.011 223.028 220.891C215.057 228.772 205.612 235.005 195.232 239.235C184.852 243.465 173.741 245.609 162.532 245.545Z" fill="url(#paint0_linear_4298_2139)"/>
<defs>
<linearGradient id="paint0_linear_4298_2139" x1="-8.62247" y1="11.486" x2="312.059" y2="243.449" gradientUnits="userSpaceOnUse">
<stop stop-color="#00A5F0"/>
<stop offset="1" stop-color="#00D7D7" stop-opacity="0"/>
</linearGradient>
</defs>
</svg>
