<svg width="268" height="233" viewBox="0 0 268 233" fill="none" xmlns="http://www.w3.org/2000/svg">
<path d="M134.165 0.00118503C98.9239 -0.147078 65.0618 13.6224 40.0026 38.2907C14.9433 62.9591 0.731941 96.5133 0.484107 131.597C0.459732 148.899 3.90582 166.031 10.6203 181.99C17.3347 197.949 27.1823 212.412 39.5856 224.532C44.84 229.671 51.9117 232.551 59.2781 232.551C66.6445 232.551 73.7163 229.671 78.9706 224.532C81.5562 221.999 83.6095 218.979 85.0111 215.648C86.4127 212.317 87.1346 208.742 87.1346 205.131C87.1346 201.519 86.4127 197.944 85.0111 194.613C83.6095 191.283 81.5562 188.263 78.9706 185.73C71.74 178.65 65.9972 170.209 62.0772 160.898C58.1572 151.586 56.1383 141.591 56.1383 131.495C56.1383 121.399 58.1572 111.403 62.0772 102.092C65.9972 92.7806 71.74 84.3392 78.9706 77.26C93.6673 62.866 113.458 54.7992 134.074 54.7992C154.691 54.7992 174.481 62.866 189.178 77.26C196.409 84.3392 202.151 92.7806 206.071 102.092C209.991 111.403 212.01 121.399 212.01 131.495C212.01 141.591 209.991 151.586 206.071 160.898C202.151 170.209 196.409 178.65 189.178 185.73C186.592 188.263 184.539 191.283 183.137 194.613C181.736 197.944 181.014 201.519 181.014 205.131C181.014 208.742 181.736 212.317 183.137 215.648C184.539 218.979 186.592 221.999 189.178 224.532C194.432 229.671 201.504 232.551 208.87 232.551C216.237 232.551 223.309 229.671 228.563 224.532C240.999 212.427 250.88 197.971 257.626 182.011C264.372 166.052 267.846 148.912 267.846 131.597C267.598 96.5133 253.386 62.9591 228.327 38.2907C203.268 13.6224 169.406 -0.147078 134.165 0.00118503Z" fill="url(#paint0_linear_4298_1896)"/>
<defs>
<linearGradient id="paint0_linear_4298_1896" x1="161.239" y1="99.1124" x2="134.133" y2="213.021" gradientUnits="userSpaceOnUse">
<stop stop-color="white"/>
<stop offset="1" stop-color="white" stop-opacity="0"/>
</linearGradient>
</defs>
</svg>
