<svg width="202" height="63" viewBox="0 0 202 63" fill="none" xmlns="http://www.w3.org/2000/svg">
<rect width="202" height="62.5915" rx="11.3803" fill="#33303E"/>
<path d="M75.3571 20.9375C75.3487 21.6335 75.1936 22.2414 74.8917 22.7613C74.5898 23.2728 74.1747 23.667 73.6464 23.9437C73.1181 24.212 72.5102 24.3462 71.8226 24.3462H68.8667C68.7744 24.3462 68.6948 24.3126 68.6277 24.2456C68.5606 24.1785 68.527 24.0988 68.527 24.0066V15.881C68.527 15.7887 68.5606 15.7091 68.6277 15.642C68.6948 15.5749 68.7744 15.5414 68.8667 15.5414H71.7471C72.4431 15.5414 73.0594 15.6797 73.5961 15.9565C74.1412 16.2248 74.5688 16.6189 74.8791 17.1388C75.1894 17.6503 75.3487 18.2541 75.3571 18.9501C75.3655 19.2017 75.3697 19.5329 75.3697 19.9438C75.3697 20.3547 75.3655 20.6859 75.3571 20.9375ZM69.722 16.6734V23.2141H71.7597C72.5982 23.2141 73.202 22.9961 73.571 22.5601C73.9483 22.124 74.1454 21.5622 74.1621 20.8746C74.1705 20.623 74.1747 20.3127 74.1747 19.9438C74.1747 19.5748 74.1705 19.2646 74.1621 19.013C74.1454 18.3338 73.9399 17.7761 73.5458 17.3401C73.1517 16.8956 72.5353 16.6734 71.6968 16.6734H69.722ZM82.7088 20.4846C82.7256 20.6691 82.734 20.8704 82.734 21.0884C82.734 21.2897 82.7256 21.4825 82.7088 21.667C82.6333 22.5223 82.3356 23.2058 81.8157 23.7173C81.3042 24.2204 80.6082 24.472 79.7277 24.472C78.8473 24.472 78.1471 24.2204 77.6272 23.7173C77.1156 23.2058 76.8222 22.5223 76.7467 21.667C76.7383 21.5748 76.7341 21.3819 76.7341 21.0884C76.7341 20.7781 76.7383 20.5769 76.7467 20.4846C76.8138 19.6293 77.1073 18.9501 77.6272 18.447C78.1471 17.9354 78.8473 17.6797 79.7277 17.6797C80.6082 17.6797 81.3084 17.9354 81.8283 18.447C82.3482 18.9501 82.6417 19.6293 82.7088 20.4846ZM81.5642 20.5475C81.5139 20.0109 81.3336 19.579 81.0233 19.252C80.7214 18.9249 80.2896 18.7614 79.7277 18.7614C79.1659 18.7614 78.7299 18.9249 78.4196 19.252C78.1177 19.579 77.9416 20.0109 77.8913 20.5475C77.8829 20.6482 77.8787 20.8285 77.8787 21.0884C77.8787 21.34 77.8829 21.5119 77.8913 21.6041C77.9416 22.1408 78.1177 22.5726 78.4196 22.8997C78.7299 23.2267 79.1659 23.3902 79.7277 23.3902C80.2896 23.3902 80.7214 23.2267 81.0233 22.8997C81.3336 22.5726 81.5139 22.1408 81.5642 21.6041C81.5809 21.4196 81.5893 21.2477 81.5893 21.0884C81.5893 20.9291 81.5809 20.7488 81.5642 20.5475ZM91.8677 18.1073C91.9432 17.9061 92.0857 17.8055 92.2953 17.8055H92.7104C92.7943 17.8055 92.8656 17.8348 92.9243 17.8935C92.983 17.9522 93.0123 18.0235 93.0123 18.1073L92.9997 18.208L91.0753 23.994C90.9998 24.2288 90.874 24.3462 90.6979 24.3462H90.308C90.2073 24.3462 90.1277 24.3168 90.069 24.2581C90.0103 24.1911 89.96 24.103 89.918 23.994L88.4212 19.818L86.9244 23.994C86.8825 24.103 86.8322 24.1911 86.7735 24.2581C86.7148 24.3168 86.6351 24.3462 86.5345 24.3462H86.1446C85.9685 24.3462 85.8427 24.2288 85.7672 23.994L83.8427 18.208L83.8301 18.1073C83.8301 18.0235 83.8595 17.9522 83.9182 17.8935C83.9769 17.8348 84.0482 17.8055 84.132 17.8055H84.5471C84.7567 17.8055 84.8993 17.9061 84.9748 18.1073L86.3835 22.3085L87.8929 18.1073C87.9684 17.9061 88.0984 17.8055 88.2829 17.8055H88.5596C88.7441 17.8055 88.874 17.9061 88.9495 18.1073L90.4589 22.3085L91.8677 18.1073ZM100.229 24.0066C100.229 24.0988 100.195 24.1785 100.128 24.2456C100.061 24.3126 99.9813 24.3462 99.889 24.3462H99.4236C99.3314 24.3462 99.2517 24.3126 99.1846 24.2456C99.1175 24.1785 99.084 24.0988 99.084 24.0066V20.6859C99.084 20.057 98.9289 19.579 98.6186 19.252C98.3083 18.9249 97.8765 18.7614 97.323 18.7614C96.778 18.7614 96.3461 18.9249 96.0275 19.252C95.7172 19.579 95.5621 20.057 95.5621 20.6859V24.0066C95.5621 24.0988 95.5285 24.1785 95.4614 24.2456C95.3944 24.3126 95.3147 24.3462 95.2225 24.3462H94.7571C94.6648 24.3462 94.5852 24.3126 94.5181 24.2456C94.451 24.1785 94.4174 24.0988 94.4174 24.0066V18.1451C94.4174 18.0528 94.451 17.9732 94.5181 17.9061C94.5852 17.839 94.6648 17.8055 94.7571 17.8055H95.2225C95.3147 17.8055 95.3944 17.839 95.4614 17.9061C95.5285 17.9732 95.5621 18.0528 95.5621 18.1451V18.535C95.7466 18.2918 95.9981 18.0906 96.3168 17.9312C96.6438 17.7635 97.0421 17.6797 97.5117 17.6797C98.04 17.6797 98.5096 17.7929 98.9205 18.0193C99.3314 18.2457 99.65 18.5727 99.8764 19.0004C100.111 19.4197 100.229 19.9186 100.229 20.4972V24.0066ZM103.202 24.0066C103.202 24.0988 103.169 24.1785 103.102 24.2456C103.035 24.3126 102.955 24.3462 102.863 24.3462H102.397C102.305 24.3462 102.226 24.3126 102.158 24.2456C102.091 24.1785 102.058 24.0988 102.058 24.0066V15.7552C102.058 15.663 102.091 15.5833 102.158 15.5162C102.226 15.4491 102.305 15.4156 102.397 15.4156H102.863C102.955 15.4156 103.035 15.4491 103.102 15.5162C103.169 15.5833 103.202 15.663 103.202 15.7552V24.0066ZM110.752 20.4846C110.769 20.6691 110.777 20.8704 110.777 21.0884C110.777 21.2897 110.769 21.4825 110.752 21.667C110.677 22.5223 110.379 23.2058 109.859 23.7173C109.347 24.2204 108.651 24.472 107.771 24.472C106.891 24.472 106.19 24.2204 105.67 23.7173C105.159 23.2058 104.865 22.5223 104.79 21.667C104.782 21.5748 104.777 21.3819 104.777 21.0884C104.777 20.7781 104.782 20.5769 104.79 20.4846C104.857 19.6293 105.151 18.9501 105.67 18.447C106.19 17.9354 106.891 17.6797 107.771 17.6797C108.651 17.6797 109.352 17.9354 109.872 18.447C110.391 18.9501 110.685 19.6293 110.752 20.4846ZM109.607 20.5475C109.557 20.0109 109.377 19.579 109.067 19.252C108.765 18.9249 108.333 18.7614 107.771 18.7614C107.209 18.7614 106.773 18.9249 106.463 19.252C106.161 19.579 105.985 20.0109 105.935 20.5475C105.926 20.6482 105.922 20.8285 105.922 21.0884C105.922 21.34 105.926 21.5119 105.935 21.6041C105.985 22.1408 106.161 22.5726 106.463 22.8997C106.773 23.2267 107.209 23.3902 107.771 23.3902C108.333 23.3902 108.765 23.2267 109.067 22.8997C109.377 22.5726 109.557 22.1408 109.607 21.6041C109.624 21.4196 109.633 21.2477 109.633 21.0884C109.633 20.9291 109.624 20.7488 109.607 20.5475ZM116.238 20.2079V20.0444C116.238 19.6335 116.1 19.3191 115.823 19.101C115.555 18.8746 115.202 18.7614 114.766 18.7614C114.431 18.7614 114.167 18.8201 113.974 18.9375C113.789 19.0465 113.613 19.2142 113.446 19.4406C113.395 19.5077 113.341 19.5539 113.282 19.579C113.223 19.6042 113.144 19.6167 113.043 19.6167H112.666C112.574 19.6167 112.49 19.5832 112.414 19.5161C112.347 19.449 112.318 19.3694 112.326 19.2771C112.351 19.0256 112.473 18.7782 112.691 18.535C112.917 18.2834 113.215 18.078 113.584 17.9187C113.953 17.7593 114.347 17.6797 114.766 17.6797C115.546 17.6797 116.175 17.8977 116.653 18.3338C117.14 18.7698 117.383 19.3819 117.383 20.1702V24.0066C117.383 24.0988 117.349 24.1785 117.282 24.2456C117.215 24.3126 117.135 24.3462 117.043 24.3462H116.578C116.485 24.3462 116.406 24.3126 116.339 24.2456C116.272 24.1785 116.238 24.0988 116.238 24.0066V23.4909C116.104 23.7927 115.819 24.0317 115.383 24.2078C114.947 24.3839 114.511 24.472 114.075 24.472C113.647 24.472 113.265 24.3965 112.93 24.2456C112.595 24.0862 112.335 23.8724 112.15 23.6041C111.974 23.3357 111.886 23.0339 111.886 22.6984C111.886 22.0695 112.121 21.579 112.59 21.2268C113.06 20.8662 113.685 20.623 114.465 20.4972L116.238 20.2079ZM116.238 21.2142L114.754 21.4532C114.209 21.537 113.785 21.6754 113.483 21.8683C113.182 22.0527 113.031 22.2875 113.031 22.5726C113.031 22.7823 113.127 22.971 113.32 23.1387C113.513 23.3064 113.806 23.3902 114.2 23.3902C114.804 23.3902 115.295 23.2183 115.672 22.8745C116.049 22.5307 116.238 22.0821 116.238 21.5286V21.2142ZM123.708 15.7552C123.708 15.663 123.742 15.5833 123.809 15.5162C123.876 15.4491 123.956 15.4156 124.048 15.4156H124.513C124.606 15.4156 124.685 15.4491 124.752 15.5162C124.819 15.5833 124.853 15.663 124.853 15.7552V24.0066C124.853 24.0988 124.819 24.1785 124.752 24.2456C124.685 24.3126 124.606 24.3462 124.513 24.3462H124.048C123.956 24.3462 123.876 24.3126 123.809 24.2456C123.742 24.1785 123.708 24.0988 123.708 24.0066V23.6166C123.281 24.1869 122.631 24.472 121.759 24.472C121.239 24.472 120.765 24.3504 120.337 24.1072C119.918 23.864 119.578 23.516 119.318 23.0632C119.067 22.6104 118.929 22.0821 118.903 21.4783L118.891 21.0633L118.903 20.6607C118.929 20.057 119.067 19.5329 119.318 19.0885C119.578 18.6356 119.918 18.2876 120.337 18.0445C120.757 17.8013 121.23 17.6797 121.759 17.6797C122.228 17.6797 122.622 17.7635 122.941 17.9312C123.268 18.0906 123.524 18.2918 123.708 18.535V15.7552ZM123.708 20.623C123.683 20.036 123.507 19.579 123.18 19.252C122.853 18.9249 122.421 18.7614 121.884 18.7614C121.339 18.7614 120.903 18.9375 120.576 19.2897C120.258 19.6419 120.082 20.1199 120.048 20.7236L120.035 21.0758L120.048 21.428C120.082 22.0318 120.258 22.5098 120.576 22.862C120.903 23.2141 121.339 23.3902 121.884 23.3902C122.404 23.3902 122.832 23.2309 123.167 22.9123C123.503 22.5852 123.683 22.1534 123.708 21.6167C123.717 21.5328 123.721 21.3651 123.721 21.1136C123.721 20.8704 123.717 20.7069 123.708 20.623ZM132.624 24.3462C132.791 24.3462 132.917 24.2414 133.001 24.0317L135.504 18.1954C135.513 18.1702 135.517 18.1409 135.517 18.1073C135.517 18.0235 135.487 17.9522 135.429 17.8935C135.37 17.8348 135.299 17.8055 135.215 17.8055H134.699C134.531 17.8055 134.41 17.9061 134.334 18.1073L132.385 22.6733L130.435 18.1073C130.36 17.9061 130.221 17.8055 130.02 17.8055H129.555C129.471 17.8055 129.4 17.8348 129.341 17.8935C129.282 17.9522 129.253 18.0235 129.253 18.1073C129.253 18.1409 129.257 18.1702 129.265 18.1954L131.768 24.0317C131.852 24.2414 131.982 24.3462 132.158 24.3462H132.624ZM138.115 16.4722C138.115 16.5644 138.082 16.6441 138.014 16.7112C137.947 16.7782 137.868 16.8118 137.775 16.8118H137.059C136.966 16.8118 136.887 16.7782 136.82 16.7112C136.752 16.6441 136.719 16.5644 136.719 16.4722V15.7552C136.719 15.663 136.752 15.5833 136.82 15.5162C136.887 15.4491 136.966 15.4156 137.059 15.4156H137.775C137.868 15.4156 137.947 15.4491 138.014 15.5162C138.082 15.5833 138.115 15.663 138.115 15.7552V16.4722ZM137.989 24.0066C137.989 24.0988 137.956 24.1785 137.889 24.2456C137.822 24.3126 137.742 24.3462 137.65 24.3462H137.184C137.092 24.3462 137.012 24.3126 136.945 24.2456C136.878 24.1785 136.845 24.0988 136.845 24.0066V18.1451C136.845 18.0528 136.878 17.9732 136.945 17.9061C137.012 17.839 137.092 17.8055 137.184 17.8055H137.65C137.742 17.8055 137.822 17.839 137.889 17.9061C137.956 17.9732 137.989 18.0528 137.989 18.1451V24.0066ZM143.765 20.2079V20.0444C143.765 19.6335 143.627 19.3191 143.35 19.101C143.082 18.8746 142.73 18.7614 142.294 18.7614C141.958 18.7614 141.694 18.8201 141.501 18.9375C141.317 19.0465 141.141 19.2142 140.973 19.4406C140.923 19.5077 140.868 19.5539 140.81 19.579C140.751 19.6042 140.671 19.6167 140.571 19.6167H140.193C140.101 19.6167 140.017 19.5832 139.942 19.5161C139.875 19.449 139.845 19.3694 139.854 19.2771C139.879 19.0256 140 18.7782 140.218 18.535C140.445 18.2834 140.742 18.078 141.111 17.9187C141.48 17.7593 141.874 17.6797 142.294 17.6797C143.074 17.6797 143.703 17.8977 144.181 18.3338C144.667 18.7698 144.91 19.3819 144.91 20.1702V24.0066C144.91 24.0988 144.877 24.1785 144.809 24.2456C144.742 24.3126 144.663 24.3462 144.57 24.3462H144.105C144.013 24.3462 143.933 24.3126 143.866 24.2456C143.799 24.1785 143.765 24.0988 143.765 24.0066V23.4909C143.631 23.7927 143.346 24.0317 142.91 24.2078C142.474 24.3839 142.038 24.472 141.602 24.472C141.174 24.472 140.793 24.3965 140.457 24.2456C140.122 24.0862 139.862 23.8724 139.677 23.6041C139.501 23.3357 139.413 23.0339 139.413 22.6984C139.413 22.0695 139.648 21.579 140.118 21.2268C140.587 20.8662 141.212 20.623 141.992 20.4972L143.765 20.2079ZM143.765 21.2142L142.281 21.4532C141.736 21.537 141.313 21.6754 141.011 21.8683C140.709 22.0527 140.558 22.2875 140.558 22.5726C140.558 22.7823 140.654 22.971 140.847 23.1387C141.04 23.3064 141.334 23.3902 141.728 23.3902C142.331 23.3902 142.822 23.2183 143.199 22.8745C143.577 22.5307 143.765 22.0821 143.765 21.5286V21.2142Z" fill="white"/>
<path d="M71.3194 37.8388C71.2859 38.1071 71.2691 38.5376 71.2691 39.1302C71.2691 39.8234 71.2859 40.3321 71.3194 40.6563C71.3642 41.2265 71.5542 41.6961 71.8897 42.0651C72.2251 42.4229 72.7394 42.6018 73.4326 42.6018C74.0699 42.6018 74.5786 42.4564 74.9588 42.1657C75.3501 41.8638 75.5457 41.3942 75.5457 40.7569H74.137C74.014 40.7569 73.9078 40.7122 73.8183 40.6228C73.7289 40.5333 73.6842 40.4271 73.6842 40.3041V38.5264C73.6842 38.4034 73.7289 38.2972 73.8183 38.2077C73.9078 38.1183 74.014 38.0736 74.137 38.0736H78.1956C78.3186 38.0736 78.4248 38.1183 78.5142 38.2077C78.6037 38.2972 78.6484 38.4034 78.6484 38.5264V40.6731C78.6484 41.6011 78.4192 42.4173 77.9608 43.1217C77.5024 43.8149 76.8763 44.3516 76.0824 44.7317C75.2998 45.1007 74.4165 45.2851 73.4326 45.2851C72.3928 45.2851 71.4871 45.0839 70.7157 44.6814C69.9442 44.2677 69.346 43.7198 68.9212 43.0378C68.4963 42.3446 68.2615 41.5787 68.2168 40.7402C68.1944 40.2035 68.1832 39.7619 68.1832 39.4153C68.1832 39.0016 68.1944 38.4481 68.2168 37.7549C68.2503 36.9164 68.4795 36.1561 68.9044 35.4741C69.3293 34.7808 69.9274 34.233 70.6989 33.8305C71.4816 33.4168 72.3928 33.21 73.4326 33.21C74.4277 33.21 75.3054 33.3944 76.0657 33.7634C76.8371 34.1324 77.4353 34.5964 77.8602 35.1554C78.2962 35.7144 78.531 36.2567 78.5645 36.7822C78.5757 36.8828 78.5422 36.9723 78.4639 37.0505C78.3857 37.1176 78.2962 37.1512 78.1956 37.1512H75.965C75.8197 37.1512 75.7023 37.1176 75.6128 37.0505C75.5346 36.9723 75.4284 36.8549 75.2942 36.6983C75.0929 36.4524 74.8525 36.2567 74.573 36.1114C74.3047 35.966 73.9245 35.8933 73.4326 35.8933C72.1692 35.8933 71.4648 36.5418 71.3194 37.8388ZM89.0957 41.411C89.0622 42.1266 88.8554 42.7807 88.4752 43.3732C88.0951 43.9546 87.564 44.4186 86.882 44.7652C86.1999 45.1118 85.4173 45.2851 84.534 45.2851C83.6507 45.2851 82.8681 45.1118 82.1861 44.7652C81.504 44.4186 80.9729 43.9546 80.5928 43.3732C80.2127 42.7807 80.0058 42.1266 79.9723 41.411L79.9555 40.7569L79.9723 40.1196C79.9946 39.4041 80.1959 38.75 80.576 38.1574C80.9562 37.5649 81.4873 37.0953 82.1693 36.7487C82.8625 36.4021 83.6507 36.2288 84.534 36.2288C85.4173 36.2288 86.1999 36.4021 86.882 36.7487C87.5752 37.0953 88.1118 37.5649 88.492 38.1574C88.8721 38.75 89.0734 39.4041 89.0957 40.1196C89.1069 40.2315 89.1125 40.4439 89.1125 40.7569C89.1125 41.0812 89.1069 41.2992 89.0957 41.411ZM84.534 42.6856C84.9812 42.6856 85.339 42.5682 85.6074 42.3334C85.8869 42.0875 86.0434 41.752 86.0769 41.3272C86.0993 41.1036 86.1105 40.9135 86.1105 40.7569C86.1105 40.6004 86.0993 40.4103 86.0769 40.1867C86.0434 39.7619 85.8869 39.432 85.6074 39.1972C85.339 38.9513 84.9812 38.8283 84.534 38.8283C84.0868 38.8283 83.7234 38.9513 83.4439 39.1972C83.1755 39.432 83.0246 39.7619 82.9911 40.1867C82.9799 40.2985 82.9743 40.4886 82.9743 40.7569C82.9743 41.0253 82.9799 41.2154 82.9911 41.3272C83.0246 41.752 83.1755 42.0875 83.4439 42.3334C83.7234 42.5682 84.0868 42.6856 84.534 42.6856ZM99.4303 41.411C99.3967 42.1266 99.1899 42.7807 98.8097 43.3732C98.4296 43.9546 97.8985 44.4186 97.2165 44.7652C96.5345 45.1118 95.7518 45.2851 94.8685 45.2851C93.9853 45.2851 93.2026 45.1118 92.5206 44.7652C91.8386 44.4186 91.3075 43.9546 90.9273 43.3732C90.5472 42.7807 90.3403 42.1266 90.3068 41.411L90.29 40.7569L90.3068 40.1196C90.3292 39.4041 90.5304 38.75 90.9106 38.1574C91.2907 37.5649 91.8218 37.0953 92.5038 36.7487C93.197 36.4021 93.9853 36.2288 94.8685 36.2288C95.7518 36.2288 96.5345 36.4021 97.2165 36.7487C97.9097 37.0953 98.4464 37.5649 98.8265 38.1574C99.2067 38.75 99.4079 39.4041 99.4303 40.1196C99.4415 40.2315 99.447 40.4439 99.447 40.7569C99.447 41.0812 99.4415 41.2992 99.4303 41.411ZM94.8685 42.6856C95.3158 42.6856 95.6735 42.5682 95.9419 42.3334C96.2214 42.0875 96.3779 41.752 96.4115 41.3272C96.4338 41.1036 96.445 40.9135 96.445 40.7569C96.445 40.6004 96.4338 40.4103 96.4115 40.1867C96.3779 39.7619 96.2214 39.432 95.9419 39.1972C95.6735 38.9513 95.3158 38.8283 94.8685 38.8283C94.4213 38.8283 94.0579 38.9513 93.7784 39.1972C93.5101 39.432 93.3591 39.7619 93.3256 40.1867C93.3144 40.2985 93.3088 40.4886 93.3088 40.7569C93.3088 41.0253 93.3144 41.2154 93.3256 41.3272C93.3591 41.752 93.5101 42.0875 93.7784 42.3334C94.0579 42.5682 94.4213 42.6856 94.8685 42.6856ZM106.763 43.9435C106.584 44.1559 106.411 44.3292 106.243 44.4634C106.086 44.5975 105.857 44.7149 105.555 44.8156C105.265 44.905 104.89 44.9497 104.432 44.9497C103.369 44.9497 102.486 44.6311 101.782 43.9938C101.089 43.3453 100.72 42.4117 100.675 41.193L100.658 40.5892L100.675 40.0022C100.72 38.7724 101.089 37.8388 101.782 37.2015C102.486 36.553 103.369 36.2288 104.432 36.2288C105.561 36.2288 106.366 36.5642 106.847 37.235V36.8493C106.847 36.7263 106.891 36.6201 106.981 36.5306C107.07 36.4412 107.176 36.3965 107.299 36.3965H109.245C109.368 36.3965 109.474 36.4412 109.564 36.5306C109.653 36.6201 109.698 36.7263 109.698 36.8493V45.0168C109.698 46.2355 109.278 47.1691 108.44 47.8176C107.601 48.4772 106.494 48.8071 105.119 48.8071C104.057 48.8071 103.207 48.6394 102.57 48.3039C101.933 47.9797 101.485 47.594 101.228 47.1467C100.982 46.6995 100.848 46.269 100.826 45.8554C100.815 45.7324 100.854 45.6262 100.943 45.5367C101.044 45.4473 101.156 45.4025 101.279 45.4025H103.459C103.694 45.4025 103.867 45.5143 103.979 45.738C104.068 45.9057 104.197 46.0398 104.365 46.1405C104.543 46.2411 104.806 46.2914 105.153 46.2914C105.611 46.2914 105.991 46.1908 106.293 45.9895C106.606 45.7883 106.763 45.4976 106.763 45.1174V43.9435ZM103.677 40.9917C103.71 41.4054 103.85 41.7353 104.096 41.9812C104.353 42.2272 104.717 42.3502 105.186 42.3502C105.611 42.3502 105.952 42.2328 106.209 41.998C106.466 41.7632 106.623 41.4669 106.679 41.1091C106.701 40.9973 106.712 40.8184 106.712 40.5725C106.712 40.3377 106.701 40.1644 106.679 40.0526C106.634 39.706 106.483 39.4153 106.226 39.1805C105.969 38.9457 105.622 38.8283 105.186 38.8283C104.728 38.8283 104.37 38.9513 104.113 39.1972C103.856 39.432 103.71 39.7563 103.677 40.17C103.666 40.2818 103.66 40.4159 103.66 40.5725C103.66 40.7402 103.666 40.8799 103.677 40.9917ZM114.658 44.6646C114.658 44.7876 114.614 44.8938 114.524 44.9833C114.435 45.0727 114.329 45.1174 114.206 45.1174H112.092C111.969 45.1174 111.863 45.0727 111.774 44.9833C111.684 44.8938 111.64 44.7876 111.64 44.6646V33.6628C111.64 33.5398 111.684 33.4336 111.774 33.3441C111.863 33.2547 111.969 33.21 112.092 33.21H114.206C114.329 33.21 114.435 33.2547 114.524 33.3441C114.614 33.4336 114.658 33.5398 114.658 33.6628V44.6646ZM119.218 41.7129C119.218 42.1825 119.369 42.5179 119.671 42.7192C119.973 42.9204 120.325 43.021 120.728 43.021C121.041 43.021 121.298 42.9875 121.499 42.9204C121.701 42.8533 121.874 42.7583 122.019 42.6353C122.142 42.5347 122.232 42.4732 122.288 42.4508C122.343 42.4173 122.439 42.4005 122.573 42.4005H124.753C124.865 42.4005 124.954 42.4341 125.021 42.5011C125.088 42.5682 125.122 42.6577 125.122 42.7695C125.122 42.9931 124.954 43.3117 124.619 43.7254C124.283 44.1279 123.786 44.4913 123.126 44.8156C122.466 45.1286 121.667 45.2851 120.728 45.2851C119.286 45.2851 118.167 44.8882 117.374 44.0944C116.591 43.2894 116.2 42.1769 116.2 40.7569C116.2 39.8737 116.373 39.091 116.72 38.409C117.077 37.727 117.597 37.1959 118.279 36.8157C118.961 36.4244 119.777 36.2288 120.728 36.2288C121.768 36.2288 122.623 36.4524 123.294 36.8996C123.976 37.3356 124.473 37.9059 124.786 38.6102C125.1 39.3035 125.256 40.0302 125.256 40.7905V41.2601C125.256 41.3831 125.211 41.4893 125.122 41.5787C125.032 41.6682 124.926 41.7129 124.803 41.7129H119.218ZM122.237 39.8513C122.193 39.4712 122.036 39.1525 121.768 38.8954C121.511 38.627 121.164 38.4929 120.728 38.4929C120.292 38.4929 119.94 38.627 119.671 38.8954C119.414 39.1525 119.263 39.4712 119.218 39.8513H122.237ZM135.794 33.3777C137.247 33.3777 138.382 33.7131 139.198 34.3839C140.026 35.0436 140.44 36.0163 140.44 37.3021C140.44 38.5879 140.026 39.5662 139.198 40.237C138.382 40.9079 137.247 41.2433 135.794 41.2433H133.647V44.6646C133.647 44.7876 133.603 44.8938 133.513 44.9833C133.424 45.0727 133.317 45.1174 133.194 45.1174H130.997C130.874 45.1174 130.768 45.0727 130.679 44.9833C130.589 44.8938 130.545 44.7876 130.545 44.6646V33.8305C130.545 33.7075 130.589 33.6013 130.679 33.5118C130.768 33.4224 130.874 33.3777 130.997 33.3777H135.794ZM135.71 38.627C136.202 38.627 136.593 38.5208 136.884 38.3084C137.186 38.0848 137.337 37.7493 137.337 37.3021C137.337 36.8549 137.186 36.525 136.884 36.3126C136.593 36.089 136.202 35.9772 135.71 35.9772H133.647V38.627H135.71ZM144.859 44.6646C144.859 44.7876 144.815 44.8938 144.725 44.9833C144.636 45.0727 144.53 45.1174 144.407 45.1174H142.294C142.171 45.1174 142.064 45.0727 141.975 44.9833C141.885 44.8938 141.841 44.7876 141.841 44.6646V33.6628C141.841 33.5398 141.885 33.4336 141.975 33.3441C142.064 33.2547 142.171 33.21 142.294 33.21H144.407C144.53 33.21 144.636 33.2547 144.725 33.3441C144.815 33.4336 144.859 33.5398 144.859 33.6628V44.6646ZM151.506 39.4153C151.506 38.8003 151.182 38.4929 150.533 38.4929C150.165 38.4929 149.863 38.5935 149.628 38.7947C149.538 38.8842 149.449 38.9401 149.36 38.9624C149.27 38.9848 149.158 38.996 149.024 38.996H146.894C146.782 38.996 146.687 38.9624 146.609 38.8954C146.542 38.8283 146.514 38.7388 146.525 38.627C146.559 38.2804 146.749 37.9226 147.095 37.5537C147.453 37.1735 147.934 36.8605 148.538 36.6145C149.141 36.3573 149.807 36.2288 150.533 36.2288C151.864 36.2288 152.859 36.5306 153.519 37.1344C154.19 37.7382 154.525 38.5543 154.525 39.583V44.6646C154.525 44.7876 154.48 44.8938 154.391 44.9833C154.301 45.0727 154.195 45.1174 154.072 45.1174H151.959C151.836 45.1174 151.73 45.0727 151.64 44.9833C151.551 44.8938 151.506 44.7876 151.506 44.6646V44.195C151.216 44.5528 150.869 44.8267 150.466 45.0168C150.064 45.1957 149.555 45.2851 148.94 45.2851C148.001 45.2851 147.263 45.0392 146.726 44.5472C146.201 44.0553 145.938 43.418 145.938 42.6353C145.938 41.8862 146.229 41.2713 146.81 40.7905C147.392 40.3097 148.303 39.9631 149.544 39.7507L151.506 39.4153ZM149.963 41.6458C149.65 41.7017 149.404 41.8023 149.225 41.9477C149.046 42.0819 148.957 42.2496 148.957 42.4508C148.957 42.831 149.225 43.021 149.762 43.021C150.254 43.021 150.668 42.8645 151.003 42.5515C151.338 42.2384 151.506 41.8582 151.506 41.411L149.963 41.6458ZM160.929 47.9014C160.829 48.1698 160.667 48.3039 160.443 48.3039H158.246C158.134 48.3039 158.039 48.2648 157.961 48.1865C157.883 48.1083 157.843 48.0132 157.843 47.9014C157.843 47.8567 157.849 47.8176 157.86 47.784L159.135 44.782L155.747 36.9164C155.736 36.8828 155.73 36.8437 155.73 36.799C155.73 36.6872 155.769 36.5921 155.848 36.5139C155.926 36.4356 156.021 36.3965 156.133 36.3965H158.33C158.553 36.3965 158.716 36.5306 158.816 36.799L160.678 41.1595L162.523 36.799C162.623 36.5306 162.785 36.3965 163.009 36.3965H165.223C165.335 36.3965 165.43 36.4356 165.508 36.5139C165.586 36.5921 165.625 36.6872 165.625 36.799C165.625 36.8437 165.62 36.8828 165.608 36.9164L160.929 47.9014Z" fill="white"/>
<path d="M46.2742 29.1019L35.6301 18.2263L49.1725 26.1485L46.2742 29.1019ZM32.853 17.587C32.2256 17.9212 31.8066 18.5306 31.8066 19.3217V41.0091C31.8066 41.8001 32.2264 42.4095 32.853 42.7437L45.2286 30.1626L32.853 17.587ZM53.3587 28.6741L50.5183 26.9985L47.3499 30.1681L50.5183 33.3378L53.4166 31.6621C54.2847 30.9599 54.2847 29.3771 53.3587 28.6741ZM35.6309 42.1107L49.1733 34.1885L46.275 31.2351L35.6309 42.1107Z" fill="white"/>
</svg>
