<svg width="61" height="61" viewBox="0 0 61 61" fill="none" xmlns="http://www.w3.org/2000/svg">
<rect width="61" height="61" rx="12" fill="#0073CE"/>
<circle opacity="0.6" cx="30.5" cy="30.5" r="14.5" stroke="url(#paint0_linear_4298_1936)" stroke-width="2" stroke-linecap="round" stroke-linejoin="round"/>
<path opacity="0.8" d="M30.3909 21.0201V39.0625" stroke="white" stroke-width="2" stroke-linecap="round" stroke-linejoin="round"/>
<path d="M34.1188 24.3005H28.5272C27.8351 24.3005 27.1714 24.603 26.682 25.1412C26.1926 25.6795 25.9177 26.4096 25.9177 27.1709C25.9177 27.9322 26.1926 28.6623 26.682 29.2006C27.1714 29.7389 27.8351 30.0413 28.5272 30.0413H32.2549C32.947 30.0413 33.6107 30.3437 34.1 30.882C34.5894 31.4203 34.8643 32.1504 34.8643 32.9116C34.8643 33.6729 34.5894 34.403 34.1 34.9413C33.6107 35.4796 32.947 35.782 32.2549 35.782H25.9177" stroke="white" stroke-width="2" stroke-linecap="round" stroke-linejoin="round"/>
<defs>
<linearGradient id="paint0_linear_4298_1936" x1="30.5" y1="15" x2="30.5" y2="46" gradientUnits="userSpaceOnUse">
<stop stop-color="white"/>
<stop offset="1" stop-color="white" stop-opacity="0"/>
</linearGradient>
</defs>
</svg>
