<svg width="109" height="103" viewBox="0 0 109 103" fill="none" xmlns="http://www.w3.org/2000/svg">
<g opacity="0.56" filter="url(#filter0_f_4298_2063)">
<rect x="30.4857" y="30.9429" width="48.4571" height="42.0571" rx="12" fill="url(#paint0_linear_4298_2063)"/>
</g>
<rect x="25" y="9" width="59.4286" height="59.4286" rx="8" fill="url(#paint1_linear_4298_2063)"/>
<path d="M54.7143 26.4791C50.7516 26.4631 46.9439 27.9534 44.1261 30.6233C41.3083 33.2933 39.7103 36.9249 39.6824 40.7221C39.6796 42.5948 40.0671 44.4491 40.8222 46.1763C41.5772 47.9036 42.6845 49.469 44.0792 50.7807C44.67 51.337 45.4652 51.6488 46.2936 51.6488C47.1219 51.6488 47.9171 51.337 48.5079 50.7807C48.7987 50.5066 49.0295 50.1797 49.1872 49.8192C49.3448 49.4587 49.4259 49.0718 49.4259 48.6809C49.4259 48.29 49.3448 47.9031 49.1872 47.5426C49.0295 47.1821 48.7987 46.8552 48.5079 46.5811C47.6949 45.8149 47.0491 44.9012 46.6083 43.8934C46.1675 42.8856 45.9405 41.8038 45.9405 40.7111C45.9405 39.6183 46.1675 38.5365 46.6083 37.5287C47.0491 36.5209 47.6949 35.6073 48.5079 34.8411C50.1605 33.2832 52.3859 32.4101 54.7041 32.4101C57.0224 32.4101 59.2477 33.2832 60.9003 34.8411C61.7134 35.6073 62.3592 36.5209 62.7999 37.5287C63.2407 38.5365 63.4678 39.6183 63.4678 40.7111C63.4678 41.8038 63.2407 42.8856 62.7999 43.8934C62.3592 44.9012 61.7134 45.8149 60.9003 46.5811C60.6096 46.8552 60.3787 47.1821 60.2211 47.5426C60.0635 47.9031 59.9823 48.29 59.9823 48.6809C59.9823 49.0718 60.0635 49.4587 60.2211 49.8192C60.3787 50.1797 60.6096 50.5066 60.9003 50.7807C61.4912 51.337 62.2864 51.6488 63.1147 51.6488C63.943 51.6488 64.7382 51.337 65.329 50.7807C66.7274 49.4706 67.8385 47.906 68.5971 46.1786C69.3556 44.4513 69.7463 42.5961 69.7462 40.7221C69.7184 36.9249 68.1204 33.2933 65.3025 30.6233C62.4847 27.9534 58.677 26.4631 54.7143 26.4791Z" fill="white"/>
<defs>
<filter id="filter0_f_4298_2063" x="0.485718" y="0.942871" width="108.457" height="102.057" filterUnits="userSpaceOnUse" color-interpolation-filters="sRGB">
<feFlood flood-opacity="0" result="BackgroundImageFix"/>
<feBlend mode="normal" in="SourceGraphic" in2="BackgroundImageFix" result="shape"/>
<feGaussianBlur stdDeviation="15" result="effect1_foregroundBlur_4298_2063"/>
</filter>
<linearGradient id="paint0_linear_4298_2063" x1="30.9737" y1="43.7652" x2="80.4922" y2="54.3637" gradientUnits="userSpaceOnUse">
<stop stop-color="#008ECF"/>
<stop offset="1" stop-color="#08AEAE"/>
</linearGradient>
<linearGradient id="paint1_linear_4298_2063" x1="25.5984" y1="27.1185" x2="86.9922" y2="38.5231" gradientUnits="userSpaceOnUse">
<stop stop-color="#00A5F0"/>
<stop offset="1" stop-color="#00D7D7"/>
</linearGradient>
</defs>
</svg>
