<svg width="61" height="61" viewBox="0 0 61 61" fill="none" xmlns="http://www.w3.org/2000/svg">
<rect width="61" height="61" rx="12" fill="#00D7D7"/>
<rect opacity="0.45" width="29.2598" height="21.7359" rx="3" transform="matrix(0.866044 0.499967 -0.866044 0.499967 26.8243 20.5039)" fill="url(#paint0_linear_4298_1914)"/>
<rect width="29.2598" height="21.7359" rx="3" transform="matrix(0.866044 0.499967 -0.866044 0.499967 26.8243 15)" fill="white"/>
<path d="M30.9384 21.4088C30.0613 20.8982 28.8688 20.6094 27.6223 20.6059C26.3758 20.6024 25.177 20.8844 24.2887 21.39C23.8531 21.6408 23.5085 21.9392 23.2751 22.2677C23.0417 22.5962 22.9241 22.9482 22.9294 23.3031C22.9315 23.4535 23.0359 23.5974 23.22 23.7036C23.4041 23.8099 23.6532 23.8702 23.9138 23.8714C24.0421 23.8719 24.1693 23.8577 24.2881 23.8296C24.4069 23.8015 24.5148 23.76 24.6056 23.7076C24.6964 23.6551 24.7682 23.5928 24.8169 23.5243C24.8656 23.4557 24.8903 23.3822 24.8893 23.3082C24.8866 23.1011 24.9553 22.8957 25.0914 22.704C25.2276 22.5123 25.4284 22.3381 25.6823 22.1916C25.9361 22.045 26.2378 21.9291 26.5699 21.8505C26.902 21.7719 27.2578 21.7322 27.6165 21.7338C28.3457 21.7369 29.0431 21.9054 29.5584 22.2028C30.0736 22.5003 30.3654 22.9029 30.3708 23.3239C30.3736 23.531 30.3049 23.7363 30.1687 23.9281C30.0326 24.1198 29.8317 24.294 29.5779 24.4405C29.3241 24.5871 29.0223 24.703 28.6902 24.7816C28.3582 24.8602 28.0024 24.8998 27.6437 24.8983C27.5154 24.8977 27.3881 24.9119 27.2694 24.9401C27.1506 24.9682 27.0427 25.0097 26.9519 25.0621C26.8611 25.1145 26.7892 25.1768 26.7405 25.2454C26.6918 25.3139 26.6672 25.3874 26.6681 25.4615C26.6702 25.6119 26.7746 25.7557 26.9587 25.862C27.1428 25.9683 27.3919 26.0285 27.6525 26.0297C28.2676 26.0335 28.878 25.9662 29.4479 25.8319C30.0177 25.6976 30.5355 25.4989 30.9708 25.2476C31.8467 24.7348 32.3351 24.0427 32.329 23.3231C32.323 22.6035 31.8229 21.9151 30.9384 21.4088Z" fill="#00D7D7"/>
<defs>
<linearGradient id="paint0_linear_4298_1914" x1="33.3636" y1="14.5319" x2="17.7895" y2="34.5054" gradientUnits="userSpaceOnUse">
<stop stop-color="white"/>
<stop offset="1" stop-color="white" stop-opacity="0"/>
</linearGradient>
</defs>
</svg>
