<svg width="21" height="20" viewBox="0 0 21 20" fill="none" xmlns="http://www.w3.org/2000/svg">
<path d="M10.9358 0C8.21733 0 7.87853 0.0131266 6.81465 0.0581323C5.74639 0.110639 5.0238 0.276285 4.38622 0.523815C3.71893 0.775735 3.1146 1.17016 2.61538 1.67958C2.10453 2.17765 1.70989 2.78231 1.45961 3.45043C1.21208 4.08801 1.04643 4.8106 0.993923 5.87886C0.945792 6.94337 0.935791 7.28154 0.935791 10C0.935791 12.7185 0.948918 13.0573 0.993923 14.1211C1.04643 15.1863 1.21208 15.912 1.45961 16.5496C1.71153 17.2169 2.10595 17.8212 2.61538 18.3204C3.11344 18.8313 3.7181 19.2259 4.38622 19.4762C5.0238 19.7206 5.74952 19.8894 6.81465 19.9419C7.87916 19.99 8.21733 20 10.9358 20C13.6543 20 13.993 19.9869 15.0569 19.9419C16.1221 19.8894 16.8478 19.72 17.4854 19.4762C18.1527 19.2243 18.757 18.8298 19.2562 18.3204C19.7677 17.8229 20.1625 17.2181 20.412 16.5496C20.6564 15.912 20.8251 15.1863 20.8777 14.1211C20.9258 13.0566 20.9358 12.7185 20.9358 10C20.9358 7.28154 20.9227 6.94274 20.8777 5.87886C20.8251 4.81373 20.6558 4.08426 20.412 3.45043C20.1601 2.78314 19.7656 2.17881 19.2562 1.67958C18.7587 1.16808 18.1539 0.773334 17.4854 0.523815C16.8478 0.276285 16.1221 0.110639 15.0569 0.0581323C13.9924 0.0100013 13.6543 0 10.9358 0ZM10.9358 1.80023C13.6055 1.80023 13.9243 1.81335 14.9794 1.85836C15.9527 1.90399 16.4827 2.06651 16.8347 2.20403C17.2697 2.36462 17.6635 2.62023 17.9873 2.95224C18.3187 3.27468 18.5734 3.66755 18.7324 4.10176C18.8699 4.45368 19.0324 4.98375 19.0781 5.95699C19.1231 7.01213 19.1362 7.33154 19.1362 10.0006C19.1362 12.6697 19.1231 12.9891 19.0743 14.0443C19.0218 15.0175 18.8593 15.5476 18.7224 15.8995C18.533 16.3689 18.3217 16.6971 17.9729 17.0521C17.648 17.3821 17.2545 17.6364 16.8203 17.7972C16.4727 17.9347 15.9352 18.0973 14.9582 18.1429C13.8974 18.1879 13.5849 18.201 10.9083 18.201C8.2317 18.201 7.91979 18.1879 6.85778 18.1391C5.88453 18.0866 5.34759 17.9241 4.99567 17.7872C4.52061 17.5978 4.19495 17.3865 3.84615 17.0378C3.49424 16.6858 3.27046 16.3508 3.09794 15.8851C2.95792 15.5376 2.7979 15 2.74602 14.023C2.71039 12.9747 2.69351 12.6497 2.69351 9.98562C2.69351 7.32279 2.71039 6.99712 2.74602 5.93574C2.7979 4.95875 2.95792 4.42243 3.09794 4.07363C3.27046 3.59795 3.49486 3.27291 3.84615 2.92099C4.19432 2.57282 4.52061 2.34779 4.99567 2.17152C5.34759 2.03463 5.87141 1.87211 6.8484 1.82335C7.90916 1.78522 8.2217 1.77147 10.8945 1.77147L10.9358 1.80023ZM10.9358 4.86748C10.2615 4.86724 9.59386 4.99986 8.97089 5.25777C8.34792 5.51567 7.78188 5.89382 7.30512 6.37058C6.82836 6.84734 6.45022 7.41338 6.19231 8.03635C5.9344 8.65932 5.80178 9.32701 5.80202 10.0013C5.80178 10.6755 5.9344 11.3432 6.19231 11.9661C6.45022 12.5891 6.82836 13.1552 7.30512 13.6319C7.78188 14.1087 8.34792 14.4868 8.97089 14.7447C9.59386 15.0026 10.2615 15.1353 10.9358 15.135C11.61 15.1353 12.2777 15.0026 12.9007 14.7447C13.5237 14.4868 14.0897 14.1087 14.5665 13.6319C15.0432 13.1552 15.4214 12.5891 15.6793 11.9661C15.9372 11.3432 16.0698 10.6755 16.0696 10.0013C16.0698 9.32701 15.9372 8.65932 15.6793 8.03635C15.4214 7.41338 15.0432 6.84734 14.5665 6.37058C14.0897 5.89382 13.5237 5.51567 12.9007 5.25777C12.2777 4.99986 11.61 4.86724 10.9358 4.86748ZM10.9358 13.3348C9.09306 13.3348 7.60225 11.844 7.60225 10.0013C7.60225 8.15852 9.09306 6.66771 10.9358 6.66771C12.7785 6.66771 14.2693 8.15852 14.2693 10.0013C14.2693 11.844 12.7785 13.3348 10.9358 13.3348ZM17.4766 4.66246C17.4763 4.98104 17.3495 5.28646 17.1241 5.51161C16.8987 5.73676 16.5932 5.86323 16.2746 5.86323C16.1171 5.86323 15.9611 5.83221 15.8155 5.77192C15.67 5.71164 15.5378 5.62329 15.4264 5.5119C15.315 5.40051 15.2266 5.26828 15.1664 5.12275C15.1061 4.97721 15.0751 4.82123 15.0751 4.66371C15.0751 4.50618 15.1061 4.3502 15.1664 4.20467C15.2266 4.05914 15.315 3.9269 15.4264 3.81552C15.5378 3.70413 15.67 3.61577 15.8155 3.55549C15.9611 3.49521 16.1171 3.46418 16.2746 3.46418C16.9353 3.46418 17.4766 4.00175 17.4766 4.66246Z" fill="white"/>
</svg>
