<svg width="326" height="573" viewBox="0 0 326 573" fill="none" xmlns="http://www.w3.org/2000/svg">
<g opacity="0.3" filter="url(#filter0_f_7398_912)">
<path d="M65.3774 505.842C65.3774 498.949 70.9647 493.362 77.857 493.362H247.422C254.314 493.362 259.901 498.949 259.901 505.842C259.901 512.71 254.351 518.288 247.482 518.321L162.639 518.735L77.7962 518.321C70.9277 518.288 65.3774 512.71 65.3774 505.842Z" fill="#15507E"/>
</g>
<g filter="url(#filter1_d_7398_912)">
<path fill-rule="evenodd" clip-rule="evenodd" d="M242.389 40.592H82.7231C64.6506 40.592 50 55.2427 50 73.3151V479.533C50 497.605 64.6506 512.256 82.7231 512.256H242.389C260.462 512.256 275.112 497.605 275.112 479.533V73.3151C275.112 55.2427 260.462 40.592 242.389 40.592ZM56.7703 73.3151C56.7703 58.9818 68.3897 47.3623 82.7231 47.3623H99.1319C101.076 48.0465 102.47 49.8993 102.47 52.0774C102.47 58.977 108.063 64.5702 114.963 64.5702H209.586C216.485 64.5702 222.078 58.977 222.078 52.0774C222.078 49.8993 223.472 48.0465 225.416 47.3623H242.389C256.722 47.3623 268.342 58.9818 268.342 73.3151V479.533C268.342 493.866 256.722 505.485 242.389 505.485H82.7231C68.3897 505.485 56.7703 493.866 56.7703 479.533V73.3151Z" fill="url(#paint0_linear_7398_912)"/>
</g>
<g opacity="0.6">
<circle cx="149" cy="54.0781" r="2" fill="#DFDFE6"/>
<rect x="153.667" y="52.0781" width="25.3333" height="4" rx="2" fill="#DFDFE6"/>
</g>
<mask id="mask0_7398_912" style="mask-type:alpha" maskUnits="userSpaceOnUse" x="56" y="47" width="213" height="459">
<path fill-rule="evenodd" clip-rule="evenodd" d="M56.8056 71.9504C56.7822 72.4023 56.7704 72.8573 56.7704 73.3151V479.533C56.7704 493.866 68.3898 505.485 82.7232 505.485H242.389C256.723 505.485 268.342 493.866 268.342 479.533V73.3151C268.342 73.2591 268.342 73.2031 268.341 73.1472C268.251 58.8912 256.667 47.3623 242.389 47.3623H225.416C223.472 48.0464 222.078 49.8992 222.078 52.0773C222.078 58.977 216.485 64.5701 209.586 64.5701H114.963C108.063 64.5701 102.47 58.977 102.47 52.0773C102.47 49.8992 101.076 48.0464 99.132 47.3623H82.7232C76.2561 47.3623 70.3416 49.7277 65.7974 53.6405C64.0469 55.1478 62.4997 56.8848 61.2027 58.8046C58.6427 62.594 57.0571 67.0958 56.8056 71.9504Z" fill="black"/>
</mask>
<g mask="url(#mask0_7398_912)">
<path d="M56.767 47.3623H268.339V505.485H56.767V47.3623Z" fill="url(#paint1_linear_7398_912)"/>
<rect x="56.5077" y="47.5265" width="211.364" height="457.674" rx="9.0182" fill="url(#paint2_linear_7398_912)"/>
<path fill-rule="evenodd" clip-rule="evenodd" d="M109.995 121.498C110.131 121.783 110.537 121.783 110.673 121.498L113.418 115.743H113.691L116.435 121.498C116.571 121.783 116.978 121.783 117.114 121.498L119.859 115.743H120.131L122.876 121.498C123.012 121.783 123.418 121.783 123.554 121.498L126.299 115.743H126.571L129.316 121.498C129.452 121.783 129.859 121.783 129.995 121.498L132.739 115.743H133.012L135.757 121.498C135.893 121.783 136.299 121.783 136.435 121.498L139.18 115.743H139.453L142.198 121.498C142.334 121.783 142.74 121.783 142.876 121.498L145.621 115.743H145.893L148.638 121.498C148.774 121.783 149.18 121.783 149.316 121.498L152.061 115.743H152.333L155.078 121.498C155.214 121.783 155.62 121.783 155.757 121.498L158.501 115.743H158.774L161.519 121.498C161.655 121.783 162.061 121.783 162.197 121.498L164.942 115.743H165.215L167.96 121.498C168.096 121.783 168.502 121.783 168.638 121.498L171.383 115.743H171.655L174.4 121.498C174.536 121.783 174.942 121.783 175.078 121.498L177.823 115.743H178.096L180.84 121.498C180.977 121.784 181.383 121.784 181.519 121.498L184.264 115.743H184.536L187.281 121.498C187.417 121.784 187.823 121.784 187.96 121.498L190.704 115.743H190.977L193.722 121.498C193.858 121.784 194.264 121.784 194.4 121.498L197.145 115.743H197.417L200.162 121.498C200.298 121.784 200.704 121.784 200.84 121.498L203.585 115.743H203.858L206.602 121.498C206.739 121.784 207.145 121.784 207.281 121.498L210.026 115.743H210.298L213.043 121.498C213.179 121.784 213.585 121.784 213.722 121.498L216.466 115.743H216.738L219.483 121.498C219.619 121.784 220.026 121.784 220.162 121.498L222.907 115.743H223.179L225.924 121.498C226.06 121.784 226.466 121.784 226.602 121.498L229.347 115.743H229.635L232.38 121.498C232.516 121.784 232.922 121.784 233.058 121.498L235.803 115.743H236.091L238.835 121.498C238.971 121.784 239.378 121.784 239.514 121.498L242.259 115.743H242.546L245.291 121.498C245.427 121.784 245.833 121.784 245.969 121.498L248.714 115.743H249.108V417.101H74.5441V115.743H75.0474L77.7923 121.498C77.9284 121.784 78.3346 121.784 78.4706 121.498L81.2155 115.743H81.4877L84.2326 121.498C84.3687 121.784 84.7748 121.784 84.9109 121.498L87.6558 115.743H87.9284L90.6733 121.498C90.8094 121.784 91.2155 121.784 91.3516 121.498L94.0965 115.743H94.369L97.1139 121.498C97.25 121.784 97.6562 121.784 97.7922 121.498L100.537 115.743H100.809L103.554 121.498C103.69 121.784 104.096 121.784 104.233 121.498L106.977 115.743H107.25L109.995 121.498Z" fill="#FBF9BE"/>
<rect opacity="0.6" x="74.5441" y="374.265" width="174.728" height="37.5758" fill="url(#paint3_linear_7398_912)"/>
<path d="M65.15 400.568H258.666V420.107C258.666 421.767 257.32 423.113 255.66 423.113H68.1561C66.4959 423.113 65.15 421.767 65.15 420.107V400.568Z" fill="#0896D7"/>
<path d="M74.544 400.568H65.15L74.544 395.683V400.568Z" fill="#0888C2"/>
<path d="M249.272 400.568H258.666L249.272 395.683V400.568Z" fill="#0888C2"/>
<path d="M123.314 94.3382C123.314 93.5125 123.499 92.775 123.868 92.1257C124.244 91.4684 124.753 90.9594 125.395 90.5987C126.044 90.2299 126.769 90.0455 127.571 90.0455C128.509 90.0455 129.331 90.286 130.036 90.767C130.741 91.248 131.234 91.9133 131.515 92.763H129.579C129.387 92.3622 129.114 92.0616 128.761 91.8612C128.417 91.6608 128.016 91.5606 127.559 91.5606C127.07 91.5606 126.633 91.6768 126.248 91.9093C125.872 92.1337 125.575 92.4544 125.359 92.8712C125.15 93.2881 125.046 93.7771 125.046 94.3382C125.046 94.8913 125.15 95.3803 125.359 95.8052C125.575 96.222 125.872 96.5467 126.248 96.7791C126.633 97.0036 127.07 97.1158 127.559 97.1158C128.016 97.1158 128.417 97.0156 128.761 96.8152C129.114 96.6068 129.387 96.3022 129.579 95.9014H131.515C131.234 96.7591 130.741 97.4284 130.036 97.9094C129.339 98.3824 128.517 98.6188 127.571 98.6188C126.769 98.6188 126.044 98.4385 125.395 98.0777C124.753 97.709 124.244 97.2 123.868 96.5507C123.499 95.9014 123.314 95.1639 123.314 94.3382ZM135.911 98.6549C135.269 98.6549 134.692 98.5146 134.179 98.2341C133.666 97.9455 133.261 97.5407 132.965 97.0196C132.676 96.4986 132.532 95.8973 132.532 95.216C132.532 94.5346 132.68 93.9334 132.977 93.4123C133.281 92.8913 133.694 92.4905 134.215 92.2099C134.736 91.9213 135.318 91.777 135.959 91.777C136.6 91.777 137.181 91.9213 137.702 92.2099C138.223 92.4905 138.632 92.8913 138.929 93.4123C139.233 93.9334 139.386 94.5346 139.386 95.216C139.386 95.8973 139.229 96.4986 138.917 97.0196C138.612 97.5407 138.195 97.9455 137.666 98.2341C137.145 98.5146 136.56 98.6549 135.911 98.6549ZM135.911 97.1879C136.215 97.1879 136.5 97.1158 136.764 96.9715C137.037 96.8192 137.253 96.5948 137.414 96.2982C137.574 96.0016 137.654 95.6408 137.654 95.216C137.654 94.5827 137.486 94.0977 137.149 93.761C136.821 93.4163 136.416 93.244 135.935 93.244C135.454 93.244 135.049 93.4163 134.72 93.761C134.4 94.0977 134.239 94.5827 134.239 95.216C134.239 95.8492 134.396 96.3382 134.708 96.6829C135.029 97.0196 135.43 97.1879 135.911 97.1879ZM148.893 91.7891C149.711 91.7891 150.368 92.0416 150.865 92.5466C151.37 93.0436 151.623 93.741 151.623 94.6388V98.5467H149.939V94.8673C149.939 94.3462 149.807 93.9494 149.543 93.6769C149.278 93.3963 148.917 93.256 148.46 93.256C148.004 93.256 147.639 93.3963 147.366 93.6769C147.102 93.9494 146.969 94.3462 146.969 94.8673V98.5467H145.286V94.8673C145.286 94.3462 145.154 93.9494 144.889 93.6769C144.625 93.3963 144.264 93.256 143.807 93.256C143.342 93.256 142.973 93.3963 142.701 93.6769C142.436 93.9494 142.304 94.3462 142.304 94.8673V98.5467H140.621V91.8852H142.304V92.6909C142.52 92.4103 142.797 92.1899 143.134 92.0295C143.478 91.8692 143.855 91.7891 144.264 91.7891C144.785 91.7891 145.25 91.9013 145.659 92.1257C146.068 92.3422 146.384 92.6548 146.609 93.0636C146.825 92.6788 147.138 92.3702 147.547 92.1378C147.963 91.9053 148.412 91.7891 148.893 91.7891ZM154.904 92.8472C155.12 92.5426 155.417 92.2901 155.793 92.0897C156.178 91.8812 156.615 91.777 157.104 91.777C157.673 91.777 158.186 91.9173 158.643 92.1979C159.108 92.4784 159.473 92.8793 159.737 93.4003C160.01 93.9133 160.146 94.5105 160.146 95.1919C160.146 95.8733 160.01 96.4785 159.737 97.0076C159.473 97.5286 159.108 97.9335 158.643 98.222C158.186 98.5106 157.673 98.6549 157.104 98.6549C156.615 98.6549 156.182 98.5547 155.805 98.3543C155.437 98.1539 155.136 97.9014 154.904 97.5968V101.721H153.22V91.8852H154.904V92.8472ZM158.427 95.1919C158.427 94.7911 158.343 94.4464 158.174 94.1578C158.014 93.8612 157.797 93.6368 157.525 93.4845C157.26 93.3322 156.972 93.256 156.659 93.256C156.355 93.256 156.066 93.3362 155.793 93.4965C155.529 93.6488 155.312 93.8733 155.144 94.1699C154.984 94.4665 154.904 94.8152 154.904 95.216C154.904 95.6168 154.984 95.9655 155.144 96.2621C155.312 96.5587 155.529 96.7871 155.793 96.9475C156.066 97.0998 156.355 97.1759 156.659 97.1759C156.972 97.1759 157.26 97.0958 157.525 96.9354C157.797 96.7751 158.014 96.5467 158.174 96.2501C158.343 95.9535 158.427 95.6007 158.427 95.1919ZM163.053 92.9193C163.269 92.5666 163.55 92.2901 163.895 92.0897C164.247 91.8893 164.648 91.7891 165.097 91.7891V93.5566H164.652C164.123 93.5566 163.722 93.6809 163.45 93.9294C163.185 94.1779 163.053 94.6107 163.053 95.228V98.5467H161.37V91.8852H163.053V92.9193ZM169.189 98.6549C168.548 98.6549 167.97 98.5146 167.457 98.2341C166.944 97.9455 166.54 97.5407 166.243 97.0196C165.954 96.4986 165.81 95.8973 165.81 95.216C165.81 94.5346 165.958 93.9334 166.255 93.4123C166.56 92.8913 166.972 92.4905 167.493 92.2099C168.014 91.9213 168.596 91.777 169.237 91.777C169.878 91.777 170.459 91.9213 170.98 92.2099C171.502 92.4905 171.91 92.8913 172.207 93.4123C172.512 93.9334 172.664 94.5346 172.664 95.216C172.664 95.8973 172.508 96.4986 172.195 97.0196C171.89 97.5407 171.473 97.9455 170.944 98.2341C170.423 98.5146 169.838 98.6549 169.189 98.6549ZM169.189 97.1879C169.493 97.1879 169.778 97.1158 170.043 96.9715C170.315 96.8192 170.532 96.5948 170.692 96.2982C170.852 96.0016 170.932 95.6408 170.932 95.216C170.932 94.5827 170.764 94.0977 170.427 93.761C170.099 93.4163 169.694 93.244 169.213 93.244C168.732 93.244 168.327 93.4163 167.998 93.761C167.678 94.0977 167.517 94.5827 167.517 95.216C167.517 95.8492 167.674 96.3382 167.986 96.6829C168.307 97.0196 168.708 97.1879 169.189 97.1879ZM176.676 96.9956L178.36 91.8852H180.151L177.686 98.5467H175.642L173.189 91.8852H174.993L176.676 96.9956ZM180.664 95.1919C180.664 94.5186 180.796 93.9214 181.061 93.4003C181.333 92.8793 181.698 92.4784 182.155 92.1979C182.62 91.9173 183.137 91.777 183.706 91.777C184.203 91.777 184.636 91.8772 185.005 92.0776C185.381 92.278 185.682 92.5306 185.907 92.8352V91.8852H187.602V98.5467H185.907V97.5727C185.69 97.8854 185.389 98.1459 185.005 98.3543C184.628 98.5547 184.191 98.6549 183.694 98.6549C183.133 98.6549 182.62 98.5106 182.155 98.222C181.698 97.9335 181.333 97.5286 181.061 97.0076C180.796 96.4785 180.664 95.8733 180.664 95.1919ZM185.907 95.216C185.907 94.8071 185.826 94.4584 185.666 94.1699C185.506 93.8733 185.289 93.6488 185.017 93.4965C184.744 93.3362 184.452 93.256 184.139 93.256C183.826 93.256 183.538 93.3322 183.273 93.4845C183.009 93.6368 182.792 93.8612 182.624 94.1578C182.464 94.4464 182.383 94.7911 182.383 95.1919C182.383 95.5927 182.464 95.9454 182.624 96.2501C182.792 96.5467 183.009 96.7751 183.273 96.9354C183.546 97.0958 183.834 97.1759 184.139 97.1759C184.452 97.1759 184.744 97.0998 185.017 96.9475C185.289 96.7871 185.506 96.5627 185.666 96.2741C185.826 95.9775 185.907 95.6248 185.907 95.216ZM192.938 91.7891C193.731 91.7891 194.372 92.0416 194.861 92.5466C195.35 93.0436 195.595 93.741 195.595 94.6388V98.5467H193.912V94.8673C193.912 94.3382 193.779 93.9334 193.515 93.6528C193.25 93.3642 192.889 93.2199 192.433 93.2199C191.968 93.2199 191.599 93.3642 191.326 93.6528C191.062 93.9334 190.929 94.3382 190.929 94.8673V98.5467H189.246V91.8852H190.929V92.7149C191.154 92.4263 191.439 92.2019 191.783 92.0416C192.136 91.8732 192.521 91.7891 192.938 91.7891ZM199.156 93.268V96.4905C199.156 96.715 199.208 96.8793 199.312 96.9835C199.424 97.0797 199.609 97.1278 199.865 97.1278H200.647V98.5467H199.589C198.17 98.5467 197.46 97.8573 197.46 96.4785V93.268H196.667V91.8852H197.46V90.2379H199.156V91.8852H200.647V93.268H199.156ZM208.05 95.0717C208.05 95.3122 208.034 95.5286 208.002 95.721H203.132C203.172 96.202 203.34 96.5787 203.637 96.8513C203.934 97.1238 204.298 97.2601 204.731 97.2601C205.357 97.2601 205.801 96.9916 206.066 96.4545H207.882C207.689 97.0958 207.321 97.6248 206.775 98.0417C206.23 98.4505 205.561 98.6549 204.767 98.6549C204.126 98.6549 203.549 98.5146 203.036 98.2341C202.531 97.9455 202.134 97.5407 201.845 97.0196C201.565 96.4986 201.425 95.8973 201.425 95.216C201.425 94.5266 201.565 93.9214 201.845 93.4003C202.126 92.8793 202.519 92.4784 203.024 92.1979C203.529 91.9173 204.11 91.777 204.767 91.777C205.401 91.777 205.966 91.9133 206.463 92.1859C206.968 92.4584 207.357 92.8472 207.629 93.3522C207.91 93.8492 208.05 94.4224 208.05 95.0717ZM206.306 94.5907C206.298 94.1578 206.142 93.8131 205.838 93.5566C205.533 93.2921 205.16 93.1598 204.719 93.1598C204.302 93.1598 203.95 93.2881 203.661 93.5446C203.381 93.7931 203.208 94.1418 203.144 94.5907H206.306Z" fill="white"/>
<path fill-rule="evenodd" clip-rule="evenodd" d="M79.5176 90.4283L74.9375 95.0084L75.7346 95.8055L80.3147 91.2254L84.8949 95.8055L85.692 95.0084L81.1118 90.4283L85.6922 85.8479L84.8951 85.0508L80.3147 89.6312L75.7344 85.0509L74.9373 85.848L79.5176 90.4283Z" fill="white"/>
<path fill-rule="evenodd" clip-rule="evenodd" d="M160.116 147.58C160.245 147.447 160.347 147.29 160.415 147.117C160.483 146.944 160.516 146.76 160.512 146.574C160.508 146.389 160.467 146.206 160.391 146.036C160.316 145.867 160.207 145.714 160.072 145.586C159.218 144.776 158.145 144.233 156.987 144.022C155.828 143.812 154.633 143.944 153.548 144.402C152.463 144.859 151.535 145.623 150.878 146.6C150.22 147.577 149.861 148.725 149.846 149.902C149.861 151.08 150.22 152.227 150.878 153.204C151.535 154.181 152.463 154.945 153.548 155.403C154.633 155.861 155.828 155.992 156.987 155.782C158.145 155.572 159.218 155.028 160.072 154.218C160.207 154.091 160.316 153.938 160.391 153.768C160.467 153.599 160.508 153.416 160.512 153.23C160.516 153.045 160.483 152.86 160.415 152.687C160.347 152.515 160.245 152.357 160.116 152.224C159.853 151.954 159.494 151.799 159.117 151.791C158.74 151.783 158.375 151.923 158.1 152.182C157.492 152.756 156.683 153.071 155.846 153.059C155.009 153.047 154.21 152.71 153.617 152.119C153.326 151.828 153.094 151.483 152.936 151.102C152.779 150.722 152.697 150.314 152.697 149.902C152.697 149.49 152.779 149.083 152.936 148.702C153.094 148.322 153.326 147.976 153.617 147.685C154.21 147.094 155.009 146.757 155.846 146.745C156.683 146.734 157.492 147.048 158.1 147.623C158.375 147.881 158.74 148.022 159.117 148.014C159.494 148.006 159.853 147.85 160.116 147.58V147.58ZM167.722 143.926C166.128 143.919 164.596 144.544 163.463 145.664C162.329 146.785 161.687 148.309 161.676 149.903C161.676 151.507 162.313 153.044 163.447 154.178C164.58 155.312 166.118 155.949 167.722 155.949C169.325 155.949 170.863 155.312 171.997 154.178C173.131 153.044 173.768 151.507 173.768 149.903C173.757 148.309 173.114 146.785 171.981 145.664C170.847 144.544 169.316 143.919 167.722 143.926ZM167.722 153.06C167.099 153.053 166.492 152.862 165.978 152.51C165.463 152.159 165.064 151.664 164.831 151.086C164.597 150.509 164.54 149.875 164.666 149.265C164.791 148.655 165.095 148.096 165.538 147.658C165.981 147.22 166.544 146.922 167.155 146.804C167.767 146.685 168.399 146.749 168.974 146.989C169.549 147.229 170.04 147.634 170.385 148.153C170.731 148.671 170.915 149.28 170.915 149.903C170.913 150.32 170.828 150.732 170.666 151.117C170.505 151.501 170.269 151.85 169.972 152.143C169.676 152.436 169.324 152.668 168.938 152.825C168.552 152.983 168.139 153.062 167.722 153.06ZM182.047 143.926C180.244 143.918 178.511 144.626 177.229 145.894C175.947 147.162 175.22 148.887 175.207 150.69C175.206 151.579 175.382 152.46 175.726 153.28C176.069 154.101 176.573 154.844 177.208 155.467C177.477 155.732 177.839 155.88 178.216 155.88C178.593 155.88 178.955 155.732 179.223 155.467C179.356 155.337 179.461 155.182 179.533 155.011C179.604 154.84 179.641 154.656 179.641 154.47C179.641 154.285 179.604 154.101 179.533 153.93C179.461 153.758 179.356 153.603 179.223 153.473C178.854 153.109 178.56 152.675 178.359 152.197C178.159 151.718 178.055 151.204 178.055 150.686C178.055 150.167 178.159 149.653 178.359 149.174C178.56 148.696 178.854 148.262 179.223 147.898C179.975 147.158 180.988 146.744 182.043 146.744C183.098 146.744 184.11 147.158 184.862 147.898C185.232 148.262 185.526 148.696 185.727 149.174C185.927 149.653 186.031 150.167 186.031 150.686C186.031 151.204 185.927 151.718 185.727 152.197C185.526 152.675 185.232 153.109 184.862 153.473C184.73 153.603 184.625 153.758 184.553 153.93C184.482 154.101 184.445 154.284 184.445 154.47C184.445 154.656 184.482 154.839 184.553 155.011C184.625 155.182 184.73 155.337 184.862 155.467C185.131 155.731 185.493 155.879 185.87 155.879C186.247 155.879 186.609 155.731 186.878 155.467C187.514 154.845 188.02 154.102 188.365 153.281C188.71 152.461 188.888 151.58 188.888 150.69C188.875 148.886 188.148 147.162 186.866 145.894C185.583 144.626 183.85 143.918 182.047 143.926ZM136.688 145.895C137.97 144.627 139.703 143.919 141.506 143.927C143.309 143.919 145.042 144.627 146.324 145.895C147.607 147.163 148.334 148.887 148.347 150.691C148.347 151.581 148.169 152.462 147.824 153.282C147.478 154.102 146.973 154.845 146.336 155.467C146.068 155.732 145.706 155.88 145.329 155.88C144.952 155.88 144.59 155.732 144.321 155.467C144.189 155.337 144.084 155.182 144.012 155.011C143.94 154.84 143.903 154.656 143.903 154.47C143.903 154.285 143.94 154.101 144.012 153.93C144.084 153.758 144.189 153.603 144.321 153.473C144.691 153.109 144.985 152.675 145.186 152.197C145.386 151.718 145.489 151.204 145.489 150.685C145.489 150.166 145.386 149.653 145.186 149.174C144.985 148.695 144.691 148.262 144.321 147.898C143.569 147.158 142.556 146.743 141.501 146.743C140.446 146.743 139.434 147.158 138.682 147.898C138.312 148.262 138.018 148.695 137.817 149.174C137.617 149.653 137.513 150.166 137.513 150.685C137.513 151.204 137.617 151.718 137.817 152.197C138.018 152.675 138.312 153.109 138.682 153.473C138.814 153.603 138.919 153.758 138.991 153.93C139.063 154.101 139.099 154.285 139.099 154.47C139.099 154.656 139.063 154.84 138.991 155.011C138.919 155.182 138.814 155.337 138.682 155.467C138.413 155.732 138.051 155.88 137.674 155.88C137.297 155.88 136.935 155.732 136.666 155.467C136.032 154.844 135.528 154.101 135.184 153.281C134.841 152.461 134.664 151.58 134.666 150.691C134.678 148.887 135.405 147.163 136.688 145.895ZM157.316 149.895C157.32 150.673 156.686 151.307 155.899 151.312C155.112 151.316 154.47 150.689 154.466 149.911C154.461 149.132 155.096 148.498 155.883 148.494C156.67 148.489 157.312 149.117 157.316 149.895Z" fill="#0073CE"/>
<rect x="94.8351" y="452.97" width="133.723" height="27.4304" rx="13.7152" fill="white"/>
<path d="M130.038 466.913C130.038 466.285 130.178 465.724 130.459 465.23C130.745 464.731 131.132 464.344 131.62 464.069C132.114 463.789 132.665 463.649 133.275 463.649C133.988 463.649 134.613 463.832 135.149 464.197C135.686 464.563 136.06 465.069 136.274 465.715H134.802C134.655 465.41 134.448 465.182 134.18 465.029C133.918 464.877 133.613 464.801 133.266 464.801C132.894 464.801 132.562 464.889 132.269 465.066C131.982 465.237 131.757 465.48 131.592 465.797C131.434 466.114 131.355 466.486 131.355 466.913C131.355 467.333 131.434 467.705 131.592 468.028C131.757 468.345 131.982 468.592 132.269 468.769C132.562 468.94 132.894 469.025 133.266 469.025C133.613 469.025 133.918 468.949 134.18 468.796C134.448 468.638 134.655 468.406 134.802 468.102H136.274C136.06 468.754 135.686 469.263 135.149 469.628C134.619 469.988 133.994 470.168 133.275 470.168C132.665 470.168 132.114 470.031 131.62 469.756C131.132 469.476 130.745 469.089 130.459 468.595C130.178 468.102 130.038 467.541 130.038 466.913ZM139.616 470.195C139.129 470.195 138.69 470.089 138.3 469.875C137.91 469.656 137.602 469.348 137.376 468.952C137.157 468.556 137.047 468.098 137.047 467.58C137.047 467.062 137.16 466.605 137.385 466.209C137.617 465.813 137.931 465.508 138.327 465.294C138.723 465.075 139.165 464.965 139.653 464.965C140.141 464.965 140.583 465.075 140.979 465.294C141.375 465.508 141.686 465.813 141.911 466.209C142.143 466.605 142.259 467.062 142.259 467.58C142.259 468.098 142.14 468.556 141.902 468.952C141.671 469.348 141.354 469.656 140.951 469.875C140.555 470.089 140.11 470.195 139.616 470.195ZM139.616 469.08C139.848 469.08 140.064 469.025 140.266 468.915C140.473 468.799 140.637 468.629 140.759 468.403C140.881 468.178 140.942 467.903 140.942 467.58C140.942 467.099 140.814 466.73 140.558 466.474C140.308 466.212 140 466.081 139.635 466.081C139.269 466.081 138.961 466.212 138.711 466.474C138.467 466.73 138.346 467.099 138.346 467.58C138.346 468.062 138.464 468.434 138.702 468.696C138.946 468.952 139.251 469.08 139.616 469.08ZM149.489 464.974C150.11 464.974 150.61 465.166 150.988 465.551C151.372 465.928 151.564 466.459 151.564 467.141V470.113H150.284V467.315C150.284 466.919 150.183 466.617 149.982 466.41C149.781 466.197 149.507 466.09 149.159 466.09C148.812 466.09 148.535 466.197 148.327 466.41C148.126 466.617 148.026 466.919 148.026 467.315V470.113H146.746V467.315C146.746 466.919 146.645 466.617 146.444 466.41C146.243 466.197 145.968 466.09 145.621 466.09C145.267 466.09 144.987 466.197 144.78 466.41C144.579 466.617 144.478 466.919 144.478 467.315V470.113H143.198V465.048H144.478V465.66C144.643 465.447 144.853 465.279 145.109 465.157C145.371 465.035 145.657 464.974 145.968 464.974C146.365 464.974 146.718 465.06 147.029 465.23C147.34 465.395 147.581 465.633 147.751 465.944C147.916 465.651 148.154 465.416 148.465 465.24C148.782 465.063 149.123 464.974 149.489 464.974ZM154.059 465.779C154.224 465.547 154.449 465.355 154.736 465.203C155.028 465.045 155.36 464.965 155.732 464.965C156.165 464.965 156.555 465.072 156.903 465.285C157.256 465.499 157.533 465.803 157.735 466.2C157.942 466.59 158.046 467.044 158.046 467.562C158.046 468.08 157.942 468.54 157.735 468.943C157.533 469.339 157.256 469.647 156.903 469.866C156.555 470.086 156.165 470.195 155.732 470.195C155.36 470.195 155.031 470.119 154.745 469.967C154.464 469.814 154.236 469.622 154.059 469.391V472.527H152.779V465.048H154.059V465.779ZM156.738 467.562C156.738 467.257 156.674 466.995 156.546 466.776C156.424 466.55 156.259 466.38 156.052 466.264C155.851 466.148 155.632 466.09 155.394 466.09C155.162 466.09 154.943 466.151 154.736 466.273C154.534 466.389 154.37 466.559 154.242 466.785C154.12 467.01 154.059 467.276 154.059 467.58C154.059 467.885 154.12 468.15 154.242 468.376C154.37 468.601 154.534 468.775 154.736 468.897C154.943 469.013 155.162 469.071 155.394 469.071C155.632 469.071 155.851 469.01 156.052 468.888C156.259 468.766 156.424 468.592 156.546 468.367C156.674 468.141 156.738 467.873 156.738 467.562ZM158.647 467.562C158.647 467.05 158.747 466.596 158.948 466.2C159.156 465.803 159.433 465.499 159.78 465.285C160.134 465.072 160.527 464.965 160.96 464.965C161.338 464.965 161.667 465.042 161.947 465.194C162.234 465.346 162.462 465.538 162.633 465.77V465.048H163.922V470.113H162.633V469.372C162.469 469.61 162.24 469.808 161.947 469.967C161.661 470.119 161.329 470.195 160.951 470.195C160.524 470.195 160.134 470.086 159.78 469.866C159.433 469.647 159.156 469.339 158.948 468.943C158.747 468.54 158.647 468.08 158.647 467.562ZM162.633 467.58C162.633 467.269 162.572 467.004 162.45 466.785C162.328 466.559 162.164 466.389 161.956 466.273C161.749 466.151 161.527 466.09 161.289 466.09C161.051 466.09 160.832 466.148 160.631 466.264C160.43 466.38 160.265 466.55 160.137 466.776C160.015 466.995 159.954 467.257 159.954 467.562C159.954 467.867 160.015 468.135 160.137 468.367C160.265 468.592 160.43 468.766 160.631 468.888C160.838 469.01 161.057 469.071 161.289 469.071C161.527 469.071 161.749 469.013 161.956 468.897C162.164 468.775 162.328 468.604 162.45 468.385C162.572 468.159 162.633 467.891 162.633 467.58ZM166.453 465.834C166.617 465.566 166.831 465.355 167.093 465.203C167.361 465.051 167.666 464.974 168.007 464.974V466.319H167.669C167.266 466.319 166.962 466.413 166.754 466.602C166.553 466.791 166.453 467.12 166.453 467.589V470.113H165.173V465.048H166.453V465.834ZM170.36 466.099V468.55C170.36 468.72 170.399 468.845 170.478 468.924C170.564 468.998 170.704 469.034 170.899 469.034H171.493V470.113H170.689C169.61 470.113 169.07 469.589 169.07 468.54V466.099H168.467V465.048H169.07V463.795H170.36V465.048H171.493V466.099H170.36ZM173.063 464.444C172.838 464.444 172.649 464.374 172.496 464.234C172.35 464.088 172.277 463.908 172.277 463.694C172.277 463.481 172.35 463.304 172.496 463.164C172.649 463.018 172.838 462.945 173.063 462.945C173.289 462.945 173.475 463.018 173.621 463.164C173.773 463.304 173.85 463.481 173.85 463.694C173.85 463.908 173.773 464.088 173.621 464.234C173.475 464.374 173.289 464.444 173.063 464.444ZM173.694 465.048V470.113H172.414V465.048H173.694ZM176.239 463.347V470.113H174.959V463.347H176.239ZM180.356 464.974C180.74 464.974 181.082 465.06 181.381 465.23C181.679 465.395 181.911 465.642 182.075 465.971C182.246 466.294 182.331 466.684 182.331 467.141V470.113H181.051V467.315C181.051 466.913 180.951 466.605 180.75 466.392C180.548 466.172 180.274 466.063 179.927 466.063C179.573 466.063 179.293 466.172 179.086 466.392C178.884 466.605 178.784 466.913 178.784 467.315V470.113H177.504V463.347H178.784V465.679C178.948 465.459 179.168 465.288 179.442 465.166C179.716 465.038 180.021 464.974 180.356 464.974ZM183.22 467.562C183.22 467.05 183.32 466.596 183.521 466.2C183.729 465.803 184.006 465.499 184.353 465.285C184.707 465.072 185.1 464.965 185.533 464.965C185.911 464.965 186.24 465.042 186.52 465.194C186.807 465.346 187.035 465.538 187.206 465.77V465.048H188.495V470.113H187.206V469.372C187.042 469.61 186.813 469.808 186.52 469.967C186.234 470.119 185.902 470.195 185.524 470.195C185.097 470.195 184.707 470.086 184.353 469.866C184.006 469.647 183.729 469.339 183.521 468.943C183.32 468.54 183.22 468.08 183.22 467.562ZM187.206 467.58C187.206 467.269 187.145 467.004 187.023 466.785C186.901 466.559 186.737 466.389 186.53 466.273C186.322 466.151 186.1 466.09 185.862 466.09C185.624 466.09 185.405 466.148 185.204 466.264C185.003 466.38 184.838 466.55 184.71 466.776C184.588 466.995 184.527 467.257 184.527 467.562C184.527 467.867 184.588 468.135 184.71 468.367C184.838 468.592 185.003 468.766 185.204 468.888C185.411 469.01 185.63 469.071 185.862 469.071C186.1 469.071 186.322 469.013 186.53 468.897C186.737 468.775 186.901 468.604 187.023 468.385C187.145 468.159 187.206 467.891 187.206 467.58ZM191.026 465.834C191.19 465.566 191.404 465.355 191.666 465.203C191.934 465.051 192.239 464.974 192.58 464.974V466.319H192.242C191.839 466.319 191.535 466.413 191.327 466.602C191.126 466.791 191.026 467.12 191.026 467.589V470.113H189.746V465.048H191.026V465.834Z" fill="#01A5F0"/>
<path d="M112.834 175.439C113.79 175.439 114.619 175.033 115.169 174.384L114.574 173.879C114.159 174.366 113.528 174.682 112.834 174.682C111.526 174.682 110.498 173.581 110.498 172.256C110.498 170.921 111.526 169.83 112.834 169.83C113.528 169.83 114.159 170.145 114.574 170.632L115.169 170.127C114.619 169.478 113.79 169.072 112.834 169.072C111.075 169.072 109.677 170.497 109.677 172.256C109.677 174.014 111.075 175.439 112.834 175.439ZM118.024 175.439C119.223 175.439 120.234 174.564 120.234 173.23C120.234 171.895 119.223 171.047 118.024 171.047C116.825 171.047 115.824 171.895 115.824 173.23C115.824 174.564 116.825 175.439 118.024 175.439ZM118.024 174.7C117.258 174.7 116.617 174.104 116.617 173.23C116.617 172.364 117.258 171.787 118.024 171.787C118.8 171.787 119.449 172.364 119.449 173.23C119.449 174.104 118.8 174.7 118.024 174.7ZM126.322 171.047C125.898 171.047 125.231 171.174 124.852 171.922C124.608 171.363 124.076 171.047 123.463 171.047C122.868 171.047 122.327 171.327 122.11 171.778V171.138H121.326V175.349H122.11V173.067C122.11 172.175 122.706 171.805 123.301 171.805C123.86 171.805 124.248 172.247 124.248 172.959V175.349H125.032V173.203L125.041 173.239C124.969 172.427 125.42 171.796 126.169 171.805C126.782 171.805 127.17 172.256 127.17 172.959V175.349H127.954V172.914C127.954 171.733 127.377 171.047 126.322 171.047ZM131.542 171.047C130.938 171.047 130.325 171.318 130.045 171.805V171.138H129.261V177.396H130.045V174.691C130.325 175.187 130.92 175.439 131.551 175.439C132.706 175.439 133.653 174.582 133.653 173.248C133.653 171.922 132.697 171.047 131.542 171.047ZM131.47 174.7C130.785 174.7 130.045 174.168 130.045 173.257C130.045 172.355 130.722 171.787 131.47 171.787C132.246 171.787 132.859 172.418 132.859 173.257C132.859 174.104 132.246 174.7 131.47 174.7ZM136.722 171.047C136.163 171.047 135.757 171.354 135.541 172.093V171.138H134.747V175.349H135.541V173.807C135.541 172.698 135.875 171.805 136.713 171.805C136.876 171.805 137.101 171.841 137.327 171.949L137.453 171.21C137.327 171.128 137.02 171.047 136.722 171.047ZM140.024 175.439C141.223 175.439 142.233 174.564 142.233 173.23C142.233 171.895 141.223 171.047 140.024 171.047C138.824 171.047 137.823 171.895 137.823 173.23C137.823 174.564 138.824 175.439 140.024 175.439ZM140.024 174.7C139.257 174.7 138.617 174.104 138.617 173.23C138.617 172.364 139.257 171.787 140.024 171.787C140.799 171.787 141.448 172.364 141.448 173.23C141.448 174.104 140.799 174.7 140.024 174.7ZM146.096 171.138L144.807 174.348L143.508 171.138H142.67L144.419 175.349H145.186L146.944 171.138H146.096ZM150.986 171.138V171.796C150.706 171.3 150.111 171.047 149.48 171.047C148.326 171.047 147.379 171.904 147.379 173.239C147.379 174.564 148.335 175.439 149.489 175.439C150.093 175.439 150.706 175.169 150.986 174.682V175.349H151.771V171.138H150.986ZM149.552 174.7C148.786 174.7 148.172 174.068 148.172 173.23C148.172 172.382 148.786 171.787 149.552 171.787C150.246 171.787 150.986 172.319 150.986 173.23C150.986 174.132 150.31 174.7 149.552 174.7ZM155.327 171.047C154.867 171.047 154.182 171.264 153.93 171.778V171.138H153.145V175.349H153.93V173.067C153.93 172.157 154.633 171.823 155.219 171.823C155.805 171.823 156.238 172.256 156.238 172.959V175.349H157.023V172.914C157.032 171.733 156.373 171.047 155.327 171.047ZM160.299 171.138H159.389V169.541H158.604V171.138H157.846V171.814H158.604V175.349H159.389V171.814H160.299V171.138ZM165.057 173.23C165.057 171.895 164.164 171.047 162.964 171.047C161.765 171.047 160.8 171.895 160.8 173.23C160.8 174.564 161.765 175.439 162.964 175.439C163.776 175.439 164.534 175.06 164.903 174.33L164.218 174.059C163.984 174.483 163.506 174.7 162.992 174.7C162.27 174.7 161.729 174.33 161.612 173.581H165.039C165.048 173.464 165.057 173.347 165.057 173.23ZM161.621 172.905C161.747 172.148 162.252 171.787 162.964 171.787C163.659 171.787 164.173 172.184 164.272 172.905H161.621ZM168.317 173.627H171.447V172.869H168.317V173.627ZM176.512 174.24L177.901 172.644C178.28 172.22 178.55 171.715 178.55 171.147C178.55 170.073 177.784 169.361 176.602 169.361C175.421 169.361 174.735 170.082 174.591 171.138L175.664 171.318C175.737 170.804 176.034 170.461 176.557 170.461C177.017 170.461 177.342 170.741 177.342 171.138C177.342 171.336 177.179 171.643 176.936 171.94L174.627 174.709V175.349H178.604V174.24H176.512ZM181.743 175.43C183.457 175.43 183.926 174.086 183.926 172.409C183.926 170.705 183.457 169.361 181.743 169.361C180.021 169.361 179.543 170.705 179.543 172.409C179.543 174.086 180.021 175.43 181.743 175.43ZM181.743 174.33C180.977 174.33 180.742 173.482 180.742 172.409C180.742 171.318 180.977 170.461 181.743 170.461C182.501 170.461 182.726 171.318 182.726 172.409C182.726 173.482 182.501 174.33 181.743 174.33ZM186.693 174.24L188.082 172.644C188.46 172.22 188.731 171.715 188.731 171.147C188.731 170.073 187.964 169.361 186.783 169.361C185.602 169.361 184.916 170.082 184.772 171.138L185.845 171.318C185.917 170.804 186.215 170.461 186.738 170.461C187.198 170.461 187.522 170.741 187.522 171.138C187.522 171.336 187.36 171.643 187.117 171.94L184.808 174.709V175.349H188.785V174.24H186.693ZM191.87 169.361C190.553 169.361 189.687 170.218 189.687 171.345C189.687 172.373 190.481 173.248 191.68 173.248C192.249 173.248 192.672 173.04 192.961 172.752C192.916 173.672 192.393 174.33 191.653 174.33C191.266 174.33 190.905 174.132 190.715 173.735L189.76 174.258C190.12 175.06 190.887 175.43 191.662 175.43C193.322 175.43 194.16 173.942 194.16 172.193C194.16 170.515 193.25 169.361 191.87 169.361ZM191.843 172.247C191.284 172.238 190.887 171.868 190.887 171.354C190.887 170.831 191.293 170.461 191.879 170.461C192.456 170.47 192.862 170.849 192.862 171.372C192.853 171.886 192.429 172.247 191.843 172.247ZM199.641 173.167H198.74V169.442H198.036L194.69 173.87V174.222H197.54V175.349H198.74V174.222H199.641V173.167ZM196.377 173.167L197.54 171.606V173.167H196.377ZM202.605 169.361C201.289 169.361 200.423 170.218 200.423 171.345C200.423 172.373 201.217 173.248 202.416 173.248C202.984 173.248 203.408 173.04 203.697 172.752C203.651 173.672 203.128 174.33 202.389 174.33C202.001 174.33 201.64 174.132 201.451 173.735L200.495 174.258C200.856 175.06 201.622 175.43 202.398 175.43C204.057 175.43 204.896 173.942 204.896 172.193C204.896 170.515 203.985 169.361 202.605 169.361ZM202.578 172.247C202.019 172.238 201.622 171.868 201.622 171.354C201.622 170.831 202.028 170.461 202.614 170.461C203.191 170.47 203.597 170.849 203.597 171.372C203.588 171.886 203.164 172.247 202.578 172.247ZM208.023 169.361L205.57 170.38V171.489L206.932 170.966V175.349H208.122V169.361H208.023ZM211.546 175.43C213.259 175.43 213.728 174.086 213.728 172.409C213.728 170.705 213.259 169.361 211.546 169.361C209.823 169.361 209.345 170.705 209.345 172.409C209.345 174.086 209.823 175.43 211.546 175.43ZM211.546 174.33C210.779 174.33 210.544 173.482 210.544 172.409C210.544 171.318 210.779 170.461 211.546 170.461C212.303 170.461 212.529 171.318 212.529 172.409C212.529 173.482 212.303 174.33 211.546 174.33Z" fill="#0073CE"/>
<path opacity="0.3" d="M87.6957 189.392H235.369" stroke="#855B35" stroke-width="0.751517"/>
<path opacity="0.3" d="M87.6957 291.598H235.369" stroke="#855B35" stroke-width="0.751517"/>
<path d="M129.149 216.307H131.126C132.696 216.307 133.786 215.315 133.786 213.804C133.786 212.294 132.696 211.294 131.126 211.294H129.149V216.307ZM130.216 215.367V212.234H131.126C132.155 212.234 132.696 212.917 132.696 213.804C132.696 214.653 132.118 215.367 131.126 215.367H130.216ZM134.544 216.307H138.091V215.382H135.611V214.218H138.038V213.301H135.611V212.211H138.091V211.294H134.544V216.307ZM140.607 213.804C140.607 215.382 141.81 216.404 143.275 216.404C144.184 216.404 144.898 216.029 145.409 215.458V213.541H143.02V214.458H144.357V215.067C144.139 215.262 143.734 215.45 143.275 215.45C142.366 215.45 141.704 214.751 141.704 213.804C141.704 212.857 142.366 212.158 143.275 212.158C143.801 212.158 144.23 212.436 144.463 212.79L145.349 212.309C144.966 211.715 144.312 211.211 143.275 211.211C141.81 211.211 140.607 212.218 140.607 213.804ZM146.257 216.307H147.324V211.294H146.257V216.307ZM148.319 216.307H151.505V215.367H149.386V211.294H148.319V216.307ZM152.253 216.307H154.973C155.928 216.307 156.431 215.706 156.431 214.954C156.431 214.323 156.003 213.804 155.469 213.722C155.943 213.624 156.333 213.203 156.333 212.572C156.333 211.903 155.845 211.294 154.89 211.294H152.253V216.307ZM153.32 213.308V212.203H154.657C155.018 212.203 155.244 212.444 155.244 212.752C155.244 213.075 155.018 213.308 154.657 213.308H153.32ZM153.32 215.397V214.218H154.695C155.116 214.218 155.341 214.488 155.341 214.804C155.341 215.164 155.101 215.397 154.695 215.397H153.32ZM157.236 216.307H160.783V215.382H158.303V214.218H160.73V213.301H158.303V212.211H160.783V211.294H157.236V216.307ZM164.45 216.307H165.675L164.548 214.398C165.089 214.27 165.645 213.797 165.645 212.91C165.645 211.978 165.007 211.294 163.962 211.294H161.617V216.307H162.684V214.511H163.466L164.45 216.307ZM164.556 212.902C164.556 213.323 164.232 213.594 163.804 213.594H162.684V212.211H163.804C164.232 212.211 164.556 212.482 164.556 212.902ZM167.53 216.307H168.605V212.234H170.063V211.294H166.065V212.234H167.53V216.307ZM170.323 213.804C170.323 215.315 171.428 216.397 172.938 216.397C174.456 216.397 175.561 215.315 175.561 213.804C175.561 212.294 174.456 211.211 172.938 211.211C171.428 211.211 170.323 212.294 170.323 213.804ZM174.464 213.804C174.464 214.736 173.863 215.45 172.938 215.45C172.014 215.45 171.42 214.736 171.42 213.804C171.42 212.865 172.014 212.158 172.938 212.158C173.863 212.158 174.464 212.865 174.464 213.804ZM178.233 216.307H179.3V214.511H180.577C181.66 214.511 182.261 213.782 182.261 212.91C182.261 212.031 181.667 211.294 180.577 211.294H178.233V216.307ZM181.171 212.902C181.171 213.323 180.856 213.594 180.435 213.594H179.3V212.211H180.435C180.856 212.211 181.171 212.489 181.171 212.902ZM185.756 216.307H186.981L185.853 214.398C186.394 214.27 186.951 213.797 186.951 212.91C186.951 211.978 186.312 211.294 185.267 211.294H182.922V216.307H183.99V214.511H184.771L185.756 216.307ZM185.861 212.902C185.861 213.323 185.538 213.594 185.109 213.594H183.99V212.211H185.109C185.538 212.211 185.861 212.482 185.861 212.902ZM191.261 216.307H192.426L190.495 211.294H189.157L187.218 216.307H188.39L188.706 215.442H190.945L191.261 216.307ZM189.826 212.218L190.652 214.518H188.991L189.826 212.218ZM192.889 216.307H194.865C196.436 216.307 197.526 215.315 197.526 213.804C197.526 212.294 196.436 211.294 194.865 211.294H192.889V216.307ZM193.956 215.367V212.234H194.865C195.895 212.234 196.436 212.917 196.436 213.804C196.436 214.653 195.857 215.367 194.865 215.367H193.956ZM198.042 213.804C198.042 215.315 199.147 216.397 200.658 216.397C202.176 216.397 203.281 215.315 203.281 213.804C203.281 212.294 202.176 211.211 200.658 211.211C199.147 211.211 198.042 212.294 198.042 213.804ZM202.183 213.804C202.183 214.736 201.582 215.45 200.658 215.45C199.733 215.45 199.14 214.736 199.14 213.804C199.14 212.865 199.733 212.158 200.658 212.158C201.582 212.158 202.183 212.865 202.183 213.804Z" fill="#855B35"/>
<path d="M129.149 318.513H130.216V316.717H131.494C132.576 316.717 133.177 315.988 133.177 315.116C133.177 314.237 132.584 313.5 131.494 313.5H129.149V318.513ZM132.088 315.109C132.088 315.53 131.772 315.8 131.351 315.8H130.216V314.417H131.351C131.772 314.417 132.088 314.695 132.088 315.109ZM136.791 318.513H137.956L136.024 313.5H134.687L132.748 318.513H133.92L134.236 317.649H136.475L136.791 318.513ZM135.355 314.425L136.182 316.724H134.521L135.355 314.425ZM141.252 318.513H142.477L141.349 316.604C141.891 316.476 142.447 316.003 142.447 315.116C142.447 314.184 141.808 313.5 140.763 313.5H138.419V318.513H139.486V316.717H140.267L141.252 318.513ZM141.357 315.109C141.357 315.53 141.034 315.8 140.605 315.8H139.486V314.417H140.605C141.034 314.417 141.357 314.688 141.357 315.109ZM146.757 318.513H147.922L145.991 313.5H144.653L142.714 318.513H143.886L144.202 317.649H146.442L146.757 318.513ZM145.322 314.425L146.148 316.724H144.488L145.322 314.425ZM152.698 318.603C153.84 318.603 154.471 317.994 154.832 317.371L153.915 316.927C153.705 317.341 153.254 317.656 152.698 317.656C151.826 317.656 151.164 316.957 151.164 316.01C151.164 315.064 151.826 314.365 152.698 314.365C153.254 314.365 153.705 314.688 153.915 315.094L154.832 314.643C154.479 314.019 153.84 313.418 152.698 313.418C151.232 313.418 150.067 314.47 150.067 316.01C150.067 317.551 151.232 318.603 152.698 318.603ZM158.925 318.513H160.09L158.159 313.5H156.821L154.882 318.513H156.054L156.37 317.649H158.61L158.925 318.513ZM157.49 314.425L158.317 316.724H156.656L157.49 314.425ZM163.386 318.513H164.611L163.484 316.604C164.025 316.476 164.581 316.003 164.581 315.116C164.581 314.184 163.942 313.5 162.898 313.5H160.553V318.513H161.62V316.717H162.402L163.386 318.513ZM163.491 315.109C163.491 315.53 163.168 315.8 162.74 315.8H161.62V314.417H162.74C163.168 314.417 163.491 314.688 163.491 315.109ZM165.142 316.01C165.142 317.521 166.246 318.603 167.757 318.603C169.275 318.603 170.38 317.521 170.38 316.01C170.38 314.5 169.275 313.418 167.757 313.418C166.246 313.418 165.142 314.5 165.142 316.01ZM169.282 316.01C169.282 316.942 168.681 317.656 167.757 317.656C166.833 317.656 166.239 316.942 166.239 316.01C166.239 315.071 166.833 314.365 167.757 314.365C168.681 314.365 169.282 315.071 169.282 316.01ZM171.129 318.513H174.315V317.574H172.196V313.5H171.129V318.513ZM180.495 318.513H181.66L179.728 313.5H178.39L176.452 318.513H177.624L177.94 317.649H180.179L180.495 318.513ZM179.059 314.425L179.886 316.724H178.225L179.059 314.425ZM184.956 318.513H186.181L185.053 316.604C185.594 316.476 186.151 316.003 186.151 315.116C186.151 314.184 185.512 313.5 184.467 313.5H182.122V318.513H183.19V316.717H183.971L184.956 318.513ZM185.061 315.109C185.061 315.53 184.738 315.8 184.309 315.8H183.19V314.417H184.309C184.738 314.417 185.061 314.688 185.061 315.109ZM190.461 318.513H191.626L189.695 313.5H188.357L186.418 318.513H187.59L187.906 317.649H190.145L190.461 318.513ZM189.026 314.425L189.852 316.724H188.192L189.026 314.425ZM194.394 313.08L195.612 311.997H194.733L193.726 313.08H194.394ZM191.839 316.514C191.839 317.746 192.553 318.603 194.086 318.603C195.604 318.603 196.318 317.754 196.318 316.506V313.5H195.236V316.476C195.236 317.175 194.853 317.656 194.086 317.656C193.305 317.656 192.921 317.175 192.921 316.476V313.5H191.839V316.514ZM196.658 318.115C197.019 318.468 197.5 318.603 198.003 318.603C199.033 318.603 199.769 318.055 199.769 316.867V313.5H198.702V316.852C198.702 317.341 198.394 317.656 197.92 317.656C197.575 317.656 197.319 317.483 197.124 317.296L196.658 318.115ZM200.523 316.01C200.523 317.521 201.628 318.603 203.138 318.603C204.656 318.603 205.761 317.521 205.761 316.01C205.761 314.5 204.656 313.418 203.138 313.418C201.628 313.418 200.523 314.5 200.523 316.01ZM204.664 316.01C204.664 316.942 204.063 317.656 203.138 317.656C202.214 317.656 201.62 316.942 201.62 316.01C201.62 315.071 202.214 314.365 203.138 314.365C204.063 314.365 204.664 315.071 204.664 316.01Z" fill="#855B35"/>
<path d="M89.7774 243.113H90.5514L92.573 238.1H91.8591L90.1682 242.429L88.4773 238.1H87.7633L89.7774 243.113ZM94.9984 243.113H95.562V240.618C95.562 239.739 94.9232 239.393 94.1567 239.393C93.563 239.393 93.097 239.588 92.7062 239.994L92.9693 240.385C93.2924 240.039 93.6456 239.881 94.0815 239.881C94.6076 239.881 94.9984 240.159 94.9984 240.648V241.302C94.7053 240.963 94.2919 240.806 93.7959 240.806C93.1797 240.806 92.5259 241.189 92.5259 242.001C92.5259 242.79 93.1797 243.203 93.7959 243.203C94.2844 243.203 94.6978 243.03 94.9984 242.699V243.113ZM94.9984 242.346C94.7804 242.647 94.3972 242.797 93.9988 242.797C93.4728 242.797 93.1045 242.467 93.1045 242.008C93.1045 241.542 93.4728 241.211 93.9988 241.211C94.3972 241.211 94.7804 241.362 94.9984 241.662V242.346ZM96.6919 243.113H97.2555V238.1H96.6919V243.113ZM99.9655 243.203C101.07 243.203 101.762 242.346 101.762 241.294C101.762 240.242 101.07 239.393 99.9655 239.393C98.8608 239.393 98.1694 240.242 98.1694 241.294C98.1694 242.346 98.8608 243.203 99.9655 243.203ZM99.9655 242.699C99.1915 242.699 98.7556 242.038 98.7556 241.294C98.7556 240.558 99.1915 239.896 99.9655 239.896C100.74 239.896 101.168 240.558 101.168 241.294C101.168 242.038 100.74 242.699 99.9655 242.699ZM102.681 243.113H103.244V240.543C103.409 240.25 103.883 239.964 104.229 239.964C104.319 239.964 104.386 239.971 104.454 239.987V239.408C103.958 239.408 103.537 239.686 103.244 240.069V239.483H102.681V243.113ZM88.2819 259.113H90.5665C91.4833 259.113 92.0169 258.564 92.0169 257.76C92.0169 257.159 91.5735 256.61 91.0399 256.528C91.4984 256.43 91.9192 256.009 91.9192 255.378C91.9192 254.626 91.3856 254.1 90.5139 254.1H88.2819V259.113ZM88.9056 256.272V254.656H90.4087C90.9723 254.656 91.2729 255.017 91.2729 255.468C91.2729 255.926 90.9723 256.272 90.4087 256.272H88.9056ZM88.9056 258.557V256.828H90.4387C91.055 256.828 91.3706 257.234 91.3706 257.692C91.3706 258.226 91.0249 258.557 90.4387 258.557H88.9056ZM95.2552 259.113H95.8189V256.618C95.8189 255.739 95.1801 255.393 94.4135 255.393C93.8198 255.393 93.3539 255.588 92.9631 255.994L93.2261 256.385C93.5493 256.039 93.9025 255.881 94.3384 255.881C94.8644 255.881 95.2552 256.159 95.2552 256.648V257.302C94.9621 256.963 94.5488 256.806 94.0528 256.806C93.4366 256.806 92.7827 257.189 92.7827 258.001C92.7827 258.79 93.4366 259.203 94.0528 259.203C94.5413 259.203 94.9546 259.03 95.2552 258.699V259.113ZM95.2552 258.346C95.0373 258.647 94.654 258.797 94.2557 258.797C93.7297 258.797 93.3614 258.467 93.3614 258.008C93.3614 257.542 93.7297 257.211 94.2557 257.211C94.654 257.211 95.0373 257.362 95.2552 257.662V258.346ZM99.3987 259.113H99.9623V256.565C99.9623 255.776 99.564 255.393 98.805 255.393C98.2639 255.393 97.7679 255.708 97.5124 256.009V255.483H96.9487V259.113H97.5124V256.46C97.7228 256.167 98.1436 255.896 98.587 255.896C99.0755 255.896 99.3987 256.099 99.3987 256.738V259.113ZM100.878 257.294C100.878 258.376 101.606 259.203 102.689 259.203C103.35 259.203 103.741 258.932 104.019 258.572L103.643 258.226C103.403 258.549 103.094 258.699 102.719 258.699C101.945 258.699 101.464 258.098 101.464 257.294C101.464 256.49 101.945 255.896 102.719 255.896C103.094 255.896 103.403 256.039 103.643 256.37L104.019 256.024C103.741 255.663 103.35 255.393 102.689 255.393C101.606 255.393 100.878 256.219 100.878 257.294ZM106.395 259.203C107.499 259.203 108.191 258.346 108.191 257.294C108.191 256.242 107.499 255.393 106.395 255.393C105.29 255.393 104.598 256.242 104.598 257.294C104.598 258.346 105.29 259.203 106.395 259.203ZM106.395 258.699C105.62 258.699 105.185 258.038 105.185 257.294C105.185 256.558 105.62 255.896 106.395 255.896C107.169 255.896 107.597 256.558 107.597 257.294C107.597 258.038 107.169 258.699 106.395 258.699ZM108.997 255.844C108.997 256.069 109.185 256.257 109.41 256.257C109.636 256.257 109.823 256.069 109.823 255.844C109.823 255.618 109.636 255.43 109.41 255.43C109.185 255.43 108.997 255.618 108.997 255.844ZM108.997 258.775C108.997 259 109.185 259.188 109.41 259.188C109.636 259.188 109.823 259 109.823 258.775C109.823 258.549 109.636 258.361 109.41 258.361C109.185 258.361 108.997 258.549 108.997 258.775ZM91.8816 275.113H92.573L90.5514 270.1H89.7774L87.7633 275.113H88.4547L88.8981 274.001H91.4382L91.8816 275.113ZM90.1682 270.656L91.2504 273.444H89.0785L90.1682 270.656ZM93.1983 276.045C93.6267 276.466 94.0475 276.586 94.6638 276.586C95.5506 276.586 96.3923 276.21 96.3923 275.008V271.483H95.8286V272.032C95.5355 271.633 95.0996 271.393 94.6112 271.393C93.6567 271.393 92.9954 272.114 92.9954 273.279C92.9954 274.451 93.6642 275.158 94.6112 275.158C95.1222 275.158 95.5656 274.88 95.8286 274.512V275.03C95.8286 275.827 95.265 276.12 94.6638 276.12C94.1452 276.12 93.7845 275.985 93.4839 275.624L93.1983 276.045ZM95.8286 274.068C95.6332 274.384 95.1973 274.662 94.7464 274.662C94.0175 274.662 93.5816 274.076 93.5816 273.279C93.5816 272.475 94.0175 271.896 94.7464 271.896C95.1973 271.896 95.6332 272.167 95.8286 272.483V274.068ZM99.7156 270.934H100.099L99.3624 269.852H98.8213L98.1074 270.934H98.4906L99.0918 270.138L99.7156 270.934ZM97.3107 273.294C97.3107 274.429 98.0848 275.203 99.1595 275.203C99.7532 275.203 100.242 275.008 100.602 274.647L100.332 274.279C100.046 274.572 99.6254 274.737 99.2121 274.737C98.4305 274.737 97.9495 274.166 97.9044 273.482H100.843V273.339C100.843 272.25 100.197 271.393 99.0994 271.393C98.0623 271.393 97.3107 272.242 97.3107 273.294ZM99.0918 271.859C99.9185 271.859 100.279 272.528 100.287 273.069H97.9044C97.9345 272.513 98.3178 271.859 99.0918 271.859ZM104.206 275.113H104.769V272.565C104.769 271.776 104.371 271.393 103.612 271.393C103.071 271.393 102.575 271.708 102.319 272.009V271.483H101.756V275.113H102.319V272.46C102.53 272.167 102.951 271.896 103.394 271.896C103.883 271.896 104.206 272.099 104.206 272.738V275.113ZM105.685 273.294C105.685 274.376 106.414 275.203 107.496 275.203C108.157 275.203 108.548 274.932 108.826 274.572L108.45 274.226C108.21 274.549 107.902 274.699 107.526 274.699C106.752 274.699 106.271 274.098 106.271 273.294C106.271 272.49 106.752 271.896 107.526 271.896C107.902 271.896 108.21 272.039 108.45 272.37L108.826 272.024C108.548 271.663 108.157 271.393 107.496 271.393C106.414 271.393 105.685 272.219 105.685 273.294ZM109.894 270.874C110.104 270.874 110.277 270.701 110.277 270.491C110.277 270.281 110.104 270.115 109.894 270.115C109.691 270.115 109.518 270.281 109.518 270.491C109.518 270.701 109.691 270.874 109.894 270.874ZM109.616 275.113H110.18V271.483H109.616V275.113ZM113.573 275.113H114.137V272.618C114.137 271.739 113.498 271.393 112.732 271.393C112.138 271.393 111.672 271.588 111.281 271.994L111.544 272.385C111.868 272.039 112.221 271.881 112.657 271.881C113.183 271.881 113.573 272.159 113.573 272.648V273.302C113.28 272.963 112.867 272.806 112.371 272.806C111.755 272.806 111.101 273.189 111.101 274.001C111.101 274.79 111.755 275.203 112.371 275.203C112.86 275.203 113.273 275.03 113.573 274.699V275.113ZM113.573 274.346C113.356 274.647 112.972 274.797 112.574 274.797C112.048 274.797 111.68 274.467 111.68 274.008C111.68 273.542 112.048 273.211 112.574 273.211C112.972 273.211 113.356 273.362 113.573 273.662V274.346ZM115.154 271.844C115.154 272.069 115.342 272.257 115.568 272.257C115.793 272.257 115.981 272.069 115.981 271.844C115.981 271.618 115.793 271.43 115.568 271.43C115.342 271.43 115.154 271.618 115.154 271.844ZM115.154 274.775C115.154 275 115.342 275.188 115.568 275.188C115.793 275.188 115.981 275 115.981 274.775C115.981 274.549 115.793 274.361 115.568 274.361C115.342 274.361 115.154 274.549 115.154 274.775Z" fill="#855B35"/>
<path d="M91.0097 344.282C91.9191 344.282 92.5203 343.861 92.9411 343.29L92.4075 342.997C92.122 343.425 91.6034 343.726 91.0097 343.726C89.9351 343.726 89.1009 342.877 89.1009 341.689C89.1009 340.494 89.9351 339.653 91.0097 339.653C91.6034 339.653 92.122 339.961 92.4075 340.382L92.9336 340.088C92.5353 339.525 91.9191 339.096 91.0097 339.096C89.5894 339.096 88.4546 340.149 88.4546 341.689C88.4546 343.23 89.5894 344.282 91.0097 344.282ZM93.7361 344.192H94.3598V342.2H95.7501C96.7421 342.2 97.3208 341.509 97.3208 340.69C97.3208 339.871 96.7572 339.179 95.7501 339.179H93.7361V344.192ZM96.6745 340.69C96.6745 341.253 96.2687 341.644 95.675 341.644H94.3598V339.735H95.675C96.2687 339.735 96.6745 340.126 96.6745 340.69ZM98.1468 344.192H98.7706V341.907H101.378V341.351H98.7706V339.735H101.431V339.179H98.1468V344.192ZM102.143 340.923C102.143 341.148 102.331 341.336 102.557 341.336C102.782 341.336 102.97 341.148 102.97 340.923C102.97 340.697 102.782 340.509 102.557 340.509C102.331 340.509 102.143 340.697 102.143 340.923ZM102.143 343.854C102.143 344.079 102.331 344.267 102.557 344.267C102.782 344.267 102.97 344.079 102.97 343.854C102.97 343.628 102.782 343.44 102.557 343.44C102.331 343.44 102.143 343.628 102.143 343.854ZM88.6575 360.192H90.9421C91.8589 360.192 92.3925 359.643 92.3925 358.839C92.3925 358.238 91.9491 357.689 91.4155 357.607C91.874 357.509 92.2948 357.088 92.2948 356.457C92.2948 355.705 91.7612 355.179 90.8895 355.179H88.6575V360.192ZM89.2812 357.351V355.735H90.7843C91.3479 355.735 91.6485 356.096 91.6485 356.547C91.6485 357.005 91.3479 357.351 90.7843 357.351H89.2812ZM89.2812 359.636V357.907H90.8143C91.4306 357.907 91.7462 358.313 91.7462 358.771C91.7462 359.305 91.4005 359.636 90.8143 359.636H89.2812ZM95.6308 360.192H96.1945V357.697C96.1945 356.817 95.5557 356.472 94.7891 356.472C94.1954 356.472 93.7295 356.667 93.3387 357.073L93.6017 357.464C93.9249 357.118 94.2781 356.96 94.714 356.96C95.2401 356.96 95.6308 357.238 95.6308 357.727V358.381C95.3378 358.042 94.9244 357.885 94.4284 357.885C93.8122 357.885 93.1584 358.268 93.1584 359.079C93.1584 359.869 93.8122 360.282 94.4284 360.282C94.9169 360.282 95.3302 360.109 95.6308 359.778V360.192ZM95.6308 359.425C95.4129 359.726 95.0296 359.876 94.6313 359.876C94.1053 359.876 93.737 359.545 93.737 359.087C93.737 358.621 94.1053 358.29 94.6313 358.29C95.0296 358.29 95.4129 358.441 95.6308 358.741V359.425ZM99.7743 360.192H100.338V357.644C100.338 356.855 99.9396 356.472 99.1806 356.472C98.6395 356.472 98.1435 356.787 97.888 357.088V356.562H97.3243V360.192H97.888V357.539C98.0984 357.246 98.5192 356.975 98.9626 356.975C99.4511 356.975 99.7743 357.178 99.7743 357.817V360.192ZM101.253 358.373C101.253 359.455 101.982 360.282 103.064 360.282C103.726 360.282 104.116 360.011 104.394 359.651L104.019 359.305C103.778 359.628 103.47 359.778 103.094 359.778C102.32 359.778 101.839 359.177 101.839 358.373C101.839 357.569 102.32 356.975 103.094 356.975C103.47 356.975 103.778 357.118 104.019 357.449L104.394 357.103C104.116 356.742 103.726 356.472 103.064 356.472C101.982 356.472 101.253 357.298 101.253 358.373ZM106.77 360.282C107.875 360.282 108.566 359.425 108.566 358.373C108.566 357.321 107.875 356.472 106.77 356.472C105.665 356.472 104.974 357.321 104.974 358.373C104.974 359.425 105.665 360.282 106.77 360.282ZM106.77 359.778C105.996 359.778 105.56 359.117 105.56 358.373C105.56 357.637 105.996 356.975 106.77 356.975C107.544 356.975 107.973 357.637 107.973 358.373C107.973 359.117 107.544 359.778 106.77 359.778ZM109.372 356.923C109.372 357.148 109.56 357.336 109.786 357.336C110.011 357.336 110.199 357.148 110.199 356.923C110.199 356.697 110.011 356.509 109.786 356.509C109.56 356.509 109.372 356.697 109.372 356.923ZM109.372 359.854C109.372 360.079 109.56 360.267 109.786 360.267C110.011 360.267 110.199 360.079 110.199 359.854C110.199 359.628 110.011 359.44 109.786 359.44C109.56 359.44 109.372 359.628 109.372 359.854ZM92.2572 376.192H92.9486L90.9271 371.179H90.153L88.1389 376.192H88.8303L89.2737 375.079H91.8138L92.2572 376.192ZM90.5438 371.735L91.626 374.523H89.4541L90.5438 371.735ZM93.5739 377.124C94.0023 377.544 94.4231 377.665 95.0394 377.665C95.9262 377.665 96.7679 377.289 96.7679 376.087V372.562H96.2042V373.111C95.9111 372.712 95.4753 372.472 94.9868 372.472C94.0323 372.472 93.371 373.193 93.371 374.358C93.371 375.53 94.0399 376.237 94.9868 376.237C95.4978 376.237 95.9412 375.959 96.2042 375.591V376.109C96.2042 376.906 95.6406 377.199 95.0394 377.199C94.5208 377.199 94.1601 377.064 93.8595 376.703L93.5739 377.124ZM96.2042 375.147C96.0088 375.463 95.573 375.741 95.122 375.741C94.3931 375.741 93.9572 375.155 93.9572 374.358C93.9572 373.554 94.3931 372.975 95.122 372.975C95.573 372.975 96.0088 373.246 96.2042 373.561V375.147ZM100.091 372.013H100.474L99.738 370.931H99.1969L98.483 372.013H98.8662L99.4675 371.217L100.091 372.013ZM97.6864 374.373C97.6864 375.508 98.4604 376.282 99.5351 376.282C100.129 376.282 100.617 376.087 100.978 375.726L100.707 375.358C100.422 375.651 100.001 375.816 99.5877 375.816C98.8061 375.816 98.3251 375.245 98.2801 374.561H101.218V374.418C101.218 373.328 100.572 372.472 99.475 372.472C98.4379 372.472 97.6864 373.321 97.6864 374.373ZM99.4675 372.938C100.294 372.938 100.655 373.607 100.662 374.148H98.2801C98.3101 373.591 98.6934 372.938 99.4675 372.938ZM104.581 376.192H105.145V373.644C105.145 372.855 104.747 372.472 103.988 372.472C103.447 372.472 102.951 372.787 102.695 373.088V372.562H102.131V376.192H102.695V373.539C102.905 373.246 103.326 372.975 103.77 372.975C104.258 372.975 104.581 373.178 104.581 373.817V376.192ZM106.06 374.373C106.06 375.455 106.789 376.282 107.871 376.282C108.533 376.282 108.923 376.011 109.202 375.651L108.826 375.305C108.585 375.628 108.277 375.778 107.901 375.778C107.127 375.778 106.646 375.177 106.646 374.373C106.646 373.569 107.127 372.975 107.901 372.975C108.277 372.975 108.585 373.118 108.826 373.449L109.202 373.103C108.923 372.742 108.533 372.472 107.871 372.472C106.789 372.472 106.06 373.298 106.06 374.373ZM110.27 371.953C110.48 371.953 110.653 371.78 110.653 371.57C110.653 371.359 110.48 371.194 110.27 371.194C110.067 371.194 109.894 371.359 109.894 371.57C109.894 371.78 110.067 371.953 110.27 371.953ZM109.992 376.192H110.555V372.562H109.992V376.192ZM113.949 376.192H114.513V373.697C114.513 372.817 113.874 372.472 113.107 372.472C112.514 372.472 112.048 372.667 111.657 373.073L111.92 373.464C112.243 373.118 112.596 372.96 113.032 372.96C113.558 372.96 113.949 373.238 113.949 373.727V374.381C113.656 374.042 113.243 373.885 112.747 373.885C112.13 373.885 111.477 374.268 111.477 375.079C111.477 375.869 112.13 376.282 112.747 376.282C113.235 376.282 113.648 376.109 113.949 375.778V376.192ZM113.949 375.425C113.731 375.726 113.348 375.876 112.95 375.876C112.423 375.876 112.055 375.545 112.055 375.087C112.055 374.621 112.423 374.29 112.95 374.29C113.348 374.29 113.731 374.441 113.949 374.741V375.425ZM115.53 372.923C115.53 373.148 115.718 373.336 115.943 373.336C116.169 373.336 116.356 373.148 116.356 372.923C116.356 372.697 116.169 372.509 115.943 372.509C115.718 372.509 115.53 372.697 115.53 372.923ZM115.53 375.854C115.53 376.079 115.718 376.267 115.943 376.267C116.169 376.267 116.356 376.079 116.356 375.854C116.356 375.628 116.169 375.44 115.943 375.44C115.718 375.44 115.53 375.628 115.53 375.854Z" fill="#855B35"/>
<path d="M132.095 243.113H132.967L131.682 241.106C132.321 241.024 132.929 240.543 132.929 239.641C132.929 238.716 132.276 238.1 131.321 238.1H129.209V243.113H129.961V241.181H130.9L132.095 243.113ZM132.155 239.641C132.155 240.167 131.765 240.52 131.224 240.52H129.961V238.762H131.224C131.765 238.762 132.155 239.115 132.155 239.641ZM137.462 241.692C137.462 240.693 136.636 240.407 135.854 240.197V238.731C136.252 238.799 136.621 238.979 136.906 239.28L137.35 238.724C136.974 238.341 136.478 238.1 135.854 238.04V237.341H135.321V238.033C134.389 238.1 133.75 238.679 133.75 239.453C133.75 240.4 134.554 240.678 135.321 240.873V242.512C134.757 242.444 134.313 242.151 134.02 241.828L133.592 242.406C133.975 242.835 134.546 243.143 135.321 243.195V243.864H135.854V243.188C136.996 243.098 137.462 242.414 137.462 241.692ZM134.524 239.4C134.524 239.01 134.84 238.739 135.321 238.701V240.054C134.87 239.926 134.524 239.761 134.524 239.4ZM135.854 242.512V241.016C136.328 241.159 136.696 241.332 136.696 241.76C136.696 242.076 136.47 242.444 135.854 242.512ZM139.931 242.384C140.254 242.835 140.9 243.203 141.772 243.203C142.907 243.203 143.606 242.594 143.606 241.753C143.606 240.963 142.914 240.573 142.441 240.528C142.937 240.437 143.53 240.069 143.53 239.37C143.53 238.529 142.794 238.025 141.772 238.025C140.968 238.025 140.374 238.363 139.998 238.807L140.397 239.273C140.765 238.897 141.178 238.694 141.704 238.694C142.298 238.694 142.779 238.964 142.779 239.475C142.779 239.994 142.283 240.219 141.674 240.219C141.479 240.219 141.216 240.219 141.133 240.212V240.896C141.208 240.888 141.471 240.888 141.674 240.888C142.403 240.888 142.854 241.121 142.854 241.677C142.854 242.203 142.441 242.534 141.749 242.534C141.186 242.534 140.667 242.279 140.351 241.895L139.931 242.384ZM144.405 242.722C144.405 242.978 144.616 243.195 144.871 243.195C145.127 243.195 145.345 242.978 145.345 242.722C145.345 242.467 145.127 242.256 144.871 242.256C144.616 242.256 144.405 242.467 144.405 242.722ZM146.166 243.113H149.698V242.451H147.361C148.736 241.392 149.676 240.513 149.676 239.536C149.676 238.536 148.826 238.025 147.925 238.025C147.226 238.025 146.542 238.303 146.128 238.822L146.572 239.31C146.88 238.942 147.338 238.694 147.932 238.694C148.421 238.694 148.909 238.949 148.909 239.536C148.909 240.325 148.045 241.076 146.166 242.519V243.113ZM150.561 240.61C150.561 241.85 151.132 243.203 152.523 243.203C153.913 243.203 154.484 241.85 154.484 240.61C154.484 239.37 153.913 238.025 152.523 238.025C151.132 238.025 150.561 239.37 150.561 240.61ZM153.717 240.61C153.717 241.587 153.409 242.534 152.523 242.534C151.636 242.534 151.328 241.587 151.328 240.61C151.328 239.633 151.636 238.694 152.523 238.694C153.409 238.694 153.717 239.633 153.717 240.61ZM155.177 240.61C155.177 241.85 155.748 243.203 157.139 243.203C158.529 243.203 159.1 241.85 159.1 240.61C159.1 239.37 158.529 238.025 157.139 238.025C155.748 238.025 155.177 239.37 155.177 240.61ZM158.334 240.61C158.334 241.587 158.026 242.534 157.139 242.534C156.252 242.534 155.944 241.587 155.944 240.61C155.944 239.633 156.252 238.694 157.139 238.694C158.026 238.694 158.334 239.633 158.334 240.61ZM159.979 244.09C160.362 243.819 160.64 243.368 160.64 242.88C160.64 242.482 160.392 242.256 160.114 242.256C159.859 242.256 159.656 242.459 159.656 242.715C159.656 242.963 159.829 243.143 160.062 243.143C160.099 243.143 160.159 243.128 160.174 243.128C160.137 243.376 159.904 243.676 159.663 243.827L159.979 244.09ZM161.371 240.61C161.371 241.85 161.943 243.203 163.333 243.203C164.723 243.203 165.294 241.85 165.294 240.61C165.294 239.37 164.723 238.025 163.333 238.025C161.943 238.025 161.371 239.37 161.371 240.61ZM164.528 240.61C164.528 241.587 164.22 242.534 163.333 242.534C162.446 242.534 162.138 241.587 162.138 240.61C162.138 239.633 162.446 238.694 163.333 238.694C164.22 238.694 164.528 239.633 164.528 240.61ZM165.988 240.61C165.988 241.85 166.559 243.203 167.949 243.203C169.339 243.203 169.911 241.85 169.911 240.61C169.911 239.37 169.339 238.025 167.949 238.025C166.559 238.025 165.988 239.37 165.988 240.61ZM169.144 240.61C169.144 241.587 168.836 242.534 167.949 242.534C167.062 242.534 166.754 241.587 166.754 240.61C166.754 239.633 167.062 238.694 167.949 238.694C168.836 238.694 169.144 239.633 169.144 240.61ZM128.999 256.618C128.999 257.993 129.563 259.203 130.998 259.203C132.103 259.203 132.802 258.444 132.802 257.542C132.802 256.475 132.043 255.934 131.141 255.934C130.525 255.934 129.984 256.332 129.766 256.67C129.758 256.618 129.758 256.565 129.758 256.505C129.758 255.573 130.216 254.694 131.126 254.694C131.622 254.694 131.915 254.882 132.17 255.175L132.539 254.604C132.216 254.258 131.757 254.025 131.126 254.025C129.69 254.025 128.999 255.212 128.999 256.618ZM132.043 257.565C132.043 258.008 131.682 258.534 130.96 258.534C130.141 258.534 129.833 257.835 129.773 257.249C130.036 256.851 130.487 256.58 130.953 256.58C131.547 256.58 132.043 256.896 132.043 257.565ZM133.589 258.414C133.979 258.902 134.55 259.203 135.407 259.203C136.467 259.203 137.248 258.557 137.248 257.527C137.248 256.498 136.489 255.919 135.648 255.919C135.159 255.919 134.738 256.122 134.498 256.362V254.762H136.918V254.1H133.746V256.851L134.287 257.024C134.618 256.708 134.979 256.573 135.415 256.573C136.061 256.573 136.489 256.956 136.489 257.557C136.489 258.106 136.054 258.534 135.4 258.534C134.814 258.534 134.363 258.309 134.032 257.903L133.589 258.414ZM138.058 258.414C138.449 258.902 139.02 259.203 139.877 259.203C140.936 259.203 141.718 258.557 141.718 257.527C141.718 256.498 140.959 255.919 140.117 255.919C139.629 255.919 139.208 256.122 138.967 256.362V254.762H141.387V254.1H138.216V256.851L138.757 257.024C139.088 256.708 139.448 256.573 139.884 256.573C140.531 256.573 140.959 256.956 140.959 257.557C140.959 258.106 140.523 258.534 139.869 258.534C139.283 258.534 138.832 258.309 138.501 257.903L138.058 258.414ZM146.17 257.587H147.973V257.001H146.17V257.587ZM150.691 259.113H153.103C154.028 259.113 154.554 258.549 154.554 257.76C154.554 257.151 154.118 256.61 153.584 256.528C154.043 256.43 154.456 256.009 154.456 255.378C154.456 254.649 153.937 254.1 153.043 254.1H150.691V259.113ZM151.442 256.227V254.762H152.9C153.404 254.762 153.682 255.085 153.682 255.498C153.682 255.911 153.404 256.227 152.9 256.227H151.442ZM151.442 258.451V256.888H152.938C153.494 256.888 153.78 257.249 153.78 257.662C153.78 258.151 153.464 258.451 152.938 258.451H151.442ZM157.708 259.113H158.384V256.663C158.384 255.739 157.715 255.393 156.926 255.393C156.34 255.393 155.844 255.588 155.438 255.987L155.731 256.452C156.054 256.129 156.408 255.971 156.821 255.971C157.339 255.971 157.708 256.242 157.708 256.693V257.294C157.43 256.971 157.009 256.813 156.52 256.813C155.912 256.813 155.258 257.174 155.258 258.001C155.258 258.797 155.919 259.203 156.52 259.203C157.009 259.203 157.422 259.03 157.708 258.715V259.113ZM157.708 258.316C157.505 258.587 157.152 258.73 156.776 258.73C156.287 258.73 155.942 258.436 155.942 258.008C155.942 257.58 156.287 257.287 156.776 257.287C157.152 257.287 157.505 257.429 157.708 257.7V258.316ZM161.918 259.113H162.594V256.565C162.594 255.799 162.196 255.393 161.429 255.393C160.866 255.393 160.385 255.701 160.144 255.994V255.483H159.468V259.113H160.144V256.52C160.34 256.25 160.723 255.994 161.144 255.994C161.61 255.994 161.918 256.189 161.918 256.791V259.113ZM163.44 257.294C163.44 258.384 164.192 259.203 165.289 259.203C165.973 259.203 166.386 258.917 166.649 258.564L166.198 258.151C165.981 258.451 165.687 258.602 165.319 258.602C164.605 258.602 164.147 258.046 164.147 257.294C164.147 256.543 164.605 255.994 165.319 255.994C165.687 255.994 165.981 256.137 166.198 256.445L166.649 256.032C166.386 255.678 165.973 255.393 165.289 255.393C164.192 255.393 163.44 256.204 163.44 257.294ZM169.002 259.203C170.137 259.203 170.836 258.346 170.836 257.294C170.836 256.25 170.137 255.393 169.002 255.393C167.875 255.393 167.169 256.25 167.169 257.294C167.169 258.346 167.875 259.203 169.002 259.203ZM169.002 258.602C168.281 258.602 167.875 257.986 167.875 257.294C167.875 256.61 168.281 255.994 169.002 255.994C169.731 255.994 170.13 256.61 170.13 257.294C170.13 257.986 169.731 258.602 169.002 258.602ZM175.12 259.113H176.06L178.051 254.1H177.194L175.586 258.294L173.985 254.1H173.129L175.12 259.113ZM179.798 259.203C180.933 259.203 181.632 258.346 181.632 257.294C181.632 256.25 180.933 255.393 179.798 255.393C178.671 255.393 177.964 256.25 177.964 257.294C177.964 258.346 178.671 259.203 179.798 259.203ZM179.798 258.602C179.077 258.602 178.671 257.986 178.671 257.294C178.671 256.61 179.077 255.994 179.798 255.994C180.527 255.994 180.925 256.61 180.925 257.294C180.925 257.986 180.527 258.602 179.798 258.602ZM183.49 259.203C183.843 259.203 184.054 259.105 184.196 258.97L184.024 258.459C183.956 258.534 183.813 258.602 183.655 258.602C183.422 258.602 183.302 258.414 183.302 258.158V256.077H184.039V255.483H183.302V254.491H182.626V255.483H182.025V256.077H182.626V258.309C182.626 258.88 182.919 259.203 183.49 259.203ZM186.396 259.203C187.531 259.203 188.23 258.346 188.23 257.294C188.23 256.25 187.531 255.393 186.396 255.393C185.269 255.393 184.562 256.25 184.562 257.294C184.562 258.346 185.269 259.203 186.396 259.203ZM186.396 258.602C185.674 258.602 185.269 257.986 185.269 257.294C185.269 256.61 185.674 255.994 186.396 255.994C187.125 255.994 187.523 256.61 187.523 257.294C187.523 257.986 187.125 258.602 186.396 258.602ZM189.088 259.113H189.765V256.588C189.922 256.317 190.381 256.062 190.719 256.062C190.809 256.062 190.884 256.069 190.952 256.084V255.4C190.471 255.4 190.043 255.678 189.765 256.039V255.483H189.088V259.113ZM193.867 259.113H194.543V256.663C194.543 255.739 193.875 255.393 193.085 255.393C192.499 255.393 192.003 255.588 191.597 255.987L191.891 256.452C192.214 256.129 192.567 255.971 192.98 255.971C193.499 255.971 193.867 256.242 193.867 256.693V257.294C193.589 256.971 193.168 256.813 192.68 256.813C192.071 256.813 191.417 257.174 191.417 258.001C191.417 258.797 192.078 259.203 192.68 259.203C193.168 259.203 193.581 259.03 193.867 258.715V259.113ZM193.867 258.316C193.664 258.587 193.311 258.73 192.935 258.73C192.447 258.73 192.101 258.436 192.101 258.008C192.101 257.58 192.447 257.287 192.935 257.287C193.311 257.287 193.664 257.429 193.867 257.7V258.316ZM198.077 259.113H198.754V256.565C198.754 255.799 198.355 255.393 197.589 255.393C197.025 255.393 196.544 255.701 196.304 255.994V255.483H195.627V259.113H196.304V256.52C196.499 256.25 196.882 255.994 197.303 255.994C197.769 255.994 198.077 256.189 198.077 256.791V259.113ZM200.825 259.203C201.178 259.203 201.388 259.105 201.531 258.97L201.358 258.459C201.291 258.534 201.148 258.602 200.99 258.602C200.757 258.602 200.637 258.414 200.637 258.158V256.077H201.373V255.483H200.637V254.491H199.961V255.483H199.359V256.077H199.961V258.309C199.961 258.88 200.254 259.203 200.825 259.203ZM202.453 254.874C202.694 254.874 202.889 254.686 202.889 254.446C202.889 254.205 202.694 254.01 202.453 254.01C202.22 254.01 202.017 254.205 202.017 254.446C202.017 254.686 202.22 254.874 202.453 254.874ZM202.122 259.113H202.799V255.483H202.122V259.113ZM208.288 259.113H208.964V256.49C208.964 255.761 208.603 255.393 207.935 255.393C207.401 255.393 206.92 255.731 206.71 256.069C206.597 255.678 206.274 255.393 205.725 255.393C205.184 255.393 204.703 255.769 204.553 255.994V255.483H203.876V259.113H204.553V256.52C204.733 256.257 205.086 255.994 205.44 255.994C205.898 255.994 206.078 256.272 206.078 256.693V259.113H206.755V256.513C206.928 256.25 207.288 255.994 207.657 255.994C208.1 255.994 208.288 256.272 208.288 256.693V259.113ZM131.569 275.203C132.554 275.203 133.162 274.73 133.561 274.143L132.922 273.805C132.659 274.226 132.163 274.534 131.569 274.534C130.555 274.534 129.773 273.73 129.773 272.61C129.773 271.483 130.555 270.686 131.569 270.686C132.163 270.686 132.659 270.995 132.922 271.415L133.561 271.077C133.17 270.491 132.554 270.018 131.569 270.018C130.141 270.018 128.999 271.07 128.999 272.61C128.999 274.151 130.141 275.203 131.569 275.203ZM135.903 275.203C137.038 275.203 137.737 274.346 137.737 273.294C137.737 272.25 137.038 271.393 135.903 271.393C134.776 271.393 134.07 272.25 134.07 273.294C134.07 274.346 134.776 275.203 135.903 275.203ZM135.903 274.602C135.182 274.602 134.776 273.986 134.776 273.294C134.776 272.61 135.182 271.994 135.903 271.994C136.632 271.994 137.031 272.61 137.031 273.294C137.031 273.986 136.632 274.602 135.903 274.602ZM141.046 275.113H141.722V272.565C141.722 271.799 141.324 271.393 140.557 271.393C139.994 271.393 139.513 271.701 139.272 271.994V271.483H138.596V275.113H139.272V272.52C139.467 272.25 139.851 271.994 140.272 271.994C140.738 271.994 141.046 272.189 141.046 272.791V275.113ZM143.793 275.203C144.146 275.203 144.357 275.105 144.5 274.97L144.327 274.459C144.259 274.534 144.116 274.602 143.958 274.602C143.726 274.602 143.605 274.414 143.605 274.158V272.077H144.342V271.483H143.605V270.491H142.929V271.483H142.328V272.077H142.929V274.309C142.929 274.88 143.222 275.203 143.793 275.203ZM147.33 275.113H148.007V272.663C148.007 271.739 147.338 271.393 146.549 271.393C145.963 271.393 145.467 271.588 145.061 271.987L145.354 272.452C145.677 272.129 146.03 271.971 146.443 271.971C146.962 271.971 147.33 272.242 147.33 272.693V273.294C147.052 272.971 146.631 272.813 146.143 272.813C145.534 272.813 144.88 273.174 144.88 274.001C144.88 274.797 145.542 275.203 146.143 275.203C146.631 275.203 147.045 275.03 147.33 274.715V275.113ZM147.33 274.316C147.127 274.587 146.774 274.73 146.398 274.73C145.91 274.73 145.564 274.436 145.564 274.008C145.564 273.58 145.91 273.287 146.398 273.287C146.774 273.287 147.127 273.429 147.33 273.7V274.316ZM148.97 271.904C148.97 272.152 149.181 272.37 149.436 272.37C149.692 272.37 149.91 272.152 149.91 271.904C149.91 271.648 149.692 271.43 149.436 271.43C149.181 271.43 148.97 271.648 148.97 271.904ZM148.97 274.722C148.97 274.978 149.181 275.195 149.436 275.195C149.692 275.195 149.91 274.978 149.91 274.722C149.91 274.467 149.692 274.256 149.436 274.256C149.181 274.256 148.97 274.467 148.97 274.722ZM152.623 272.61C152.623 273.85 153.195 275.203 154.585 275.203C155.975 275.203 156.546 273.85 156.546 272.61C156.546 271.37 155.975 270.025 154.585 270.025C153.195 270.025 152.623 271.37 152.623 272.61ZM155.78 272.61C155.78 273.587 155.472 274.534 154.585 274.534C153.698 274.534 153.39 273.587 153.39 272.61C153.39 271.633 153.698 270.694 154.585 270.694C155.472 270.694 155.78 271.633 155.78 272.61ZM157.24 272.61C157.24 273.85 157.811 275.203 159.201 275.203C160.591 275.203 161.163 273.85 161.163 272.61C161.163 271.37 160.591 270.025 159.201 270.025C157.811 270.025 157.24 271.37 157.24 272.61ZM160.396 272.61C160.396 273.587 160.088 274.534 159.201 274.534C158.314 274.534 158.006 273.587 158.006 272.61C158.006 271.633 158.314 270.694 159.201 270.694C160.088 270.694 160.396 271.633 160.396 272.61ZM161.856 272.61C161.856 273.85 162.427 275.203 163.817 275.203C165.208 275.203 165.779 273.85 165.779 272.61C165.779 271.37 165.208 270.025 163.817 270.025C162.427 270.025 161.856 271.37 161.856 272.61ZM165.012 272.61C165.012 273.587 164.704 274.534 163.817 274.534C162.931 274.534 162.622 273.587 162.622 272.61C162.622 271.633 162.931 270.694 163.817 270.694C164.704 270.694 165.012 271.633 165.012 272.61ZM166.472 272.61C166.472 273.85 167.043 275.203 168.434 275.203C169.824 275.203 170.395 273.85 170.395 272.61C170.395 271.37 169.824 270.025 168.434 270.025C167.043 270.025 166.472 271.37 166.472 272.61ZM169.628 272.61C169.628 273.587 169.32 274.534 168.434 274.534C167.547 274.534 167.239 273.587 167.239 272.61C167.239 271.633 167.547 270.694 168.434 270.694C169.32 270.694 169.628 271.633 169.628 272.61ZM171.088 272.61C171.088 273.85 171.66 275.203 173.05 275.203C174.44 275.203 175.011 273.85 175.011 272.61C175.011 271.37 174.44 270.025 173.05 270.025C171.66 270.025 171.088 271.37 171.088 272.61ZM174.245 272.61C174.245 273.587 173.937 274.534 173.05 274.534C172.163 274.534 171.855 273.587 171.855 272.61C171.855 271.633 172.163 270.694 173.05 270.694C173.937 270.694 174.245 271.633 174.245 272.61ZM175.584 273.587H177.388V273.001H175.584V273.587ZM177.958 272.61C177.958 273.85 178.529 275.203 179.919 275.203C181.309 275.203 181.881 273.85 181.881 272.61C181.881 271.37 181.309 270.025 179.919 270.025C178.529 270.025 177.958 271.37 177.958 272.61ZM181.114 272.61C181.114 273.587 180.806 274.534 179.919 274.534C179.032 274.534 178.724 273.587 178.724 272.61C178.724 271.633 179.032 270.694 179.919 270.694C180.806 270.694 181.114 271.633 181.114 272.61Z" fill="#855B35"/>
<path d="M128.999 343.192C128.999 344.432 129.57 345.785 130.96 345.785C132.351 345.785 132.922 344.432 132.922 343.192C132.922 341.952 132.351 340.607 130.96 340.607C129.57 340.607 128.999 341.952 128.999 343.192ZM132.155 343.192C132.155 344.169 131.847 345.116 130.96 345.116C130.074 345.116 129.766 344.169 129.766 343.192C129.766 342.215 130.074 341.276 130.96 341.276C131.847 341.276 132.155 342.215 132.155 343.192ZM133.615 343.192C133.615 344.432 134.186 345.785 135.577 345.785C136.967 345.785 137.538 344.432 137.538 343.192C137.538 341.952 136.967 340.607 135.577 340.607C134.186 340.607 133.615 341.952 133.615 343.192ZM136.772 343.192C136.772 344.169 136.464 345.116 135.577 345.116C134.69 345.116 134.382 344.169 134.382 343.192C134.382 342.215 134.69 341.276 135.577 341.276C136.464 341.276 136.772 342.215 136.772 343.192ZM138.094 345.304C138.094 345.56 138.304 345.777 138.56 345.777C138.815 345.777 139.033 345.56 139.033 345.304C139.033 345.049 138.815 344.838 138.56 344.838C138.304 344.838 138.094 345.049 138.094 345.304ZM139.809 343.192C139.809 344.432 140.381 345.785 141.771 345.785C143.161 345.785 143.732 344.432 143.732 343.192C143.732 341.952 143.161 340.607 141.771 340.607C140.381 340.607 139.809 341.952 139.809 343.192ZM142.966 343.192C142.966 344.169 142.658 345.116 141.771 345.116C140.884 345.116 140.576 344.169 140.576 343.192C140.576 342.215 140.884 341.276 141.771 341.276C142.658 341.276 142.966 342.215 142.966 343.192ZM144.426 343.192C144.426 344.432 144.997 345.785 146.387 345.785C147.777 345.785 148.349 344.432 148.349 343.192C148.349 341.952 147.777 340.607 146.387 340.607C144.997 340.607 144.426 341.952 144.426 343.192ZM147.582 343.192C147.582 344.169 147.274 345.116 146.387 345.116C145.5 345.116 145.192 344.169 145.192 343.192C145.192 342.215 145.5 341.276 146.387 341.276C147.274 341.276 147.582 342.215 147.582 343.192ZM149.042 343.192C149.042 344.432 149.613 345.785 151.003 345.785C152.394 345.785 152.965 344.432 152.965 343.192C152.965 341.952 152.394 340.607 151.003 340.607C149.613 340.607 149.042 341.952 149.042 343.192ZM152.198 343.192C152.198 344.169 151.89 345.116 151.003 345.116C150.117 345.116 149.808 344.169 149.808 343.192C149.808 342.215 150.117 341.276 151.003 341.276C151.89 341.276 152.198 342.215 152.198 343.192ZM153.52 345.304C153.52 345.56 153.731 345.777 153.986 345.777C154.242 345.777 154.46 345.56 154.46 345.304C154.46 345.049 154.242 344.838 153.986 344.838C153.731 344.838 153.52 345.049 153.52 345.304ZM155.236 343.192C155.236 344.432 155.807 345.785 157.198 345.785C158.588 345.785 159.159 344.432 159.159 343.192C159.159 341.952 158.588 340.607 157.198 340.607C155.807 340.607 155.236 341.952 155.236 343.192ZM158.392 343.192C158.392 344.169 158.084 345.116 157.198 345.116C156.311 345.116 156.003 344.169 156.003 343.192C156.003 342.215 156.311 341.276 157.198 341.276C158.084 341.276 158.392 342.215 158.392 343.192ZM159.852 343.192C159.852 344.432 160.423 345.785 161.814 345.785C163.204 345.785 163.775 344.432 163.775 343.192C163.775 341.952 163.204 340.607 161.814 340.607C160.423 340.607 159.852 341.952 159.852 343.192ZM163.009 343.192C163.009 344.169 162.701 345.116 161.814 345.116C160.927 345.116 160.619 344.169 160.619 343.192C160.619 342.215 160.927 341.276 161.814 341.276C162.701 341.276 163.009 342.215 163.009 343.192ZM164.469 343.192C164.469 344.432 165.04 345.785 166.43 345.785C167.82 345.785 168.391 344.432 168.391 343.192C168.391 341.952 167.82 340.607 166.43 340.607C165.04 340.607 164.469 341.952 164.469 343.192ZM167.625 343.192C167.625 344.169 167.317 345.116 166.43 345.116C165.543 345.116 165.235 344.169 165.235 343.192C165.235 342.215 165.543 341.276 166.43 341.276C167.317 341.276 167.625 342.215 167.625 343.192ZM168.739 345.845H169.258L171.039 340.532H170.52L168.739 345.845ZM171.382 343.192C171.382 344.432 171.953 345.785 173.343 345.785C174.734 345.785 175.305 344.432 175.305 343.192C175.305 341.952 174.734 340.607 173.343 340.607C171.953 340.607 171.382 341.952 171.382 343.192ZM174.538 343.192C174.538 344.169 174.23 345.116 173.343 345.116C172.457 345.116 172.148 344.169 172.148 343.192C172.148 342.215 172.457 341.276 173.343 341.276C174.23 341.276 174.538 342.215 174.538 343.192ZM175.998 343.192C175.998 344.432 176.569 345.785 177.96 345.785C179.35 345.785 179.921 344.432 179.921 343.192C179.921 341.952 179.35 340.607 177.96 340.607C176.569 340.607 175.998 341.952 175.998 343.192ZM179.155 343.192C179.155 344.169 178.846 345.116 177.96 345.116C177.073 345.116 176.765 344.169 176.765 343.192C176.765 342.215 177.073 341.276 177.96 341.276C178.846 341.276 179.155 342.215 179.155 343.192ZM180.614 343.192C180.614 344.432 181.186 345.785 182.576 345.785C183.966 345.785 184.537 344.432 184.537 343.192C184.537 341.952 183.966 340.607 182.576 340.607C181.186 340.607 180.614 341.952 180.614 343.192ZM183.771 343.192C183.771 344.169 183.463 345.116 182.576 345.116C181.689 345.116 181.381 344.169 181.381 343.192C181.381 342.215 181.689 341.276 182.576 341.276C183.463 341.276 183.771 342.215 183.771 343.192ZM186.275 345.695H187.027V340.682H186.365L185.02 342.057L185.464 342.516L186.275 341.667V345.695ZM187.811 344.169H189.615V343.583H187.811V344.169ZM190.185 343.192C190.185 344.432 190.756 345.785 192.146 345.785C193.536 345.785 194.107 344.432 194.107 343.192C194.107 341.952 193.536 340.607 192.146 340.607C190.756 340.607 190.185 341.952 190.185 343.192ZM193.341 343.192C193.341 344.169 193.033 345.116 192.146 345.116C191.259 345.116 190.951 344.169 190.951 343.192C190.951 342.215 191.259 341.276 192.146 341.276C193.033 341.276 193.341 342.215 193.341 343.192ZM194.801 343.192C194.801 344.432 195.372 345.785 196.762 345.785C198.153 345.785 198.724 344.432 198.724 343.192C198.724 341.952 198.153 340.607 196.762 340.607C195.372 340.607 194.801 341.952 194.801 343.192ZM197.957 343.192C197.957 344.169 197.649 345.116 196.762 345.116C195.875 345.116 195.567 344.169 195.567 343.192C195.567 342.215 195.875 341.276 196.762 341.276C197.649 341.276 197.957 342.215 197.957 343.192ZM128.999 359.2C128.999 360.575 129.563 361.785 130.998 361.785C132.103 361.785 132.802 361.026 132.802 360.124C132.802 359.057 132.043 358.516 131.141 358.516C130.525 358.516 129.984 358.914 129.766 359.252C129.758 359.2 129.758 359.147 129.758 359.087C129.758 358.155 130.216 357.276 131.126 357.276C131.622 357.276 131.915 357.464 132.17 357.757L132.539 357.186C132.216 356.84 131.757 356.607 131.126 356.607C129.69 356.607 128.999 357.794 128.999 359.2ZM132.043 360.147C132.043 360.59 131.682 361.116 130.96 361.116C130.141 361.116 129.833 360.417 129.773 359.831C130.036 359.433 130.487 359.162 130.953 359.162C131.547 359.162 132.043 359.478 132.043 360.147ZM133.589 360.996C133.979 361.484 134.55 361.785 135.407 361.785C136.467 361.785 137.248 361.139 137.248 360.109C137.248 359.08 136.489 358.501 135.648 358.501C135.159 358.501 134.738 358.704 134.498 358.944V357.344H136.918V356.682H133.746V359.433L134.287 359.606C134.618 359.29 134.979 359.155 135.415 359.155C136.061 359.155 136.489 359.538 136.489 360.139C136.489 360.688 136.054 361.116 135.4 361.116C134.814 361.116 134.363 360.891 134.032 360.485L133.589 360.996ZM138.058 360.996C138.449 361.484 139.02 361.785 139.877 361.785C140.936 361.785 141.718 361.139 141.718 360.109C141.718 359.08 140.959 358.501 140.117 358.501C139.629 358.501 139.208 358.704 138.967 358.944V357.344H141.387V356.682H138.216V359.433L138.757 359.606C139.088 359.29 139.448 359.155 139.884 359.155C140.531 359.155 140.959 359.538 140.959 360.139C140.959 360.688 140.523 361.116 139.869 361.116C139.283 361.116 138.832 360.891 138.501 360.485L138.058 360.996ZM146.17 360.169H147.973V359.583H146.17V360.169ZM150.691 361.695H153.103C154.028 361.695 154.554 361.131 154.554 360.342C154.554 359.733 154.118 359.192 153.584 359.11C154.043 359.012 154.456 358.591 154.456 357.96C154.456 357.231 153.937 356.682 153.043 356.682H150.691V361.695ZM151.442 358.809V357.344H152.9C153.404 357.344 153.682 357.667 153.682 358.08C153.682 358.493 153.404 358.809 152.9 358.809H151.442ZM151.442 361.033V359.47H152.938C153.494 359.47 153.78 359.831 153.78 360.244C153.78 360.733 153.464 361.033 152.938 361.033H151.442ZM157.708 361.695H158.384V359.245C158.384 358.321 157.715 357.975 156.926 357.975C156.34 357.975 155.844 358.17 155.438 358.569L155.731 359.034C156.054 358.711 156.408 358.553 156.821 358.553C157.339 358.553 157.708 358.824 157.708 359.275V359.876C157.43 359.553 157.009 359.395 156.52 359.395C155.912 359.395 155.258 359.756 155.258 360.583C155.258 361.379 155.919 361.785 156.52 361.785C157.009 361.785 157.422 361.612 157.708 361.297V361.695ZM157.708 360.898C157.505 361.169 157.152 361.312 156.776 361.312C156.287 361.312 155.942 361.018 155.942 360.59C155.942 360.162 156.287 359.869 156.776 359.869C157.152 359.869 157.505 360.011 157.708 360.282V360.898ZM161.918 361.695H162.594V359.147C162.594 358.381 162.196 357.975 161.429 357.975C160.866 357.975 160.385 358.283 160.144 358.576V358.065H159.468V361.695H160.144V359.102C160.34 358.832 160.723 358.576 161.144 358.576C161.61 358.576 161.918 358.771 161.918 359.373V361.695ZM163.44 359.876C163.44 360.966 164.192 361.785 165.289 361.785C165.973 361.785 166.386 361.499 166.649 361.146L166.198 360.733C165.981 361.033 165.687 361.184 165.319 361.184C164.605 361.184 164.147 360.628 164.147 359.876C164.147 359.125 164.605 358.576 165.319 358.576C165.687 358.576 165.981 358.719 166.198 359.027L166.649 358.614C166.386 358.26 165.973 357.975 165.289 357.975C164.192 357.975 163.44 358.786 163.44 359.876ZM169.002 361.785C170.137 361.785 170.836 360.928 170.836 359.876C170.836 358.832 170.137 357.975 169.002 357.975C167.875 357.975 167.169 358.832 167.169 359.876C167.169 360.928 167.875 361.785 169.002 361.785ZM169.002 361.184C168.281 361.184 167.875 360.568 167.875 359.876C167.875 359.192 168.281 358.576 169.002 358.576C169.731 358.576 170.13 359.192 170.13 359.876C170.13 360.568 169.731 361.184 169.002 361.184ZM175.12 361.695H176.06L178.051 356.682H177.194L175.586 360.876L173.985 356.682H173.129L175.12 361.695ZM179.798 361.785C180.933 361.785 181.632 360.928 181.632 359.876C181.632 358.832 180.933 357.975 179.798 357.975C178.671 357.975 177.964 358.832 177.964 359.876C177.964 360.928 178.671 361.785 179.798 361.785ZM179.798 361.184C179.077 361.184 178.671 360.568 178.671 359.876C178.671 359.192 179.077 358.576 179.798 358.576C180.527 358.576 180.925 359.192 180.925 359.876C180.925 360.568 180.527 361.184 179.798 361.184ZM183.49 361.785C183.843 361.785 184.054 361.687 184.196 361.552L184.024 361.041C183.956 361.116 183.813 361.184 183.655 361.184C183.422 361.184 183.302 360.996 183.302 360.74V358.659H184.039V358.065H183.302V357.073H182.626V358.065H182.025V358.659H182.626V360.891C182.626 361.462 182.919 361.785 183.49 361.785ZM186.396 361.785C187.531 361.785 188.23 360.928 188.23 359.876C188.23 358.832 187.531 357.975 186.396 357.975C185.269 357.975 184.562 358.832 184.562 359.876C184.562 360.928 185.269 361.785 186.396 361.785ZM186.396 361.184C185.674 361.184 185.269 360.568 185.269 359.876C185.269 359.192 185.674 358.576 186.396 358.576C187.125 358.576 187.523 359.192 187.523 359.876C187.523 360.568 187.125 361.184 186.396 361.184ZM189.088 361.695H189.765V359.17C189.922 358.899 190.381 358.644 190.719 358.644C190.809 358.644 190.884 358.651 190.952 358.666V357.982C190.471 357.982 190.043 358.26 189.765 358.621V358.065H189.088V361.695ZM193.867 361.695H194.543V359.245C194.543 358.321 193.875 357.975 193.085 357.975C192.499 357.975 192.003 358.17 191.597 358.569L191.891 359.034C192.214 358.711 192.567 358.553 192.98 358.553C193.499 358.553 193.867 358.824 193.867 359.275V359.876C193.589 359.553 193.168 359.395 192.68 359.395C192.071 359.395 191.417 359.756 191.417 360.583C191.417 361.379 192.078 361.785 192.68 361.785C193.168 361.785 193.581 361.612 193.867 361.297V361.695ZM193.867 360.898C193.664 361.169 193.311 361.312 192.935 361.312C192.447 361.312 192.101 361.018 192.101 360.59C192.101 360.162 192.447 359.869 192.935 359.869C193.311 359.869 193.664 360.011 193.867 360.282V360.898ZM198.077 361.695H198.754V359.147C198.754 358.381 198.355 357.975 197.589 357.975C197.025 357.975 196.544 358.283 196.304 358.576V358.065H195.627V361.695H196.304V359.102C196.499 358.832 196.882 358.576 197.303 358.576C197.769 358.576 198.077 358.771 198.077 359.373V361.695ZM200.825 361.785C201.178 361.785 201.388 361.687 201.531 361.552L201.358 361.041C201.291 361.116 201.148 361.184 200.99 361.184C200.757 361.184 200.637 360.996 200.637 360.74V358.659H201.373V358.065H200.637V357.073H199.961V358.065H199.359V358.659H199.961V360.891C199.961 361.462 200.254 361.785 200.825 361.785ZM202.453 357.456C202.694 357.456 202.889 357.268 202.889 357.028C202.889 356.787 202.694 356.592 202.453 356.592C202.22 356.592 202.017 356.787 202.017 357.028C202.017 357.268 202.22 357.456 202.453 357.456ZM202.122 361.695H202.799V358.065H202.122V361.695ZM208.288 361.695H208.964V359.072C208.964 358.343 208.603 357.975 207.935 357.975C207.401 357.975 206.92 358.313 206.71 358.651C206.597 358.26 206.274 357.975 205.725 357.975C205.184 357.975 204.703 358.351 204.553 358.576V358.065H203.876V361.695H204.553V359.102C204.733 358.839 205.086 358.576 205.44 358.576C205.898 358.576 206.078 358.854 206.078 359.275V361.695H206.755V359.095C206.928 358.832 207.288 358.576 207.657 358.576C208.1 358.576 208.288 358.854 208.288 359.275V361.695ZM131.569 377.785C132.554 377.785 133.162 377.312 133.561 376.725L132.922 376.387C132.659 376.808 132.163 377.116 131.569 377.116C130.555 377.116 129.773 376.312 129.773 375.192C129.773 374.065 130.555 373.268 131.569 373.268C132.163 373.268 132.659 373.577 132.922 373.997L133.561 373.659C133.17 373.073 132.554 372.6 131.569 372.6C130.141 372.6 128.999 373.652 128.999 375.192C128.999 376.733 130.141 377.785 131.569 377.785ZM135.903 377.785C137.038 377.785 137.737 376.928 137.737 375.876C137.737 374.832 137.038 373.975 135.903 373.975C134.776 373.975 134.07 374.832 134.07 375.876C134.07 376.928 134.776 377.785 135.903 377.785ZM135.903 377.184C135.182 377.184 134.776 376.568 134.776 375.876C134.776 375.192 135.182 374.576 135.903 374.576C136.632 374.576 137.031 375.192 137.031 375.876C137.031 376.568 136.632 377.184 135.903 377.184ZM141.046 377.695H141.722V375.147C141.722 374.381 141.324 373.975 140.557 373.975C139.994 373.975 139.513 374.283 139.272 374.576V374.065H138.596V377.695H139.272V375.102C139.467 374.832 139.851 374.576 140.272 374.576C140.738 374.576 141.046 374.771 141.046 375.373V377.695ZM143.793 377.785C144.146 377.785 144.357 377.687 144.5 377.552L144.327 377.041C144.259 377.116 144.116 377.184 143.958 377.184C143.726 377.184 143.605 376.996 143.605 376.74V374.659H144.342V374.065H143.605V373.073H142.929V374.065H142.328V374.659H142.929V376.891C142.929 377.462 143.222 377.785 143.793 377.785ZM147.33 377.695H148.007V375.245C148.007 374.321 147.338 373.975 146.549 373.975C145.963 373.975 145.467 374.17 145.061 374.569L145.354 375.034C145.677 374.711 146.03 374.553 146.443 374.553C146.962 374.553 147.33 374.824 147.33 375.275V375.876C147.052 375.553 146.631 375.395 146.143 375.395C145.534 375.395 144.88 375.756 144.88 376.583C144.88 377.379 145.542 377.785 146.143 377.785C146.631 377.785 147.045 377.612 147.33 377.297V377.695ZM147.33 376.898C147.127 377.169 146.774 377.312 146.398 377.312C145.91 377.312 145.564 377.018 145.564 376.59C145.564 376.162 145.91 375.869 146.398 375.869C146.774 375.869 147.127 376.011 147.33 376.282V376.898ZM148.97 374.486C148.97 374.734 149.181 374.952 149.436 374.952C149.692 374.952 149.91 374.734 149.91 374.486C149.91 374.23 149.692 374.012 149.436 374.012C149.181 374.012 148.97 374.23 148.97 374.486ZM148.97 377.304C148.97 377.56 149.181 377.777 149.436 377.777C149.692 377.777 149.91 377.56 149.91 377.304C149.91 377.049 149.692 376.838 149.436 376.838C149.181 376.838 148.97 377.049 148.97 377.304ZM152.623 375.192C152.623 376.432 153.195 377.785 154.585 377.785C155.975 377.785 156.546 376.432 156.546 375.192C156.546 373.952 155.975 372.607 154.585 372.607C153.195 372.607 152.623 373.952 152.623 375.192ZM155.78 375.192C155.78 376.169 155.472 377.116 154.585 377.116C153.698 377.116 153.39 376.169 153.39 375.192C153.39 374.215 153.698 373.276 154.585 373.276C155.472 373.276 155.78 374.215 155.78 375.192ZM157.24 375.192C157.24 376.432 157.811 377.785 159.201 377.785C160.591 377.785 161.163 376.432 161.163 375.192C161.163 373.952 160.591 372.607 159.201 372.607C157.811 372.607 157.24 373.952 157.24 375.192ZM160.396 375.192C160.396 376.169 160.088 377.116 159.201 377.116C158.314 377.116 158.006 376.169 158.006 375.192C158.006 374.215 158.314 373.276 159.201 373.276C160.088 373.276 160.396 374.215 160.396 375.192ZM161.856 375.192C161.856 376.432 162.427 377.785 163.817 377.785C165.208 377.785 165.779 376.432 165.779 375.192C165.779 373.952 165.208 372.607 163.817 372.607C162.427 372.607 161.856 373.952 161.856 375.192ZM165.012 375.192C165.012 376.169 164.704 377.116 163.817 377.116C162.931 377.116 162.622 376.169 162.622 375.192C162.622 374.215 162.931 373.276 163.817 373.276C164.704 373.276 165.012 374.215 165.012 375.192ZM166.472 375.192C166.472 376.432 167.043 377.785 168.434 377.785C169.824 377.785 170.395 376.432 170.395 375.192C170.395 373.952 169.824 372.607 168.434 372.607C167.043 372.607 166.472 373.952 166.472 375.192ZM169.628 375.192C169.628 376.169 169.32 377.116 168.434 377.116C167.547 377.116 167.239 376.169 167.239 375.192C167.239 374.215 167.547 373.276 168.434 373.276C169.32 373.276 169.628 374.215 169.628 375.192ZM171.088 375.192C171.088 376.432 171.66 377.785 173.05 377.785C174.44 377.785 175.011 376.432 175.011 375.192C175.011 373.952 174.44 372.607 173.05 372.607C171.66 372.607 171.088 373.952 171.088 375.192ZM174.245 375.192C174.245 376.169 173.937 377.116 173.05 377.116C172.163 377.116 171.855 376.169 171.855 375.192C171.855 374.215 172.163 373.276 173.05 373.276C173.937 373.276 174.245 374.215 174.245 375.192ZM175.584 376.169H177.388V375.583H175.584V376.169ZM177.958 375.192C177.958 376.432 178.529 377.785 179.919 377.785C181.309 377.785 181.881 376.432 181.881 375.192C181.881 373.952 181.309 372.607 179.919 372.607C178.529 372.607 177.958 373.952 177.958 375.192ZM181.114 375.192C181.114 376.169 180.806 377.116 179.919 377.116C179.032 377.116 178.724 376.169 178.724 375.192C178.724 374.215 179.032 373.276 179.919 373.276C180.806 373.276 181.114 374.215 181.114 375.192Z" fill="#855B35"/>
<circle cx="98.2169" cy="213.064" r="10.5212" fill="#01BDE4"/>
<path d="M94.4593 213.064L95.2515 213.856L97.6567 211.451L97.6567 216.822L98.7772 216.822L98.7772 211.451L101.182 213.856L101.974 213.064L98.2169 209.307L94.4593 213.064Z" fill="#FBF9BE"/>
<circle cx="98.2169" cy="315.271" r="10.5212" fill="#01BDE4"/>
<path d="M101.974 315.271L101.182 314.478L98.7771 316.884V311.513H97.6566V316.884L95.2514 314.478L94.4592 315.271L98.2168 319.028L101.974 315.271Z" fill="#FBF9BE"/>
</g>
<defs>
<filter id="filter0_f_7398_912" x="29.2406" y="457.225" width="266.797" height="97.6463" filterUnits="userSpaceOnUse" color-interpolation-filters="sRGB">
<feFlood flood-opacity="0" result="BackgroundImageFix"/>
<feBlend mode="normal" in="SourceGraphic" in2="BackgroundImageFix" result="shape"/>
<feGaussianBlur stdDeviation="18.0684" result="effect1_foregroundBlur_7398_912"/>
</filter>
<filter id="filter1_d_7398_912" x="0" y="0.592041" width="325.112" height="571.664" filterUnits="userSpaceOnUse" color-interpolation-filters="sRGB">
<feFlood flood-opacity="0" result="BackgroundImageFix"/>
<feColorMatrix in="SourceAlpha" type="matrix" values="0 0 0 0 0 0 0 0 0 0 0 0 0 0 0 0 0 0 127 0" result="hardAlpha"/>
<feOffset dy="10"/>
<feGaussianBlur stdDeviation="25"/>
<feColorMatrix type="matrix" values="0 0 0 0 0.373991 0 0 0 0 0.361215 0 0 0 0 0.420833 0 0 0 0.1 0"/>
<feBlend mode="normal" in2="BackgroundImageFix" result="effect1_dropShadow_7398_912"/>
<feBlend mode="normal" in="SourceGraphic" in2="effect1_dropShadow_7398_912" result="shape"/>
</filter>
<linearGradient id="paint0_linear_7398_912" x1="254.831" y1="28.4152" x2="93.6912" y2="506.964" gradientUnits="userSpaceOnUse">
<stop stop-color="#F7F7FB"/>
<stop offset="1" stop-color="#E7E7E7"/>
</linearGradient>
<linearGradient id="paint1_linear_7398_912" x1="258.49" y1="47.5371" x2="-11.0354" y2="596.471" gradientUnits="userSpaceOnUse">
<stop stop-color="white"/>
<stop offset="1" stop-color="#FFF5D5"/>
</linearGradient>
<linearGradient id="paint2_linear_7398_912" x1="36.2167" y1="464.43" x2="-16.7643" y2="97.0571" gradientUnits="userSpaceOnUse">
<stop stop-color="#00A5F0"/>
<stop offset="1" stop-color="#00D7D7"/>
</linearGradient>
<linearGradient id="paint3_linear_7398_912" x1="161.908" y1="374.265" x2="162.095" y2="429.313" gradientUnits="userSpaceOnUse">
<stop stop-color="#CCB579" stop-opacity="0"/>
<stop offset="1" stop-color="#CCB579"/>
</linearGradient>
</defs>
</svg>
