<svg width="26" height="20" viewBox="0 0 26 20" fill="none" xmlns="http://www.w3.org/2000/svg">
<path d="M25.0541 2.37575C24.1488 2.76628 23.1636 3.04735 22.1488 3.15682C23.2024 2.53089 23.9914 1.54202 24.3677 0.375752C23.3791 0.963885 22.296 1.37629 21.1665 1.59469C20.6945 1.09003 20.1236 0.687999 19.4893 0.413643C18.8551 0.139287 18.1712 -0.00151415 17.4802 1.22793e-05C14.6843 1.22793e-05 12.4358 2.26628 12.4358 5.04735C12.4358 5.43788 12.4831 5.82841 12.56 6.20415C8.37366 5.98522 4.63993 3.98522 2.15768 0.923089C1.70539 1.69562 1.46838 2.57524 1.47129 3.47042C1.47129 5.2219 2.36183 6.76628 3.71981 7.67456C2.91953 7.64305 2.13799 7.42308 1.43875 7.03255V7.09468C1.43875 9.54734 3.17248 11.5799 5.48313 12.0473C5.04928 12.16 4.60297 12.2177 4.15472 12.2189C3.82632 12.2189 3.51567 12.1864 3.20206 12.142C3.84111 14.142 5.70206 15.5947 7.91804 15.642C6.18431 17 4.01271 17.7988 1.65473 17.7988C1.23165 17.7988 0.841116 17.784 0.435791 17.7367C2.67248 19.1716 5.32632 20 8.18431 20C17.4624 20 22.5393 12.3136 22.5393 5.64202C22.5393 5.42309 22.5393 5.20415 22.5245 4.98522C23.5068 4.26628 24.3677 3.37575 25.0541 2.37575Z" fill="white"/>
</svg>
