<svg width="29" height="20" viewBox="0 0 29 20" fill="none" xmlns="http://www.w3.org/2000/svg">
<path d="M28.3494 9.91382C28.3494 9.84611 28.3494 9.76916 28.3464 9.6799C28.3433 9.43059 28.3371 9.15051 28.331 8.85195C28.3064 7.99323 28.2633 7.13758 28.1956 6.33118C28.1032 5.22007 27.9678 4.29363 27.7831 3.59803C27.5882 2.87211 27.2062 2.21006 26.6753 1.67804C26.1444 1.14603 25.4831 0.762684 24.7576 0.566328C23.8865 0.33241 22.1814 0.18775 19.7807 0.0984917C18.6388 0.0554016 17.4168 0.0277006 16.1949 0.0123113C15.7671 0.00615555 15.3701 0.00307787 15.013 0H14.1081C13.7511 0.00307787 13.3541 0.00615555 12.9262 0.0123113C11.7043 0.0277006 10.4824 0.0554016 9.34052 0.0984917C6.93978 0.190828 5.23156 0.335488 4.3636 0.566328C3.63784 0.762202 2.97631 1.14538 2.4453 1.67747C1.91429 2.20957 1.53246 2.87187 1.33806 3.59803C1.15031 4.29363 1.01796 5.22007 0.925622 6.33118C0.857909 7.13758 0.814819 7.99323 0.790196 8.85195C0.780962 9.15051 0.777884 9.43059 0.774806 9.6799C0.774806 9.76916 0.771729 9.84611 0.771729 9.91382V10.0862C0.771729 10.1539 0.771728 10.2308 0.774806 10.3201C0.777884 10.5694 0.78404 10.8495 0.790196 11.148C0.814819 12.0068 0.857909 12.8624 0.925622 13.6688C1.01796 14.7799 1.15338 15.7064 1.33806 16.402C1.73202 17.8763 2.8893 19.0397 4.3636 19.4337C5.23156 19.6676 6.93978 19.8122 9.34052 19.9015C10.4824 19.9446 11.7043 19.9723 12.9262 19.9877C13.3541 19.9938 13.7511 19.9969 14.1081 20H15.013C15.3701 19.9969 15.7671 19.9938 16.1949 19.9877C17.4168 19.9723 18.6388 19.9446 19.7807 19.9015C22.1814 19.8092 23.8896 19.6645 24.7576 19.4337C26.2319 19.0397 27.3891 17.8793 27.7831 16.402C27.9709 15.7064 28.1032 14.7799 28.1956 13.6688C28.2633 12.8624 28.3064 12.0068 28.331 11.148C28.3402 10.8495 28.3433 10.5694 28.3464 10.3201C28.3464 10.2308 28.3494 10.1539 28.3494 10.0862V9.91382ZM26.1334 10.0739C26.1334 10.1385 26.1334 10.2093 26.1303 10.2924C26.1272 10.5325 26.1211 10.7972 26.1149 11.0834C26.0934 11.9021 26.0503 12.7208 25.9856 13.4811C25.9025 14.4721 25.7856 15.2847 25.6409 15.8295C25.4501 16.5405 24.8899 17.1037 24.182 17.2915C23.5357 17.4638 21.9075 17.6023 19.6945 17.6854C18.5741 17.7285 17.3676 17.7562 16.1642 17.7716C15.7425 17.7778 15.3516 17.7809 15.0007 17.7809H14.1205L12.957 17.7716C11.7536 17.7562 10.5501 17.7285 9.4267 17.6854C7.21371 17.5993 5.58244 17.4638 4.93916 17.2915C4.23125 17.1006 3.67108 16.5405 3.48025 15.8295C3.33559 15.2847 3.21864 14.4721 3.13553 13.4811C3.0709 12.7208 3.03089 11.9021 3.00626 11.0834C2.99703 10.7972 2.99395 10.5294 2.99087 10.2924C2.99087 10.2093 2.98779 10.1354 2.98779 10.0739V9.92613C2.98779 9.8615 2.9878 9.7907 2.99087 9.7076C2.99395 9.46753 3.00011 9.20283 3.00626 8.91659C3.02781 8.09787 3.0709 7.27916 3.13553 6.51893C3.21864 5.52785 3.33559 4.7153 3.48025 4.17051C3.67108 3.45953 4.23125 2.89628 4.93916 2.70853C5.58552 2.53616 7.21371 2.39766 9.4267 2.31456C10.547 2.27147 11.7536 2.24377 12.957 2.22838C13.3787 2.22222 13.7696 2.21914 14.1205 2.21914H15.0007L16.1642 2.22838C17.3676 2.24377 18.5711 2.27147 19.6945 2.31456C21.9075 2.40074 23.5387 2.53616 24.182 2.70853C24.8899 2.89935 25.4501 3.45953 25.6409 4.17051C25.7856 4.7153 25.9025 5.52785 25.9856 6.51893C26.0503 7.27916 26.0903 8.09787 26.1149 8.91659C26.1241 9.20283 26.1272 9.47061 26.1303 9.7076C26.1303 9.7907 26.1334 9.86457 26.1334 9.92613V10.0739ZM11.8213 14.1243L18.9619 9.96922L11.8213 5.87565V14.1243Z" fill="white"/>
</svg>
